<?xml version="1.0" encoding="utf-8"?>
<!-- Generator: Adobe Illustrator 16.0.3, SVG Export Plug-In . SVG Version: 6.00 Build 0)  -->
<!DOCTYPE svg PUBLIC "-//W3C//DTD SVG 1.1//EN" "http://www.w3.org/Graphics/SVG/1.1/DTD/svg11.dtd">
<svg version="1.1" id="Layer_1" xmlns="http://www.w3.org/2000/svg" xmlns:xlink="http://www.w3.org/1999/xlink" x="0px" y="0px"
	 width="48px" height="48px" viewBox="0 0 48 48" enable-background="new 0 0 48 48" xml:space="preserve">
<g>
	<polygon fill="#666666" points="48,24.538 48,27.874 24.323,27.874 24.323,47.569 20.448,47.569 20.448,27.874 13.775,27.874 
		13.775,31.426 17.22,31.426 17.22,34.87 13.775,34.87 13.775,38.313 10.332,38.313 10.332,34.87 6.888,34.87 6.888,31.426 
		10.332,31.426 10.332,27.874 0,27.874 0,24.538 20.448,24.538 20.448,0.431 24.323,0.431 24.323,24.538 37.883,24.538 
		37.883,21.094 34.439,21.094 34.439,17.65 37.883,17.65 37.883,14.206 41.327,14.206 41.327,17.65 44.771,17.65 44.771,21.094 
		41.327,21.094 41.327,24.538 	"/>
	<polygon fill="#4FB81C" points="6.888,10.763 3.337,10.763 3.337,7.318 6.888,7.318 6.888,3.874 10.332,3.874 10.332,7.318 
		13.775,7.318 13.775,10.763 10.332,10.763 10.332,14.206 6.888,14.206 	"/>
	<polygon fill="#008FD3" points="30.995,10.763 30.995,7.318 27.552,7.318 27.552,3.874 30.995,3.874 30.995,0.431 34.439,0.431 
		34.439,3.874 37.883,3.874 37.883,7.318 34.439,7.318 34.439,10.763 	"/>
	<polygon fill="#4FB81C" points="37.883,31.426 37.883,34.87 41.327,34.87 41.327,38.313 37.883,38.313 37.883,41.758 
		34.439,41.758 34.439,38.313 30.995,38.313 30.995,34.87 34.439,34.87 34.439,31.426 	"/>
</g>
</svg>
