<?xml version="1.0" encoding="utf-8"?>
<!-- Generator: Adobe Illustrator 16.0.0, SVG Export Plug-In . SVG Version: 6.00 Build 0)  -->
<!DOCTYPE svg PUBLIC "-//W3C//DTD SVG 1.1//EN" "http://www.w3.org/Graphics/SVG/1.1/DTD/svg11.dtd">
<svg version="1.1" xmlns="http://www.w3.org/2000/svg" xmlns:xlink="http://www.w3.org/1999/xlink" x="0px" y="0px" width="24px"
	 height="24px" viewBox="0 0 24 24" enable-background="new 0 0 24 24" xml:space="preserve">
<g id="Layout">
</g>
<g id="icons">
	<g>
		<g>
			<path fill="#666666" d="M5.249,6.484l2.854,2.854c-0.838,0.705-1.789,1.104-2.854,1.199c-0.159,0.012-0.306,0.018-0.439,0.018
				c-0.132,0-0.272-0.006-0.418-0.018c-0.852-0.068-1.633-0.338-2.346-0.811C1.335,9.256,0.772,8.646,0.36,7.902
				C0.228,7.662,0.114,7.41,0.021,7.145c-0.186-0.533-0.279-1.084-0.279-1.656c0-1.252,0.398-2.357,1.197-3.314
				c0.2-0.211,0.399-0.404,0.599-0.578C2.362,0.904,3.314,0.506,4.392,0.4v5.246L5.249,6.484z"/>
			<path fill="#008FD3" d="M9.259,3.033l-4.01,1.775V0c0.945,0.066,1.805,0.355,2.584,0.867C8.61,1.379,9.22,2.043,9.659,2.854
				L9.259,3.033z"/>
			<path fill="#4FB81C" d="M10.019,3.631c0.199,0.6,0.299,1.219,0.299,1.857c0,1.344-0.439,2.525-1.316,3.551L8.681,8.76
				L5.548,5.607L10.019,3.631z"/>
		</g>
		<g>
			<path fill="#666666" d="M19.22,6.477l2.834,2.834c-0.832,0.699-1.777,1.096-2.834,1.189c-0.158,0.012-0.305,0.02-0.436,0.02
				c-0.133,0-0.271-0.008-0.416-0.02c-0.846-0.068-1.623-0.334-2.328-0.803c-0.707-0.471-1.266-1.074-1.676-1.814
				c-0.131-0.238-0.244-0.488-0.336-0.752c-0.186-0.529-0.277-1.078-0.277-1.645c0-1.242,0.396-2.34,1.189-3.289
				c0.197-0.211,0.395-0.404,0.594-0.576c0.818-0.686,1.764-1.082,2.834-1.189v5.211L19.22,6.477z"/>
			<path fill="#008FD3" d="M23.202,3.049L19.22,4.813V0.035c0.938,0.068,1.793,0.354,2.566,0.863
				c0.771,0.508,1.377,1.166,1.813,1.971L23.202,3.049z"/>
			<path fill="#4FB81C" d="M23.956,3.643c0.197,0.596,0.297,1.209,0.297,1.844c0,1.334-0.436,2.51-1.309,3.527l-0.316-0.277
				l-3.111-3.131L23.956,3.643z"/>
		</g>
		<g>
			<path fill="#4FB81C" d="M5.248,19.957l2.833,2.834c-0.832,0.701-1.777,1.096-2.833,1.189C5.09,23.994,4.943,24,4.812,24
				c-0.133,0-0.271-0.006-0.416-0.02c-0.846-0.066-1.621-0.334-2.329-0.803c-0.706-0.469-1.265-1.072-1.673-1.814
				c-0.133-0.236-0.245-0.486-0.337-0.752c-0.185-0.529-0.278-1.076-0.278-1.645c0-1.242,0.396-2.34,1.189-3.289
				c0.198-0.213,0.396-0.404,0.595-0.576c0.819-0.686,1.763-1.082,2.833-1.189v5.213L5.248,19.957z"/>
			<path fill="#008FD3" d="M9.231,16.529l-3.983,1.764v-4.775c0.937,0.064,1.792,0.352,2.565,0.861
				c0.773,0.508,1.377,1.166,1.814,1.973L9.231,16.529z"/>
			<path fill="#666666" d="M9.983,17.123c0.197,0.596,0.297,1.209,0.297,1.844c0,1.334-0.436,2.51-1.309,3.527l-0.316-0.279
				l-3.111-3.131L9.983,17.123z"/>
		</g>
		<g>
			<path fill="#008FD3" d="M5.248,6.477l2.833,2.834C7.249,10.01,6.304,10.406,5.248,10.5c-0.158,0.012-0.305,0.02-0.437,0.02
				c-0.133,0-0.271-0.008-0.415-0.02c-0.847-0.068-1.622-0.334-2.329-0.803C1.36,9.227,0.803,8.623,0.394,7.883
				C0.262,7.645,0.149,7.395,0.057,7.131c-0.185-0.529-0.277-1.078-0.277-1.645c0-1.242,0.396-2.34,1.188-3.289
				c0.198-0.211,0.396-0.404,0.595-0.576c0.819-0.686,1.764-1.082,2.834-1.189v5.211L5.248,6.477z"/>
			<path fill="#666666" d="M9.231,3.049L5.248,4.813V0.035C6.185,0.104,7.04,0.389,7.813,0.898C8.587,1.406,9.19,2.064,9.628,2.869
				L9.231,3.049z"/>
			<path fill="#4FB81C" d="M9.983,3.643c0.197,0.596,0.297,1.209,0.297,1.844c0,1.334-0.436,2.51-1.309,3.527L8.655,8.736
				L5.544,5.605L9.983,3.643z"/>
		</g>
		<g>
			<path fill="#008FD3" d="M19.22,19.957l2.834,2.834c-0.832,0.701-1.777,1.096-2.834,1.189C19.062,23.994,18.915,24,18.784,24
				c-0.133,0-0.271-0.006-0.416-0.02c-0.846-0.066-1.623-0.334-2.33-0.803c-0.705-0.469-1.266-1.072-1.674-1.814
				c-0.133-0.236-0.244-0.486-0.336-0.752c-0.186-0.529-0.277-1.076-0.277-1.645c0-1.242,0.396-2.34,1.188-3.289
				c0.199-0.213,0.396-0.404,0.596-0.576c0.818-0.686,1.764-1.082,2.834-1.189v5.213L19.22,19.957z"/>
			<path fill="#4FB81C" d="M23.202,16.529l-3.982,1.764v-4.775c0.938,0.064,1.793,0.352,2.566,0.861
				c0.773,0.508,1.377,1.166,1.813,1.973L23.202,16.529z"/>
			<path fill="#666666" d="M23.956,17.123c0.197,0.596,0.297,1.209,0.297,1.844c0,1.334-0.436,2.51-1.309,3.527l-0.316-0.279
				l-3.111-3.131L23.956,17.123z"/>
		</g>
	</g>
</g>
</svg>
