<?xml version="1.0" encoding="utf-8"?>
<!-- Generator: Adobe Illustrator 16.0.3, SVG Export Plug-In . SVG Version: 6.00 Build 0)  -->
<!DOCTYPE svg PUBLIC "-//W3C//DTD SVG 1.1//EN" "http://www.w3.org/Graphics/SVG/1.1/DTD/svg11.dtd">
<svg version="1.1" id="Layer_1" xmlns="http://www.w3.org/2000/svg" xmlns:xlink="http://www.w3.org/1999/xlink" x="0px" y="0px"
	 width="48px" height="48px" viewBox="0 0 48 48" enable-background="new 0 0 48 48" xml:space="preserve">
<g>
	<polygon fill="#008FD3" points="47.257,12.705 31.533,26.152 14.021,26.152 0.743,37.68 0.743,45.625 16.262,32.152 33.749,32.152 
		47.257,20.601 	"/>
	<g>
		<polygon fill="#666666" points="45.958,11.186 47.257,10.073 47.257,0 34.895,0 34.895,20.646 		"/>
		<polygon fill="#666666" points="35.049,33.673 34.895,33.805 34.895,48 47.257,48 47.257,23.232 		"/>
	</g>
	<g>
		<rect x="17.818" y="20.572" fill="#4FB81C" width="12.472" height="3.58"/>
		<rect x="17.818" y="34.152" fill="#4FB81C" width="12.472" height="13.848"/>
	</g>
	<g>
		<polygon fill="#BFBFBF" points="12.71,24.643 13.273,24.152 13.319,24.152 13.319,13.713 0.743,13.713 0.743,35.031 		"/>
		<polygon fill="#BFBFBF" points="2.054,47.136 1.058,48 13.319,48 13.319,37.355 		"/>
	</g>
</g>
</svg>
