<?xml version="1.0" encoding="utf-8"?>
<!-- Generator: Adobe Illustrator 16.0.3, SVG Export Plug-In . SVG Version: 6.00 Build 0)  -->
<!DOCTYPE svg PUBLIC "-//W3C//DTD SVG 1.1//EN" "http://www.w3.org/Graphics/SVG/1.1/DTD/svg11.dtd">
<svg version="1.1" id="Layer_1" xmlns="http://www.w3.org/2000/svg" xmlns:xlink="http://www.w3.org/1999/xlink" x="0px" y="0px"
	 width="48px" height="48px" viewBox="0 0 48 48" enable-background="new 0 0 48 48" xml:space="preserve">
<g>
	<path fill="#008FD3" d="M4.154,40.017c-0.435,0-0.893-0.178-1.365-0.546c-0.474-0.362-0.71-0.837-0.71-1.418
		c0-0.656,0.328-1.206,0.984-1.64l12.68-8.529l11.916,2.074l15.311-9.619c0.289-0.145,0.617-0.222,0.984-0.222
		c1.313,0,1.969,0.622,1.969,1.861c0,0.802-0.328,1.419-0.984,1.857l-16.51,10.28l-11.915-1.969L5.246,39.688
		C4.877,39.91,4.52,40.017,4.154,40.017z"/>
	<path fill="#666666" d="M4.154,48c-0.512,0-0.983-0.164-1.418-0.492c-0.443-0.327-0.657-0.78-0.657-1.365
		c0-0.877,0.396-1.533,1.199-1.968l12.571-6.122l12.03,1.857l15.42-5.688c0.074-0.071,0.326-0.106,0.76-0.106
		c1.244,0,1.863,0.656,1.863,1.968c0,0.946-0.406,1.53-1.205,1.747l-16.51,6.232l-11.809-1.968L5.032,47.673
		C4.877,47.89,4.588,48,4.154,48z"/>
	<path fill="#4FB81C" d="M4.154,32.037c-0.435,0-0.876-0.164-1.313-0.491c-0.435-0.329-0.655-0.781-0.655-1.366
		c0-0.656,0.251-1.206,0.764-1.64l12.358-10.498h11.809L42.535,0.656C42.969,0.218,43.441,0,43.953,0
		c0.58,0,1.053,0.218,1.418,0.656c0.367,0.439,0.551,0.913,0.551,1.423c0,0.508-0.146,0.913-0.436,1.202L28.971,22.085H16.839
		L5.466,31.599C5.176,31.893,4.734,32.037,4.154,32.037z"/>
</g>
</svg>
