<?xml version="1.0" encoding="utf-8"?>
<!-- Generator: Adobe Illustrator 16.0.0, SVG Export Plug-In . SVG Version: 6.00 Build 0)  -->
<!DOCTYPE svg PUBLIC "-//W3C//DTD SVG 1.1//EN" "http://www.w3.org/Graphics/SVG/1.1/DTD/svg11.dtd">
<svg version="1.1" xmlns="http://www.w3.org/2000/svg" xmlns:xlink="http://www.w3.org/1999/xlink" x="0px" y="0px" width="24px"
	 height="24px" viewBox="0 0 24 24" enable-background="new 0 0 24 24" xml:space="preserve">
<g id="Layout">
</g>
<g id="icons">
	<g>
		<path fill="#008FD3" d="M3.834,1.917c0-0.217,0.09-0.445,0.273-0.682C4.289,0.999,4.527,0.88,4.816,0.88
			c0.328,0,0.604,0.164,0.82,0.492l4.266,6.34l-1.037,5.959l4.809,7.655c0.072,0.144,0.111,0.308,0.111,0.491
			c0,0.657-0.311,0.984-0.932,0.984c-0.4,0-0.709-0.163-0.928-0.491l-5.141-8.255L7.77,8.099L4,2.464
			C3.889,2.279,3.834,2.101,3.834,1.917z"/>
		<path fill="#666666" d="M-0.156,1.917c0-0.256,0.082-0.49,0.246-0.709C0.252,0.987,0.479,0.88,0.771,0.88
			c0.439,0,0.768,0.199,0.984,0.6l3.061,6.285L3.889,13.78l2.844,7.71c0.035,0.037,0.053,0.163,0.053,0.38
			c0,0.622-0.328,0.932-0.984,0.932c-0.473,0-0.764-0.203-0.873-0.603l-3.115-8.255L2.795,8.04L0.008,2.356
			C-0.102,2.279-0.156,2.135-0.156,1.917z"/>
		<path fill="#4FB81C" d="M7.824,1.917c0-0.217,0.082-0.438,0.246-0.656c0.164-0.217,0.391-0.326,0.684-0.326
			c0.328,0,0.602,0.125,0.82,0.381l5.248,6.18v5.904l8.693,7.709c0.219,0.217,0.328,0.453,0.328,0.709
			c0,0.29-0.109,0.526-0.328,0.709c-0.221,0.184-0.457,0.275-0.711,0.275s-0.457-0.073-0.602-0.218l-9.402-8.258V8.261L8.043,2.573
			C7.896,2.429,7.824,2.208,7.824,1.917z"/>
	</g>
</g>
</svg>
