<?xml version="1.0" encoding="utf-8"?>
<!-- Generator: Adobe Illustrator 16.0.3, SVG Export Plug-In . SVG Version: 6.00 Build 0)  -->
<!DOCTYPE svg PUBLIC "-//W3C//DTD SVG 1.1//EN" "http://www.w3.org/Graphics/SVG/1.1/DTD/svg11.dtd">
<svg version="1.1" id="Layer_1" xmlns="http://www.w3.org/2000/svg" xmlns:xlink="http://www.w3.org/1999/xlink" x="0px" y="0px"
	 width="48px" height="48px" viewBox="0 0 48 48" enable-background="new 0 0 48 48" xml:space="preserve">
<g>
	<path fill="#707070" d="M9.095,33.368v-4.466H1v-2.102l8.515-12.093h1.871v12.093h2.521v2.102h-2.521v4.466H9.095z M9.095,26.801
		v-8.414l-5.842,8.414H9.095z"/>
	<path fill="#707070" d="M28.288,31.166v2.202H15.956c-0.018-0.551,0.072-1.082,0.267-1.59c0.314-0.841,0.816-1.67,1.508-2.484
		s1.69-1.756,2.997-2.826c2.029-1.663,3.399-2.979,4.109-3.953c0.714-0.969,1.071-1.89,1.071-2.753c0-0.908-0.323-1.674-0.974-2.298
		c-0.648-0.624-1.496-0.936-2.539-0.936c-1.104,0-1.987,0.331-2.648,0.992c-0.663,0.663-0.998,1.579-1.006,2.748l-2.355-0.24
		c0.161-1.756,0.768-3.095,1.82-4.016c1.052-0.921,2.465-1.381,4.239-1.381c1.792,0,3.208,0.496,4.251,1.489
		c1.044,0.992,1.566,2.223,1.566,3.69c0,0.748-0.152,1.481-0.458,2.202s-0.814,1.48-1.521,2.279
		c-0.709,0.799-1.886,1.892-3.533,3.283c-1.375,1.155-2.256,1.937-2.646,2.348c-0.392,0.414-0.713,0.827-0.967,1.242H28.288z"/>
	<path fill="#4FB81C" d="M31.574,33.368v-18.66h2.47v9.256l9.266-9.256h3.346l-7.827,7.562L47,33.368h-3.26l-6.642-9.443
		l-3.055,2.978v6.466H31.574z"/>
</g>
</svg>
