<?xml version="1.0" encoding="utf-8"?>
<!-- Generator: Adobe Illustrator 16.0.3, SVG Export Plug-In . SVG Version: 6.00 Build 0)  -->
<!DOCTYPE svg PUBLIC "-//W3C//DTD SVG 1.1//EN" "http://www.w3.org/Graphics/SVG/1.1/DTD/svg11.dtd">
<svg version="1.1" id="Layer_1" xmlns="http://www.w3.org/2000/svg" xmlns:xlink="http://www.w3.org/1999/xlink" x="0px" y="0px"
	 width="48px" height="48px" viewBox="0 0 48 48" enable-background="new 0 0 48 48" xml:space="preserve">
<g id="_x3C_Group_x3E__colored_48_12_">
	<polygon fill="#008FD3" points="19,16 27,12 27,3 19,7 	"/>
	<polygon fill="#707070" points="19,7 27,3 21,0 13,4 13,5 17,7 17,17 19,16 	"/>
	<polygon fill="#4FB81C" points="15,18 15,9 7,13 7,38 9,37 9,21 	"/>
	<polygon fill="#707070" points="9,6 1,10 1,35 7,38 7,13 15,9 	"/>
	<polygon fill="#008FD3" points="29,29 37,25 37,16 29,20 	"/>
	<polygon fill="#707070" points="29,20 37,16 31,13 23,17 23,18 27,20 27,30 29,29 	"/>
	<polygon fill="#4FB81C" points="25,31 25,22 17,26 17,43 19,42 19,34 	"/>
	<polygon fill="#707070" points="19,19 11,23 11,40 17,43 17,26 25,22 	"/>
	<polygon fill="#008FD3" points="47,38 39,42 39,33 47,29 	"/>
	<polygon fill="#707070" points="41,26 33,30 33,31 37,33 37,41 39,42 39,33 47,29 	"/>
	<polygon fill="#4FB81C" points="35,44 27,48 27,39 35,35 	"/>
	<polygon fill="#707070" points="29,32 21,36 21,45 27,48 27,39 35,35 	"/>
</g>
</svg>
