<?xml version="1.0" encoding="utf-8"?>
<!-- Generator: Adobe Illustrator 16.0.0, SVG Export Plug-In . SVG Version: 6.00 Build 0)  -->
<!DOCTYPE svg PUBLIC "-//W3C//DTD SVG 1.1//EN" "http://www.w3.org/Graphics/SVG/1.1/DTD/svg11.dtd">
<svg version="1.1" xmlns="http://www.w3.org/2000/svg" xmlns:xlink="http://www.w3.org/1999/xlink" x="0px" y="0px" width="24px"
	 height="24px" viewBox="0 0 24 24" enable-background="new 0 0 24 24" xml:space="preserve">
<g id="Layout">
</g>
<g id="icons">
	<g>
		<g>
			<path fill="#008FD3" d="M0.455,9.054c-0.095,0-0.196-0.037-0.3-0.118S0,8.751,0,8.623c0-0.144,0.071-0.264,0.216-0.36
				l2.786-1.874L5.62,6.845l3.363-2.113C9.047,4.699,9.12,4.683,9.2,4.683c0.289,0,0.433,0.136,0.433,0.408
				c0,0.178-0.072,0.313-0.216,0.409L5.79,7.758L3.172,7.325L0.695,8.982C0.614,9.031,0.536,9.054,0.455,9.054z"/>
			<path fill="#666666" d="M0.455,10.81c-0.112,0-0.216-0.038-0.312-0.109C0.047,10.629,0,10.529,0,10.4
				c0-0.191,0.087-0.337,0.264-0.433l2.762-1.345l2.643,0.408l3.389-1.25c0.016-0.016,0.071-0.023,0.167-0.023
				c0.273,0,0.409,0.144,0.409,0.434c0,0.207-0.089,0.335-0.265,0.383L5.74,9.943L3.146,9.512l-2.497,1.225
				C0.614,10.785,0.551,10.81,0.455,10.81z"/>
			<path fill="#4FB81C" d="M0.455,7.301c-0.095,0-0.191-0.036-0.288-0.107c-0.096-0.072-0.144-0.172-0.144-0.3
				c0-0.145,0.055-0.266,0.167-0.361l2.716-2.306h2.595l3.387-3.82C8.983,0.311,9.087,0.262,9.2,0.262
				c0.127,0,0.23,0.049,0.312,0.145c0.081,0.097,0.121,0.2,0.121,0.313c0,0.11-0.032,0.199-0.097,0.264L5.908,5.115H3.242
				L0.743,7.204C0.68,7.271,0.582,7.301,0.455,7.301z"/>
		</g>
		<g>
			<path fill="#4FB81C" d="M14.821,9.054c-0.095,0-0.196-0.037-0.3-0.118c-0.104-0.081-0.155-0.185-0.155-0.313
				c0-0.144,0.072-0.264,0.216-0.36l2.786-1.874l2.618,0.456l3.364-2.113c0.063-0.032,0.135-0.049,0.216-0.049
				c0.288,0,0.433,0.136,0.433,0.408c0,0.178-0.072,0.313-0.216,0.409l-3.628,2.258l-2.617-0.433l-2.477,1.657
				C14.981,9.031,14.901,9.054,14.821,9.054z"/>
			<path fill="#008FD3" d="M14.821,10.81c-0.112,0-0.216-0.038-0.312-0.109c-0.097-0.071-0.144-0.171-0.144-0.3
				c0-0.191,0.086-0.337,0.264-0.433l2.762-1.345l2.643,0.408l3.389-1.25c0.016-0.016,0.072-0.023,0.166-0.023
				c0.274,0,0.41,0.144,0.41,0.434c0,0.207-0.09,0.335-0.265,0.383l-3.628,1.369l-2.595-0.432l-2.497,1.225
				C14.981,10.785,14.917,10.81,14.821,10.81z"/>
			<path fill="#666666" d="M14.821,7.301c-0.095,0-0.191-0.036-0.289-0.107c-0.095-0.072-0.143-0.172-0.143-0.3
				c0-0.145,0.055-0.266,0.168-0.361l2.715-2.306h2.595l3.388-3.82c0.096-0.096,0.199-0.145,0.312-0.145
				c0.128,0,0.231,0.049,0.312,0.145c0.081,0.097,0.121,0.2,0.121,0.313c0,0.11-0.032,0.199-0.096,0.264l-3.629,4.132h-2.666
				L15.11,7.204C15.046,7.271,14.948,7.301,14.821,7.301z"/>
		</g>
		<g>
			<path fill="#4FB81C" d="M0.455,21.984c-0.095,0-0.196-0.038-0.3-0.119C0.052,21.785,0,21.681,0,21.554
				c0-0.145,0.071-0.265,0.216-0.36l2.786-1.875l2.618,0.456l3.363-2.113c0.063-0.032,0.137-0.049,0.217-0.049
				c0.289,0,0.433,0.137,0.433,0.409c0,0.177-0.072,0.313-0.216,0.408L5.79,20.688l-2.618-0.432l-2.477,1.656
				C0.614,21.961,0.536,21.984,0.455,21.984z"/>
			<path fill="#666666" d="M0.455,23.739c-0.112,0-0.216-0.036-0.312-0.108C0.047,23.56,0,23.46,0,23.331
				c0-0.192,0.087-0.337,0.264-0.433l2.762-1.345l2.643,0.407l3.389-1.249c0.016-0.016,0.071-0.024,0.167-0.024
				c0.273,0,0.409,0.145,0.409,0.434c0,0.207-0.089,0.335-0.265,0.384L5.74,22.874l-2.595-0.433l-2.497,1.226
				C0.614,23.715,0.551,23.739,0.455,23.739z"/>
			<path fill="#008FD3" d="M0.455,20.231c-0.095,0-0.191-0.036-0.288-0.107c-0.096-0.072-0.144-0.172-0.144-0.301
				c0-0.144,0.055-0.265,0.167-0.36l2.716-2.306h2.595l3.387-3.821c0.096-0.096,0.199-0.144,0.313-0.144
				c0.127,0,0.23,0.048,0.312,0.144c0.081,0.098,0.121,0.201,0.121,0.313c0,0.11-0.032,0.2-0.097,0.265l-3.628,4.131H3.242
				l-2.499,2.09C0.68,20.2,0.582,20.231,0.455,20.231z"/>
		</g>
		<g>
			<path fill="#008FD3" d="M14.821,21.984c-0.095,0-0.196-0.038-0.3-0.119c-0.104-0.08-0.155-0.185-0.155-0.312
				c0-0.145,0.072-0.265,0.216-0.36l2.786-1.875l2.618,0.456l3.364-2.113c0.063-0.032,0.135-0.049,0.216-0.049
				c0.288,0,0.433,0.137,0.433,0.409c0,0.177-0.072,0.313-0.216,0.408l-3.628,2.258l-2.617-0.432l-2.477,1.656
				C14.981,21.961,14.901,21.984,14.821,21.984z"/>
			<path fill="#666666" d="M14.821,23.739c-0.112,0-0.216-0.036-0.312-0.108c-0.097-0.071-0.144-0.171-0.144-0.3
				c0-0.192,0.086-0.337,0.264-0.433l2.762-1.345l2.643,0.407l3.389-1.249c0.016-0.016,0.072-0.024,0.166-0.024
				c0.274,0,0.41,0.145,0.41,0.434c0,0.207-0.09,0.335-0.265,0.384l-3.628,1.369l-2.595-0.433l-2.497,1.226
				C14.981,23.715,14.917,23.739,14.821,23.739z"/>
			<path fill="#4FB81C" d="M14.821,20.231c-0.095,0-0.191-0.036-0.289-0.107c-0.095-0.072-0.143-0.172-0.143-0.301
				c0-0.144,0.055-0.265,0.168-0.36l2.715-2.306h2.595l3.388-3.821c0.096-0.096,0.199-0.144,0.312-0.144
				c0.128,0,0.231,0.048,0.312,0.144c0.081,0.098,0.121,0.201,0.121,0.313c0,0.11-0.032,0.2-0.096,0.265l-3.629,4.131h-2.666
				l-2.498,2.09C15.046,20.2,14.948,20.231,14.821,20.231z"/>
		</g>
	</g>
</g>
</svg>
