<?xml version="1.0" encoding="utf-8"?>
<!-- Generator: Adobe Illustrator 16.0.3, SVG Export Plug-In . SVG Version: 6.00 Build 0)  -->
<!DOCTYPE svg PUBLIC "-//W3C//DTD SVG 1.1//EN" "http://www.w3.org/Graphics/SVG/1.1/DTD/svg11.dtd">
<svg version="1.1" id="Layer_1" xmlns="http://www.w3.org/2000/svg" xmlns:xlink="http://www.w3.org/1999/xlink" x="0px" y="0px"
	 width="48px" height="48px" viewBox="0 0 48 48" enable-background="new 0 0 48 48" xml:space="preserve">
<g>
	<path fill="#666666" d="M31.313,33.307c-2.016,1.586-4.551,2.539-7.313,2.539c-6.542,0-11.846-5.304-11.846-11.846
		c0-6.097,4.608-11.114,10.531-11.769V0.951c-4.891,0.484-9.208,2.295-12.951,5.434C8.829,7.17,7.922,8.046,7.017,9.011
		c-3.623,4.347-5.434,9.359-5.434,15.034c0,2.598,0.422,5.104,1.268,7.518c0.422,1.208,0.936,2.354,1.54,3.441
		c1.87,3.382,4.422,6.145,7.652,8.287c3.229,2.143,6.776,3.365,10.642,3.668c0.663,0.059,1.298,0.09,1.901,0.09
		c0.604,0,1.27-0.031,1.994-0.09c4.828-0.424,9.146-2.234,12.951-5.434L31.313,33.307z"/>
	<path fill="#4FB81C" d="M45.059,15.456l-9.971,4.406c0.48,1.29,0.758,2.681,0.758,4.138c0,3.195-1.271,6.088-3.328,8.219
		l6.473,6.514L40.439,40c3.984-4.648,5.977-10.021,5.977-16.121C46.416,20.98,45.963,18.173,45.059,15.456z"/>
	<path fill="#008FD3" d="M36.082,4.891c-3.531-2.323-7.441-3.637-11.728-3.939v11.222c4.337,0.128,8.089,2.576,10.046,6.156
		l8.158-3.612l1.811-0.815C42.377,10.22,39.615,7.216,36.082,4.891z"/>
</g>
</svg>
