<?xml version="1.0" encoding="utf-8"?>
<!-- Generator: Adobe Illustrator 16.0.0, SVG Export Plug-In . SVG Version: 6.00 Build 0)  -->
<!DOCTYPE svg PUBLIC "-//W3C//DTD SVG 1.1//EN" "http://www.w3.org/Graphics/SVG/1.1/DTD/svg11.dtd">
<svg version="1.1" xmlns="http://www.w3.org/2000/svg" xmlns:xlink="http://www.w3.org/1999/xlink" x="0px" y="0px" width="24px"
	 height="24px" viewBox="0 0 24 24" enable-background="new 0 0 24 24" xml:space="preserve">
<g id="Layout">
</g>
<g id="icons">
	<g>
		<polygon fill="#666666" points="3.007,2.12 4.067,2.12 3.007,1.062 		"/>
		<polygon fill="#666666" points="9.896,2.12 9.896,-2.648 4.597,-2.648 9.366,2.12 		"/>
		<rect x="10.425" y="3.71" fill="#4FB81C" width="5.83" height="4.77"/>
		<polygon fill="#4FB81C" points="5.657,3.71 3.007,3.71 3.007,8.479 7.247,8.479 7.247,5.3 		"/>
		<polygon fill="#4FB81C" points="3.007,16.427 3.007,21.195 15.726,21.195 10.956,16.427 		"/>
		<polygon fill="#666666" points="14.136,14.308 14.136,10.069 10.425,10.069 10.425,10.599 		"/>
		<polygon fill="#666666" points="7.247,10.069 3.007,10.069 3.007,14.838 9.366,14.838 7.247,12.719 		"/>
		<polygon fill="#4FB81C" points="22.083,21.195 22.083,16.427 16.255,16.427 20.499,21.195 		"/>
		<path fill="#008FD3" d="M2.103-1.964c0-0.135,0.053-0.271,0.156-0.374c0.207-0.208,0.543-0.208,0.75,0l6.357,6.358v7.418
			l9.008,9.008c0.207,0.207,0.207,0.543,0,0.749c-0.207,0.208-0.541,0.208-0.748,0l-9.318-9.317V4.46L2.259-1.589
			C2.155-1.692,2.103-1.827,2.103-1.964z"/>
	</g>
</g>
</svg>
