<?xml version="1.0" encoding="utf-8"?>
<!-- Generator: Adobe Illustrator 16.0.3, SVG Export Plug-In . SVG Version: 6.00 Build 0)  -->
<!DOCTYPE svg PUBLIC "-//W3C//DTD SVG 1.1//EN" "http://www.w3.org/Graphics/SVG/1.1/DTD/svg11.dtd">
<svg version="1.1" id="Layer_1" xmlns="http://www.w3.org/2000/svg" xmlns:xlink="http://www.w3.org/1999/xlink" x="0px" y="0px"
	 width="48px" height="48px" viewBox="0 0 48 48" enable-background="new 0 0 48 48" xml:space="preserve">
<g id="_x3C_Group_x3E__colored_48_18_">
	<polygon fill="#4FB81C" points="13,6 13,4 3,4 3,6 7,6 7,14 3,14 3,34 7,34 7,40 3,40 3,42 13,42 13,40 9,40 9,34 13,34 13,14 
		9,14 9,6 	"/>
	<polygon fill="#666666" points="29,2 29,0 19,0 19,2 23,2 23,6 19,6 19,26 23,26 23,30 19,30 19,32 29,32 29,30 25,30 25,26 29,26 
		29,6 25,6 25,2 	"/>
	<polygon fill="#008FD3" points="45,10 45,8 35,8 35,10 39,10 39,20 35,20 35,40 39,40 39,46 35,46 35,48 45,48 45,46 41,46 41,40 
		45,40 45,20 41,20 41,10 	"/>
</g>
</svg>
