<?xml version="1.0" encoding="utf-8"?>
<!-- Generator: Adobe Illustrator 16.0.3, SVG Export Plug-In . SVG Version: 6.00 Build 0)  -->
<!DOCTYPE svg PUBLIC "-//W3C//DTD SVG 1.1//EN" "http://www.w3.org/Graphics/SVG/1.1/DTD/svg11.dtd">
<svg version="1.1" id="Layer_1" xmlns="http://www.w3.org/2000/svg" xmlns:xlink="http://www.w3.org/1999/xlink" x="0px" y="0px"
	 width="48px" height="48px" viewBox="0 0 48 48" enable-background="new 0 0 48 48" xml:space="preserve">
<g>
	<polygon fill="#666666" points="9.538,42.171 9.538,40.052 7.419,42.171 	"/>
	<polygon fill="#666666" points="9.538,28.396 0,28.396 0,38.993 9.538,29.454 	"/>
	<rect x="12.718" y="15.677" fill="#4FB81C" width="9.538" height="11.658"/>
	<polygon fill="#4FB81C" points="12.718,36.872 12.718,42.171 22.255,42.171 22.255,33.694 15.897,33.694 	"/>
	<polygon fill="#4FB81C" points="38.151,42.171 47.688,42.171 47.688,16.737 38.151,26.274 	"/>
	<polygon fill="#666666" points="33.913,19.916 25.435,19.916 25.435,27.335 26.494,27.335 	"/>
	<polygon fill="#666666" points="25.435,33.694 25.435,42.171 34.972,42.171 34.972,29.454 30.734,33.694 	"/>
	<polygon fill="#4FB81C" points="47.688,4.02 38.151,4.02 38.151,15.677 47.688,7.187 	"/>
	<path fill="#008FD3" d="M1.37,43.98c-0.271,0-0.542-0.104-0.749-0.312c-0.415-0.412-0.415-1.084,0-1.498l12.716-12.717h14.837
		L46.19,11.438c0.414-0.414,1.086-0.414,1.498,0c0.415,0.414,0.415,1.084,0,1.498L29.053,31.573H14.216L2.12,43.669
		C1.913,43.877,1.642,43.98,1.37,43.98z"/>
</g>
</svg>
