<?xml version="1.0" encoding="utf-8"?>
<!-- Generator: Adobe Illustrator 16.0.3, SVG Export Plug-In . SVG Version: 6.00 Build 0)  -->
<!DOCTYPE svg PUBLIC "-//W3C//DTD SVG 1.1//EN" "http://www.w3.org/Graphics/SVG/1.1/DTD/svg11.dtd">
<svg version="1.1" id="Layer_1" xmlns="http://www.w3.org/2000/svg" xmlns:xlink="http://www.w3.org/1999/xlink" x="0px" y="0px"
	 width="48px" height="48px" viewBox="0 0 48 48" enable-background="new 0 0 48 48" xml:space="preserve">
<path id="_x3C_Path_x3E__Tag_Cloud_Chart_48" fill="#4FB81C" d="M39.791,12.154C37.275,6.176,31.539,2,24.855,2
	c-5.369,0-10.137,2.699-13.1,6.863c-0.479-0.064-0.971-0.102-1.473-0.102C4.604,8.762,0,13.303,0,18.91C0,24.514,4.604,29,10.283,29
	h7.652c0.199,1.143,0.338,2.453,0.359,3.791c0.02,0.969-0.021,1.982-0.145,3.025c-0.336,2.912-1.328,6.969-3.305,10.184
	c0,0,8.41-3.727,13.783-10.184c0.703-0.844,1.355-1.75,1.93-2.725c0.736-1.236,1.346-2.637,1.775-4.092h7.094
	C44.16,29,48,25.268,48,20.6C48,16.051,44.354,12.344,39.791,12.154z"/>
</svg>
