<?xml version="1.0" encoding="utf-8"?>
<!-- Generator: Adobe Illustrator 16.0.3, SVG Export Plug-In . SVG Version: 6.00 Build 0)  -->
<!DOCTYPE svg PUBLIC "-//W3C//DTD SVG 1.1//EN" "http://www.w3.org/Graphics/SVG/1.1/DTD/svg11.dtd">
<svg version="1.1" id="Layer_1" xmlns="http://www.w3.org/2000/svg" xmlns:xlink="http://www.w3.org/1999/xlink" x="0px" y="0px"
	 width="48px" height="48px" viewBox="0 0 48 48" enable-background="new 0 0 48 48" xml:space="preserve">
<g>
	<g>
		<line fill="none" stroke="#666666" stroke-width="2" stroke-miterlimit="10" x1="4" y1="28" x2="14" y2="20"/>
		<line fill="none" stroke="#666666" stroke-width="2" stroke-miterlimit="10" x1="14" y1="20" x2="14" y2="41"/>
		<line fill="none" stroke="#666666" stroke-width="2" stroke-miterlimit="10" x1="14" y1="20" x2="16" y2="4"/>
		<line fill="none" stroke="#666666" stroke-width="2" stroke-miterlimit="10" x1="28" y1="24" x2="40" y2="10"/>
		<line fill="none" stroke="#666666" stroke-width="2" stroke-miterlimit="10" x1="28" y1="24" x2="44" y2="36"/>
		<line fill="none" stroke="#666666" stroke-width="2" stroke-miterlimit="10" x1="44" y1="36" x2="30" y2="44"/>
		<line fill="none" stroke="#666666" stroke-width="2" stroke-miterlimit="10" x1="30" y1="44" x2="14" y2="40"/>
		<line fill="none" stroke="#666666" stroke-width="2" stroke-miterlimit="10" x1="14" y1="40" x2="28" y2="24"/>
		<line fill="none" stroke="#666666" stroke-width="2" stroke-miterlimit="10" x1="16" y1="4" x2="28" y2="24"/>
		<line fill="none" stroke="#666666" stroke-width="2" stroke-miterlimit="10" x1="28" y1="24" x2="14" y2="20"/>
		<line fill="none" stroke="#666666" stroke-width="2" stroke-miterlimit="10" x1="4" y1="28" x2="14" y2="40"/>
		<line fill="none" stroke="#666666" stroke-width="2" stroke-miterlimit="10" x1="40" y1="10" x2="44" y2="36"/>
		<line fill="none" stroke="#666666" stroke-width="2" stroke-miterlimit="10" x1="40" y1="10" x2="30" y2="44"/>
		<line fill="none" stroke="#666666" stroke-width="2" stroke-miterlimit="10" x1="16" y1="4" x2="30" y2="44"/>
		<line fill="none" stroke="#666666" stroke-width="2" stroke-miterlimit="10" x1="4" y1="28" x2="16" y2="4"/>
		<line fill="none" stroke="#666666" stroke-width="2" stroke-miterlimit="10" x1="28" y1="24" x2="30" y2="44"/>
	</g>
	<circle fill="#4FB81C" cx="4" cy="28" r="4"/>
	<circle fill="#008FD3" cx="14" cy="40" r="4"/>
	<circle fill="#008FD3" cx="14" cy="20" r="4"/>
	<circle fill="#4FB81C" cx="16" cy="4" r="4"/>
	<circle fill="#4FB81C" cx="30" cy="44" r="4"/>
	<circle fill="#4FB81C" cx="28" cy="24" r="4"/>
	<circle fill="#4FB81C" cx="44" cy="36" r="4"/>
	<circle fill="#008FD3" cx="40" cy="10" r="4"/>
</g>
</svg>
