<?xml version="1.0" encoding="utf-8"?>
<!-- Generator: Adobe Illustrator 16.0.3, SVG Export Plug-In . SVG Version: 6.00 Build 0)  -->
<!DOCTYPE svg PUBLIC "-//W3C//DTD SVG 1.1//EN" "http://www.w3.org/Graphics/SVG/1.1/DTD/svg11.dtd">
<svg version="1.1" id="Layer_1" xmlns="http://www.w3.org/2000/svg" xmlns:xlink="http://www.w3.org/1999/xlink" x="0px" y="0px"
	 width="48px" height="48px" viewBox="0 0 48 48" enable-background="new 0 0 48 48" xml:space="preserve">
<g id="_x3C_Group_x3E__colored_48_17_">
	<path fill="#4FB81C" d="M38,37.479L22,29V12.998c-12.15,0-22,7.381-22,14.004C0,27.686,0,32.316,0,33
		c0,6.623,10.07,11.998,22.223,11.998c6.074,0,11.777-1.348,15.777-3.52V37.479z"/>
	<path fill="#666666" d="M48,23.004c0-3.123-2.02-5.953-6-8.002l-16,8.002v4c0,0,15.85,7.83,16,7.748v4.693c4-2.045,6-5.322,6-8.443
		C48,30.035,48,23.342,48,23.004z"/>
	<path fill="#008FD3" d="M40,5.928c-4-1.809-9.926-2.926-16-2.926v16l16-7.074V5.928z"/>
</g>
</svg>
