<?xml version="1.0" encoding="utf-8"?>
<!-- Generator: Adobe Illustrator 16.0.3, SVG Export Plug-In . SVG Version: 6.00 Build 0)  -->
<!DOCTYPE svg PUBLIC "-//W3C//DTD SVG 1.1//EN" "http://www.w3.org/Graphics/SVG/1.1/DTD/svg11.dtd">
<svg version="1.1" id="Layer_1" xmlns="http://www.w3.org/2000/svg" xmlns:xlink="http://www.w3.org/1999/xlink" x="0px" y="0px"
	 width="16px" height="16px" viewBox="0 0 16 16" enable-background="new 0 0 16 16" xml:space="preserve">
<g>
	<circle fill="#FFFFFF" cx="8" cy="8.015" r="7"/>
	<g>
		<path fill="#666666" d="M8.03,0.015c1.086,0,2.113,0.207,3.079,0.619c0.967,0.413,1.812,0.981,2.536,1.705
			c0.725,0.725,1.298,1.575,1.721,2.552C15.788,5.868,16,6.909,16,8.014c0,1.109-0.212,2.144-0.634,3.111
			c-0.423,0.967-0.996,1.811-1.721,2.535s-1.569,1.293-2.536,1.705c-0.966,0.412-1.993,0.619-3.079,0.619
			c-1.107,0-2.148-0.207-3.124-0.619c-0.978-0.412-1.827-0.98-2.552-1.705c-0.724-0.725-1.298-1.568-1.721-2.535
			C0.212,10.158,0,9.123,0,8.014c0-1.105,0.212-2.146,0.634-3.123c0.423-0.977,0.997-1.827,1.721-2.552
			c0.725-0.724,1.574-1.292,2.552-1.705C5.882,0.222,6.923,0.015,8.03,0.015z M9.872,8.075l2.747-2.686l-1.842-1.781L8,6.294
			L5.253,3.608L3.472,5.389l2.656,2.686l-2.656,2.658l1.781,1.781L8,9.857l2.777,2.656l1.781-1.781L9.872,8.075z"/>
	</g>
</g>
</svg>
