<svg xmlns="http://www.w3.org/2000/svg" height="24" viewBox="0 0 512 512" width="24"  xmlns:xlink="http://www.w3.org/1999/xlink"><rect id="svgEditorBackground" x="0" y="0" width="512" height="512" style="fill:none;stroke:none;"/>
	<path transform="scale(1,-1) translate(0,-512)" d="M272 32c-10 0-16 6-16 16l0 32c0 10 6 16 16 16 10 0 16-6 16-16l0-32c0-10-6-16-16-16z m0 160c-10 0-16 6-16 16l0 256c0 10 6 16 16 16 10 0 16-6 16-16l0-256c0-10-6-16-16-16z m-64-112c-6 0-10 3-13 6-6 7-3 16 3 23l48 35-48 35c-6 7-9 16-3 23 7 6 16 9 23 3l64-48c3-3 6-7 6-13 0-6-3-10-6-13l-64-48c-4-3-7-3-10-3z m48 48c-125 0-224 58-224 128 0 70 99 128 224 128 125 0 224-58 224-128 0-54-54-99-141-118-9-4-16 3-19 12-3 10 3 16 13 20 70 16 115 51 115 86 0 51-86 96-192 96-106 0-192-45-192-96 0-51 86-96 192-96 10 0 16-6 16-16 0-10-6-16-16-16z"/>
</svg>