<svg xmlns="http://www.w3.org/2000/svg" height="24" viewBox="0 0 512 512" width="24"  xmlns:xlink="http://www.w3.org/1999/xlink"><rect id="svgEditorBackground" x="0" y="0" width="512" height="512" style="fill:none;stroke:none;"/>
	<path transform="scale(1,-1) translate(0,-512)" d="M163 141c0 0-3 0-3 0-10 3-13 9-10 19l77 253c3 9 13 13 19 9 7 0 13-9 10-16l-77-252c-3-10-9-13-16-13z m77 253l-80 0c-10 0-16 6-16 16 0 9 6 16 16 16l80 0c10 0 16-7 16-16 0-10-6-16-16-16z m-77-253l-99 0c-10 0-16 6-16 16 0 9 6 16 16 16l99 0c10 0 16-7 16-16 0-10-6-16-16-16z m186 0c-7 0-13 3-16 13l-71 252c-3 7 4 16 10 20 10 3 16-4 19-10l71-253c3-9-4-16-10-19 0-3-3-3-3-3z m3 253l-74 0c-9 0-16 6-16 16 0 9 7 16 16 16l74 0c10 0 16-7 16-16 0-10-6-16-16-16z m96-253l-99 0c-10 0-16 6-16 16 0 9 6 16 16 16l99 0c10 0 16-7 16-16 0-10-6-16-16-16z m-288 253c-6 0-10 3-13 6-6 10-3 19 3 22l96 55c7 3 13 3 16 0l96-55c7-3 10-12 7-22-3-6-13-10-23-6l-86 54-90-51c0-3-3-3-6-3z m96-362c-3 0-6 0-6 3l-192 106c-7 3-10 13-7 22 3 7 13 10 23 7l182-106 182 102c7 4 16 4 23-6 3-6 3-16-7-22l-192-106c0 0-3 0-6 0z"/>
</svg>