<?xml version="1.0" encoding="utf-8"?>
<!-- Generator: Adobe Illustrator 16.0.0, SVG Export Plug-In . SVG Version: 6.00 Build 0)  -->
<!DOCTYPE svg PUBLIC "-//W3C//DTD SVG 1.1//EN" "http://www.w3.org/Graphics/SVG/1.1/DTD/svg11.dtd">
<svg version="1.1" id="Layer_1" xmlns="http://www.w3.org/2000/svg" xmlns:xlink="http://www.w3.org/1999/xlink" x="0px" y="0px"
	 width="24px" height="24px" viewBox="0 0 24 24" enable-background="new 0 0 24 24" xml:space="preserve">
<g>
	<path fill="#666666" d="M24,23.014C24,23.559,23.56,24,23.015,24H0.986C0.441,24,0,23.559,0,23.014V0.986C0,0.442,0.441,0,0.986,0
		h22.028C23.56,0,24,0.442,24,0.986V23.014z"/>
	<g>
		<path fill-rule="evenodd" clip-rule="evenodd" fill="#FFFFFF" d="M9.557,12.001c-0.094-0.102-0.17-0.19-0.254-0.274
			c-1.102-1.103-2.198-2.211-3.312-3.302C5.773,8.213,5.779,8.106,5.993,7.9c0.702-0.673,1.39-1.363,2.063-2.063
			c0.199-0.207,0.307-0.235,0.525-0.011c1.079,1.106,2.188,2.185,3.267,3.291c0.235,0.24,0.359,0.278,0.617,0.013
			c1.084-1.12,2.2-2.208,3.297-3.318c0.173-0.175,0.271-0.214,0.466-0.013c0.701,0.729,1.421,1.444,2.147,2.149
			c0.182,0.176,0.167,0.268-0.006,0.437c-1.129,1.114-2.239,2.246-3.372,3.354c-0.219,0.213-0.208,0.322,0.003,0.529
			c1.122,1.1,2.224,2.224,3.346,3.325c0.201,0.198,0.198,0.302-0.002,0.496c-0.7,0.674-1.39,1.362-2.063,2.064
			c-0.209,0.216-0.324,0.245-0.553,0.011c-1.08-1.107-2.188-2.185-3.269-3.291c-0.225-0.23-0.345-0.259-0.587-0.012
			c-1.088,1.117-2.202,2.206-3.296,3.318c-0.188,0.19-0.291,0.226-0.496,0.013c-0.691-0.721-1.4-1.425-2.119-2.121
			c-0.192-0.187-0.177-0.286,0.006-0.466c1.119-1.104,2.229-2.22,3.339-3.333C9.39,12.19,9.465,12.1,9.557,12.001z"/>
	</g>
</g>
</svg>
