<?xml version="1.0" encoding="utf-8"?>
<!-- Generator: Adobe Illustrator 16.0.0, SVG Export Plug-In . SVG Version: 6.00 Build 0)  -->
<!DOCTYPE svg PUBLIC "-//W3C//DTD SVG 1.1//EN" "http://www.w3.org/Graphics/SVG/1.1/DTD/svg11.dtd">
<svg version="1.1" id="Layer_1" xmlns="http://www.w3.org/2000/svg" xmlns:xlink="http://www.w3.org/1999/xlink" x="0px" y="0px"
	 width="24px" height="24px" viewBox="0 0 24 24" enable-background="new 0 0 24 24" xml:space="preserve">
<g>
	<path fill="#666666" d="M10.636,10.352c0,0.451-0.366,0.818-0.817,0.818H0.817C0.365,11.17,0,10.803,0,10.352V2.715
		c0-0.452,0.365-0.818,0.817-0.818h9.001c0.451,0,0.817,0.366,0.817,0.818V10.352z"/>
	<path fill="#008FD3" d="M10.636,21.261c0,0.451-0.366,0.818-0.817,0.818H0.817C0.365,22.079,0,21.712,0,21.261v-7.637
		c0-0.451,0.365-0.818,0.817-0.818h9.001c0.451,0,0.817,0.367,0.817,0.818V21.261z"/>
	<path fill="#4FB81C" d="M24,21.285c0,0.453-0.366,0.818-0.819,0.818H13.09c-0.451,0-0.817-0.365-0.817-0.818V2.715
		c0-0.452,0.366-0.818,0.817-0.818h10.091C23.634,1.896,24,2.263,24,2.715V21.285z"/>
</g>
</svg>
