<svg xmlns="http://www.w3.org/2000/svg" height="24" viewBox="0 0 512 512" width="24"  xmlns:xlink="http://www.w3.org/1999/xlink"><rect id="svgEditorBackground" x="0" y="0" width="512" height="512" style="fill:none;stroke:none;"/>
	<path d="M403 192c-3 0-6 0-9 3-7 7-7 16 0 23l48 54-48 54c-7 7-7 16 0 23 6 6 16 6 22 0l58-64c6-7 6-16 0-23l-61-64c0-3-3-6-10-6z m-294 0c-7 0-10 3-13 6l-61 64c-3 4-3 13 0 20l61 64c6 6 16 6 22 0 7-7 7-16 0-23l-48-51 48-54c7-7 7-16 0-23-3-3-6-3-9-3z m355 64l-384 0c-10 0-16 6-16 16 0 10 6 16 16 16l384 0c10 0 16-6 16-16 0-10-6-16-16-16z m-160 147c-3 0-6 0-10 3l-54 52-54-48c-7-7-16-7-23 0-6 6-3 16 3 22l64 58c7 6 16 6 23 0l64-61c6-7 6-16 0-23-3 0-10-3-13-3z m-64-355c-3 0-6 0-10 3l-64 61c-6 6-6 16 0 22 7 7 16 7 23 0l54-48 55 48c6 7 16 7 22 0 6-6 6-16 0-22l-64-61c-6-3-13-3-16-3z m0 32c-10 0-16 6-16 16l0 384c0 10 6 16 16 16 10 0 16-6 16-16l0-384c0-10-6-16-16-16z"/>
</svg>