<?xml version="1.0" encoding="utf-8"?>
<!-- Generator: Adobe Illustrator 16.0.3, SVG Export Plug-In . SVG Version: 6.00 Build 0)  -->
<!DOCTYPE svg PUBLIC "-//W3C//DTD SVG 1.1//EN" "http://www.w3.org/Graphics/SVG/1.1/DTD/svg11.dtd">
<svg version="1.1" id="Layer_1" xmlns="http://www.w3.org/2000/svg" xmlns:xlink="http://www.w3.org/1999/xlink" x="0px" y="0px"
	 width="48px" height="48px" viewBox="0 0 48 48" enable-background="new 0 0 48 48" xml:space="preserve">
<g>
	<g>
		<path fill="#666666" d="M23.999,48L3.544,35.082V12.917L24,0l20.456,12.917v22.224L23.999,48z M5.817,33.906l18.184,11.573
			l18.185-11.516V14.092L24,2.521L5.817,14.092V33.906z"/>
	</g>
	<circle fill="#008FD3" cx="23.949" cy="7.426" r="2.558"/>
	<circle fill="#008FD3" cx="35.727" cy="30.662" r="2.558"/>
	<circle fill="#008FD3" cx="23.949" cy="39.511" r="2.558"/>
	<g>
		<path fill="#008FD3" d="M23.362,41.269l-5.976-19.98l6.48-16.606l13.546,26.193L23.362,41.269z M19.638,21.381l4.896,16.368
			l10.151-7.51L24.138,9.849L19.638,21.381z"/>
	</g>
	<path fill="#008FD3" d="M20.965,21.178c0,1.412-1.146,2.558-2.558,2.558c-1.415,0-2.561-1.146-2.561-2.558
		c0-1.416,1.146-2.561,2.561-2.561C19.819,18.617,20.965,19.762,20.965,21.178z"/>
	<g>
		<polygon fill="none" points="10.957,29.88 34.369,17.172 10.259,17.128 		"/>
		<path fill="#4FB81C" d="M40.984,16.006c-0.001-0.005-0.001-0.014-0.002-0.019c-0.045-0.336-0.154-0.655-0.32-0.938
			c-0.018-0.032-0.04-0.068-0.06-0.099c-0.455-0.711-1.251-1.185-2.156-1.185c-0.943,0-1.77,0.513-2.211,1.277l-24.832-0.046
			c-0.442-0.768-1.269-1.284-2.219-1.284c-1.411,0-2.558,1.146-2.558,2.558c0,1.067,0.652,1.981,1.578,2.364l0.588,10.721
			c-0.812,0.428-1.367,1.284-1.367,2.268c0,1.413,1.146,2.557,2.558,2.557c1.416,0,2.56-1.144,2.56-2.557
			c0-0.062-0.004-0.118-0.007-0.175L36.798,18.28c0.002,0.002,0.004,0.004,0.006,0.006c0.442,0.373,1.014,0.599,1.643,0.599
			c1.412,0,2.556-1.146,2.556-2.559C41.002,16.218,40.995,16.109,40.984,16.006z M11.521,29.576
			c-0.183-0.138-0.384-0.247-0.599-0.333l-0.586-10.685c0.584-0.296,1.04-0.759,1.26-1.379l22.773-0.007L11.521,29.576z"/>
	</g>
</g>
</svg>
