<?xml version="1.0" encoding="utf-8"?>
<!-- Generator: Adobe Illustrator 16.0.0, SVG Export Plug-In . SVG Version: 6.00 Build 0)  -->
<!DOCTYPE svg PUBLIC "-//W3C//DTD SVG 1.1//EN" "http://www.w3.org/Graphics/SVG/1.1/DTD/svg11.dtd">
<svg version="1.1" xmlns="http://www.w3.org/2000/svg" xmlns:xlink="http://www.w3.org/1999/xlink" x="0px" y="0px"
	 width="24.922px" height="24px" viewBox="0 0 24.922 24" enable-background="new 0 0 24.922 24" xml:space="preserve">
<g id="Layout">
</g>
<g id="icons">
	<g>
		<rect x="1.352" y="1.229" fill="#666666" width="5.803" height="18.03"/>
		<rect x="9.244" y="6.602" fill="#666666" width="5.755" height="12.657"/>
		<g>
			<polygon fill="#4FB81C" points="20.398,22.771 22.406,22.771 20.687,20.927 18.68,20.927 			"/>
			<path fill="#4FB81C" d="M23.647,22.749c0.456-0.056,0.813-0.43,0.813-0.901c0-0.509-0.413-0.921-0.924-0.921h-1.589
				L23.647,22.749z"/>
			<path fill="#4FB81C" d="M4.445,22.771h1.612l-1.703-1.828c-0.465,0.048-0.832,0.428-0.832,0.904c0,0.248,0.101,0.47,0.259,0.637
				l0.023,0.025C3.972,22.67,4.196,22.771,4.445,22.771z"/>
			<polygon fill="#4FB81C" points="17.128,22.771 19.137,22.771 17.418,20.927 15.409,20.927 			"/>
			<polygon fill="#4FB81C" points="13.859,22.771 15.866,22.771 14.147,20.927 12.14,20.927 			"/>
			<polygon fill="#4FB81C" points="7.319,22.771 9.328,22.771 7.607,20.927 5.6,20.927 			"/>
			<polygon fill="#4FB81C" points="10.59,22.771 12.597,22.771 10.878,20.927 8.87,20.927 			"/>
		</g>
		<path fill="#666666" d="M14.063,20.915H1.384c-0.51,0-0.923,0.412-0.923,0.924c0,0.51,0.413,0.922,0.923,0.922h14.524
			L14.063,20.915z"/>
		<g>
			<polygon fill="#666666" points="22.774,17.021 19.992,13.717 18.228,13.717 22.774,19.115 			"/>
			<polygon fill="#666666" points="22.774,13.717 21.101,13.717 22.774,15.704 			"/>
			<polygon fill="#666666" points="17.152,15.85 20.022,19.259 21.787,19.259 17.152,13.756 			"/>
			<polygon fill="#666666" points="17.152,19.244 17.137,19.244 17.149,19.259 18.914,19.259 17.152,17.165 			"/>
		</g>
	</g>
</g>
</svg>
