<?xml version="1.0" encoding="utf-8"?>
<!-- Generator: Adobe Illustrator 16.0.0, SVG Export Plug-In . SVG Version: 6.00 Build 0)  -->
<!DOCTYPE svg PUBLIC "-//W3C//DTD SVG 1.1//EN" "http://www.w3.org/Graphics/SVG/1.1/DTD/svg11.dtd">
<svg version="1.1" xmlns="http://www.w3.org/2000/svg" xmlns:xlink="http://www.w3.org/1999/xlink" x="0px" y="0px" width="24px"
	 height="24px" viewBox="0 0 24 24" enable-background="new 0 0 24 24" xml:space="preserve">
<g id="Layout">
</g>
<g id="icons">
	<g>
		<g>
			<g>
				<path fill="#666666" d="M5.736,10.898L1.117,7.98V2.977l4.619-2.918l4.619,2.918v5.018L5.736,10.898z M1.63,7.715l4.106,2.613
					l4.106-2.6V3.242L5.736,0.629L1.63,3.242V7.715z"/>
			</g>
			<circle fill="#008FD3" cx="5.725" cy="1.736" r="0.578"/>
			<circle fill="#008FD3" cx="8.384" cy="6.982" r="0.578"/>
			<circle fill="#008FD3" cx="5.725" cy="8.981" r="0.577"/>
			<g>
				<path fill="#008FD3" d="M5.593,9.379l-1.35-4.512l1.463-3.75l3.059,5.914L5.593,9.379z M4.752,4.887l1.104,3.697l2.293-1.697
					L5.769,2.283L4.752,4.887z"/>
			</g>
			<path fill="#008FD3" d="M5.051,4.842c0,0.318-0.258,0.576-0.577,0.576c-0.32,0-0.578-0.258-0.578-0.576
				c0-0.32,0.258-0.578,0.578-0.578C4.793,4.264,5.051,4.521,5.051,4.842z"/>
			<g>
				<polygon fill="none" points="2.791,6.807 8.078,3.938 2.634,3.928 				"/>
				<path fill="#4FB81C" d="M9.571,3.674c0-0.002,0-0.004,0-0.004C9.561,3.594,9.536,3.521,9.499,3.457
					c-0.005-0.008-0.01-0.016-0.014-0.021C9.383,3.273,9.202,3.168,8.997,3.168c-0.212,0-0.398,0.115-0.498,0.287l-5.607-0.01
					c-0.1-0.174-0.286-0.289-0.501-0.289c-0.318,0-0.577,0.258-0.577,0.576c0,0.24,0.146,0.447,0.356,0.535l0.133,2.42
					C2.119,6.785,1.994,6.979,1.994,7.199c0,0.318,0.258,0.578,0.577,0.578s0.578-0.26,0.578-0.578c0-0.014-0.001-0.025-0.001-0.039
					l5.478-2.973h0.002c0.1,0.086,0.229,0.137,0.371,0.137c0.318,0,0.576-0.26,0.576-0.578C9.575,3.721,9.573,3.697,9.571,3.674z
					 M2.919,6.736C2.878,6.707,2.832,6.682,2.783,6.662L2.65,4.25c0.133-0.068,0.235-0.172,0.285-0.311l5.143-0.002L2.919,6.736z"/>
			</g>
		</g>
		<g>
			<g>
				<path fill="#666666" d="M18.259,10.838L13.64,7.922V2.916L18.259,0l4.619,2.916v5.018L18.259,10.838z M14.152,7.656l4.106,2.611
					l4.107-2.6V3.182l-4.107-2.613l-4.106,2.613V7.656z"/>
			</g>
			<circle fill="#008FD3" cx="18.247" cy="1.676" r="0.578"/>
			<circle fill="#008FD3" cx="20.906" cy="6.924" r="0.578"/>
			<circle fill="#008FD3" cx="18.247" cy="8.921" r="0.577"/>
			<g>
				<path fill="#008FD3" d="M18.114,9.318l-1.349-4.512l1.463-3.75l3.06,5.914L18.114,9.318z M17.274,4.826l1.105,3.697l2.292-1.695
					L18.29,2.223L17.274,4.826z"/>
			</g>
			<path fill="#008FD3" d="M17.573,4.781c0,0.318-0.258,0.578-0.577,0.578c-0.32,0-0.579-0.26-0.579-0.578
				c0-0.32,0.259-0.578,0.579-0.578C17.315,4.203,17.573,4.461,17.573,4.781z"/>
			<g>
				<polygon fill="none" points="15.313,6.746 20.601,3.877 15.156,3.867 				"/>
				<path fill="#4FB81C" d="M22.094,3.613c0,0,0-0.002,0-0.004c-0.011-0.076-0.035-0.148-0.072-0.211
					c-0.005-0.008-0.01-0.018-0.015-0.023c-0.102-0.16-0.281-0.268-0.486-0.268c-0.213,0-0.399,0.115-0.499,0.289l-5.607-0.012
					c-0.1-0.172-0.286-0.289-0.501-0.289c-0.318,0-0.577,0.258-0.577,0.578c0,0.24,0.146,0.447,0.356,0.533l0.133,2.422
					c-0.184,0.096-0.309,0.289-0.309,0.512c0,0.318,0.258,0.576,0.577,0.576s0.577-0.258,0.577-0.576c0-0.016,0-0.027,0-0.039
					l5.478-2.975l0.001,0.002c0.1,0.084,0.23,0.135,0.372,0.135c0.318,0,0.577-0.258,0.577-0.578
					C22.099,3.662,22.097,3.637,22.094,3.613z M15.441,6.678c-0.042-0.031-0.087-0.057-0.136-0.076l-0.133-2.412
					c0.133-0.066,0.235-0.17,0.285-0.311l5.143-0.002L15.441,6.678z"/>
			</g>
		</g>
		<g>
			<g>
				<path fill="#666666" d="M5.736,24l-4.619-2.916v-5.006l4.619-2.918l4.619,2.918v5.018L5.736,24z M1.63,20.818l4.106,2.611
					l4.106-2.6v-4.486L5.736,13.73L1.63,16.344V20.818z"/>
			</g>
			<circle fill="#008FD3" cx="5.725" cy="14.838" r="0.578"/>
			<circle fill="#008FD3" cx="8.384" cy="20.085" r="0.577"/>
			<circle fill="#008FD3" cx="5.725" cy="22.083" r="0.577"/>
			<g>
				<path fill="#008FD3" d="M5.593,22.48l-1.35-4.512l1.463-3.75l3.059,5.914L5.593,22.48z M4.752,17.988l1.104,3.697l2.293-1.697
					l-2.381-4.604L4.752,17.988z"/>
			</g>
			<path fill="#008FD3" d="M5.051,17.943c0,0.318-0.258,0.578-0.577,0.578c-0.32,0-0.578-0.26-0.578-0.578
				c0-0.32,0.258-0.578,0.578-0.578C4.793,17.365,5.051,17.623,5.051,17.943z"/>
			<g>
				<polygon fill="none" points="2.791,19.908 8.078,17.039 2.634,17.029 				"/>
				<path fill="#4FB81C" d="M9.571,16.775c0-0.002,0-0.004,0-0.004c-0.011-0.076-0.035-0.148-0.072-0.211
					c-0.005-0.008-0.01-0.018-0.014-0.023c-0.103-0.162-0.283-0.268-0.488-0.268c-0.212,0-0.398,0.115-0.498,0.289l-5.607-0.012
					c-0.1-0.174-0.286-0.289-0.501-0.289c-0.318,0-0.577,0.258-0.577,0.576c0,0.242,0.146,0.447,0.356,0.535l0.133,2.42
					c-0.184,0.098-0.309,0.291-0.309,0.512c0,0.32,0.258,0.578,0.577,0.578s0.578-0.258,0.578-0.578
					c0-0.014-0.001-0.025-0.001-0.039l5.478-2.973h0.002c0.1,0.086,0.229,0.137,0.371,0.137c0.318,0,0.576-0.26,0.576-0.578
					C9.575,16.822,9.573,16.799,9.571,16.775z M2.919,19.838c-0.041-0.029-0.087-0.055-0.136-0.074L2.65,17.352
					c0.133-0.068,0.235-0.172,0.285-0.311l5.143-0.002L2.919,19.838z"/>
			</g>
		</g>
		<g>
			<g>
				<path fill="#666666" d="M18.259,23.939l-4.619-2.916v-5.006l4.619-2.916l4.619,2.916v5.018L18.259,23.939z M14.152,20.758
					l4.106,2.613l4.107-2.602v-4.486l-4.107-2.611l-4.106,2.611V20.758z"/>
			</g>
			<circle fill="#008FD3" cx="18.247" cy="14.777" r="0.578"/>
			<circle fill="#008FD3" cx="20.906" cy="20.025" r="0.578"/>
			<circle fill="#008FD3" cx="18.247" cy="22.022" r="0.577"/>
			<g>
				<path fill="#008FD3" d="M18.114,22.42l-1.349-4.512l1.463-3.75l3.06,5.914L18.114,22.42z M17.274,17.93l1.105,3.695l2.292-1.695
					l-2.382-4.605L17.274,17.93z"/>
			</g>
			<path fill="#008FD3" d="M17.573,17.883c0,0.318-0.258,0.578-0.577,0.578c-0.32,0-0.579-0.26-0.579-0.578
				c0-0.32,0.259-0.578,0.579-0.578C17.315,17.305,17.573,17.563,17.573,17.883z"/>
			<g>
				<polygon fill="none" points="15.313,19.848 20.601,16.979 15.156,16.969 				"/>
				<path fill="#4FB81C" d="M22.094,16.715c0,0,0-0.002,0-0.004c-0.011-0.076-0.035-0.148-0.072-0.211
					c-0.005-0.008-0.01-0.016-0.015-0.023c-0.102-0.16-0.281-0.268-0.486-0.268c-0.213,0-0.399,0.115-0.499,0.289l-5.607-0.01
					c-0.1-0.174-0.286-0.291-0.501-0.291c-0.318,0-0.577,0.258-0.577,0.578c0,0.24,0.146,0.447,0.356,0.533l0.133,2.422
					c-0.184,0.096-0.309,0.289-0.309,0.512c0,0.318,0.258,0.578,0.577,0.578s0.577-0.26,0.577-0.578c0-0.014,0-0.027,0-0.039
					l5.478-2.975l0.001,0.002c0.1,0.084,0.23,0.135,0.372,0.135c0.318,0,0.577-0.258,0.577-0.578
					C22.099,16.764,22.097,16.738,22.094,16.715z M15.441,19.779c-0.042-0.031-0.087-0.057-0.136-0.074l-0.133-2.414
					c0.133-0.066,0.235-0.17,0.285-0.311l5.143-0.002L15.441,19.779z"/>
			</g>
		</g>
	</g>
</g>
</svg>
