<?xml version="1.0" encoding="utf-8"?>
<!-- Generator: Adobe Illustrator 16.0.0, SVG Export Plug-In . SVG Version: 6.00 Build 0)  -->
<!DOCTYPE svg PUBLIC "-//W3C//DTD SVG 1.1//EN" "http://www.w3.org/Graphics/SVG/1.1/DTD/svg11.dtd">
<svg version="1.1" xmlns="http://www.w3.org/2000/svg" xmlns:xlink="http://www.w3.org/1999/xlink" x="0px" y="0px"
	 width="24.922px" height="24px" viewBox="0 0 24.922 24" enable-background="new 0 0 24.922 24" xml:space="preserve">
<g id="Layout">
</g>
<g id="icons">
	<g>
		<rect x="10.965" y="0.023" fill="#008FD3" width="4.49" height="5.988"/>
		<rect x="19.947" y="9.006" fill="#008FD3" width="4.49" height="5.988"/>
		<g>
			<polygon fill="#4FB81C" points="16.995,24.057 10.271,15.904 10.271,6.826 4.507,-0.059 0.534,-0.059 7.271,7.988 7.271,17.055 
				13.046,24.057 			"/>
		</g>
		<polygon fill="#666666" points="7.393,17.988 0.484,17.988 0.484,24.023 7.969,24.023 7.969,18.688 		"/>
		<g>
			<polygon fill="#4FB81C" points="9.467,20.504 9.467,23.977 12.331,23.977 			"/>
			<polygon fill="#4FB81C" points="13.959,19.59 13.959,17.988 12.637,17.988 			"/>
		</g>
		<polygon fill="#008FD3" points="17.576,23.977 22.941,23.977 22.941,17.988 15.455,17.988 15.455,21.404 		"/>
		<rect x="10.965" y="9.006" fill="#4FB81C" width="7.484" height="5.988"/>
		<rect x="0.484" y="9.053" fill="#666666" width="6.286" height="5.941"/>
		<polygon fill="#666666" points="0.484,0.66 0.484,6.012 4.964,6.012 		"/>
		<polygon fill="#4FB81C" points="9.467,5.088 9.467,0.023 6.473,0.023 6.473,1.512 		"/>
	</g>
</g>
</svg>
