<?xml version="1.0" encoding="utf-8"?>
<!-- Generator: Adobe Illustrator 16.0.0, SVG Export Plug-In . SVG Version: 6.00 Build 0)  -->
<!DOCTYPE svg PUBLIC "-//W3C//DTD SVG 1.1//EN" "http://www.w3.org/Graphics/SVG/1.1/DTD/svg11.dtd">
<svg version="1.1" xmlns="http://www.w3.org/2000/svg" xmlns:xlink="http://www.w3.org/1999/xlink" x="0px" y="0px"
	 width="24.922px" height="24px" viewBox="0 0 24.922 24" enable-background="new 0 0 24.922 24" xml:space="preserve">
<g id="Layout">
</g>
<g id="icons">
	<g>
		<g>
			<rect x="5.172" y="0.98" fill="#666666" width="4.146" height="5.528"/>
			<rect x="10.697" y="0.98" fill="#4FB81C" width="2.764" height="5.528"/>
		</g>
		<g>
			<rect x="5.172" y="9.413" fill="#666666" width="8.289" height="5.484"/>
			<rect x="14.845" y="9.372" fill="#4FB81C" width="8.765" height="5.525"/>
		</g>
		<g>
			<g>
				<polygon fill="#4FB81C" points="1.313,19.939 1.313,21.946 3.159,20.228 3.159,18.218 				"/>
				<path fill="#4FB81C" d="M1.335,23.187C1.392,23.642,1.764,24,2.235,24c0.51,0,0.924-0.414,0.924-0.924v-1.587L1.335,23.187z"/>
				<path fill="#4FB81C" d="M1.313,3.982v1.614l1.829-1.703c-0.05-0.465-0.428-0.833-0.906-0.833c-0.246,0-0.471,0.1-0.635,0.26
					L1.574,3.344C1.415,3.509,1.313,3.734,1.313,3.982z"/>
				<polygon fill="#4FB81C" points="1.313,16.666 1.313,18.678 3.159,16.956 3.159,14.949 				"/>
				<polygon fill="#4FB81C" points="1.313,13.399 1.313,15.405 3.159,13.687 3.159,11.681 				"/>
				<polygon fill="#4FB81C" points="1.313,6.856 1.313,8.866 3.159,7.146 3.159,5.139 				"/>
				<polygon fill="#4FB81C" points="1.313,10.129 1.313,12.137 3.159,10.417 3.159,8.409 				"/>
			</g>
			<path fill="#666666" d="M3.17,13.602V0.922C3.17,0.412,2.758,0,2.246,0c-0.51,0-0.923,0.412-0.923,0.922v14.525L3.17,13.602z"/>
		</g>
		<g>
			<g>
				<polygon fill="#666666" points="5.131,21.178 8.3,17.875 10.308,17.875 5.131,23.273 				"/>
				<polygon fill="#666666" points="5.131,17.875 7.038,17.875 5.131,19.862 				"/>
				<polygon fill="#666666" points="11.532,20.006 8.264,23.415 6.257,23.415 11.532,17.915 				"/>
				<polygon fill="#666666" points="11.532,23.401 11.55,23.401 11.536,23.415 9.526,23.415 11.532,21.321 				"/>
			</g>
			<g>
				<polygon fill="#4FB81C" points="12.486,21.065 15.654,17.762 17.663,17.762 12.486,23.159 				"/>
				<polygon fill="#4FB81C" points="12.486,17.762 14.395,17.762 12.486,19.75 				"/>
				<polygon fill="#4FB81C" points="18.888,19.896 15.618,23.305 13.611,23.305 18.888,17.801 				"/>
				<polygon fill="#4FB81C" points="18.888,23.287 18.905,23.287 18.891,23.305 16.88,23.305 18.888,21.212 				"/>
			</g>
		</g>
	</g>
</g>
</svg>
