<?xml version="1.0" encoding="utf-8"?>
<!-- Generator: Adobe Illustrator 16.0.0, SVG Export Plug-In . SVG Version: 6.00 Build 0)  -->
<!DOCTYPE svg PUBLIC "-//W3C//DTD SVG 1.1//EN" "http://www.w3.org/Graphics/SVG/1.1/DTD/svg11.dtd">
<svg version="1.1" xmlns="http://www.w3.org/2000/svg" xmlns:xlink="http://www.w3.org/1999/xlink" x="0px" y="0px" width="24px"
	 height="24px" viewBox="0 0 24 24" enable-background="new 0 0 24 24" xml:space="preserve">
<g id="Layout">
</g>
<g id="icons">
	<g>
		<g>
			<polygon fill="#4FB81C" points="17.986,4.313 16.352,0.639 16.627,0.639 19.873,4.313 19.395,7.081 24,10.653 20.629,10.653 
				17.055,7.081 			"/>
			<polygon fill="#008FD3" points="16.123,4.313 15.42,0.639 15.697,0.639 17.307,4.313 16.375,7.081 19.873,10.653 16.803,10.653 
				15.193,7.081 			"/>
			<polygon fill="#666666" points="12.953,10.653 12.953,0.639 14.766,0.639 15.471,4.313 14.539,7.081 16.176,10.653 			"/>
		</g>
		<g>
			<polygon fill="#4FB81C" points="17.109,17.021 16.352,13.347 16.627,13.347 18.996,17.021 22.023,19.788 22.246,23.361 
				20.629,23.361 19.684,19.788 			"/>
			<polygon fill="#008FD3" points="15.248,17.021 15.42,13.347 15.697,13.347 16.43,17.021 19.004,19.788 19.873,23.361 
				16.803,23.361 17.822,19.788 			"/>
			<polygon fill="#666666" points="12.953,23.361 12.953,13.347 14.766,13.347 14.596,17.021 17.168,19.788 16.176,23.361 			"/>
		</g>
		<g>
			<polygon fill="#4FB81C" points="5.031,4.313 5.15,0.639 8.055,0.639 6.041,4.313 7.316,7.081 4.91,10.653 4.17,10.653 4.1,7.081 
							"/>
			<polygon fill="#008FD3" points="3.17,4.313 2.467,0.639 4.496,0.639 4.352,4.313 3.422,7.081 3.412,10.653 2.096,10.653 
				2.238,7.081 			"/>
			<polygon fill="#666666" points="0,10.653 0,0.639 1.813,0.639 2.518,4.313 1.584,7.081 1.469,10.653 			"/>
		</g>
		<g>
			<polygon fill="#4FB81C" points="5.031,17.021 3.396,13.347 7.178,13.347 8.67,17.021 6.441,19.788 11.045,23.361 7.674,23.361 
				4.1,19.788 			"/>
			<polygon fill="#008FD3" points="3.17,17.021 0.713,13.347 2.744,13.347 4.352,17.021 3.422,19.788 6.918,23.361 3.85,23.361 
				2.238,19.788 			"/>
			<polygon fill="#666666" points="0,23.361 0,13.347 0.059,13.347 2.518,17.021 1.584,19.788 3.221,23.361 			"/>
		</g>
	</g>
</g>
</svg>
