<?xml version="1.0" encoding="utf-8"?>
<!-- Generator: Adobe Illustrator 16.0.0, SVG Export Plug-In . SVG Version: 6.00 Build 0)  -->
<!DOCTYPE svg PUBLIC "-//W3C//DTD SVG 1.1//EN" "http://www.w3.org/Graphics/SVG/1.1/DTD/svg11.dtd">
<svg version="1.1" xmlns="http://www.w3.org/2000/svg" xmlns:xlink="http://www.w3.org/1999/xlink" x="0px" y="0px" width="24px"
	 height="24px" viewBox="0 0 24 24" enable-background="new 0 0 24 24" xml:space="preserve">
<g id="Layout">
</g>
<g id="icons">
	<g>
		<g>
			<path fill="#008FD3" d="M14.936,0.455c0-0.095,0.037-0.196,0.119-0.3C15.135,0.052,15.238,0,15.367,0
				c0.143,0,0.264,0.071,0.359,0.216l1.875,2.786L17.145,5.62l2.113,3.363c0.033,0.063,0.049,0.137,0.049,0.217
				c0,0.289-0.135,0.433-0.408,0.433c-0.178,0-0.313-0.072-0.408-0.216L16.232,5.79l0.432-2.618l-1.656-2.477
				C14.959,0.614,14.936,0.536,14.936,0.455z"/>
			<path fill="#666666" d="M13.18,0.455c0-0.112,0.039-0.216,0.109-0.312C13.361,0.047,13.461,0,13.59,0
				c0.191,0,0.336,0.087,0.432,0.264l1.346,2.762l-0.408,2.643l1.25,3.389c0.016,0.016,0.023,0.071,0.023,0.167
				c0,0.273-0.145,0.409-0.434,0.409c-0.207,0-0.336-0.089-0.383-0.265L14.047,5.74l0.432-2.595l-1.225-2.497
				C13.205,0.614,13.18,0.551,13.18,0.455z"/>
			<path fill="#4FB81C" d="M16.689,0.455c0-0.095,0.035-0.191,0.107-0.288c0.072-0.096,0.172-0.144,0.299-0.144
				c0.145,0,0.266,0.055,0.361,0.167l2.307,2.716v2.595l3.82,3.387c0.096,0.096,0.145,0.199,0.145,0.313
				c0,0.127-0.049,0.23-0.145,0.312c-0.098,0.081-0.201,0.121-0.314,0.121c-0.109,0-0.199-0.032-0.264-0.097l-4.131-3.628V3.242
				l-2.09-2.499C16.719,0.68,16.689,0.582,16.689,0.455z"/>
		</g>
		<g>
			<path fill="#4FB81C" d="M14.936,14.821c0-0.095,0.037-0.196,0.119-0.3c0.08-0.104,0.184-0.155,0.313-0.155
				c0.143,0,0.264,0.072,0.359,0.216l1.875,2.786l-0.457,2.618l2.113,3.364c0.033,0.063,0.049,0.135,0.049,0.216
				c0,0.288-0.135,0.433-0.408,0.433c-0.178,0-0.313-0.072-0.408-0.216l-2.258-3.628l0.432-2.617l-1.656-2.477
				C14.959,14.981,14.936,14.901,14.936,14.821z"/>
			<path fill="#008FD3" d="M13.18,14.821c0-0.112,0.039-0.216,0.109-0.312c0.072-0.097,0.172-0.144,0.301-0.144
				c0.191,0,0.336,0.086,0.432,0.264l1.346,2.762l-0.408,2.643l1.25,3.389c0.016,0.016,0.023,0.072,0.023,0.166
				c0,0.274-0.145,0.41-0.434,0.41c-0.207,0-0.336-0.09-0.383-0.265l-1.369-3.628l0.432-2.595l-1.225-2.497
				C13.205,14.981,13.18,14.917,13.18,14.821z"/>
			<path fill="#666666" d="M16.689,14.821c0-0.095,0.035-0.191,0.107-0.289c0.072-0.095,0.172-0.143,0.299-0.143
				c0.145,0,0.266,0.055,0.361,0.168l2.307,2.715v2.595l3.82,3.388c0.096,0.096,0.145,0.199,0.145,0.312
				c0,0.128-0.049,0.231-0.145,0.312c-0.098,0.081-0.201,0.121-0.314,0.121c-0.109,0-0.199-0.032-0.264-0.096l-4.131-3.629v-2.666
				l-2.09-2.498C16.719,15.046,16.689,14.948,16.689,14.821z"/>
		</g>
		<g>
			<path fill="#4FB81C" d="M2.006,0.455c0-0.095,0.037-0.196,0.119-0.3C2.205,0.052,2.309,0,2.436,0C2.58,0,2.701,0.071,2.797,0.216
				l1.875,2.786L4.215,5.62l2.113,3.363C6.361,9.047,6.377,9.12,6.377,9.2c0,0.289-0.137,0.433-0.408,0.433
				c-0.178,0-0.313-0.072-0.408-0.216L3.303,5.79l0.432-2.618L2.078,0.695C2.029,0.614,2.006,0.536,2.006,0.455z"/>
			<path fill="#666666" d="M0.25,0.455c0-0.112,0.037-0.216,0.109-0.312C0.43,0.047,0.529,0,0.658,0
				c0.193,0,0.338,0.087,0.434,0.264l1.344,2.762L2.029,5.668l1.248,3.389c0.016,0.016,0.025,0.071,0.025,0.167
				c0,0.273-0.145,0.409-0.434,0.409c-0.207,0-0.336-0.089-0.385-0.265L1.115,5.74l0.434-2.595L0.322,0.648
				C0.275,0.614,0.25,0.551,0.25,0.455z"/>
			<path fill="#008FD3" d="M3.758,0.455c0-0.095,0.037-0.191,0.107-0.288c0.072-0.096,0.172-0.144,0.301-0.144
				c0.145,0,0.266,0.055,0.361,0.167l2.305,2.716v2.595l3.822,3.387c0.096,0.096,0.143,0.199,0.143,0.313
				c0,0.127-0.047,0.23-0.143,0.312c-0.098,0.081-0.201,0.121-0.314,0.121c-0.109,0-0.199-0.032-0.264-0.097L5.945,5.908V3.242
				l-2.09-2.499C3.789,0.68,3.758,0.582,3.758,0.455z"/>
		</g>
		<g>
			<path fill="#008FD3" d="M2.006,14.821c0-0.095,0.037-0.196,0.119-0.3c0.08-0.104,0.184-0.155,0.311-0.155
				c0.145,0,0.266,0.072,0.361,0.216l1.875,2.786l-0.457,2.618l2.113,3.364c0.033,0.063,0.049,0.135,0.049,0.216
				c0,0.288-0.137,0.433-0.408,0.433c-0.178,0-0.313-0.072-0.408-0.216l-2.258-3.628l0.432-2.617l-1.656-2.477
				C2.029,14.981,2.006,14.901,2.006,14.821z"/>
			<path fill="#666666" d="M0.25,14.821c0-0.112,0.037-0.216,0.109-0.312c0.07-0.097,0.17-0.144,0.299-0.144
				c0.193,0,0.338,0.086,0.434,0.264l1.344,2.762l-0.406,2.643l1.248,3.389c0.016,0.016,0.025,0.072,0.025,0.166
				c0,0.274-0.145,0.41-0.434,0.41c-0.207,0-0.336-0.09-0.385-0.265l-1.369-3.628l0.434-2.595l-1.227-2.497
				C0.275,14.981,0.25,14.917,0.25,14.821z"/>
			<path fill="#4FB81C" d="M3.758,14.821c0-0.095,0.037-0.191,0.107-0.289c0.072-0.095,0.172-0.143,0.301-0.143
				c0.145,0,0.266,0.055,0.361,0.168l2.305,2.715v2.595l3.822,3.388c0.096,0.096,0.143,0.199,0.143,0.312
				c0,0.128-0.047,0.231-0.143,0.312c-0.098,0.081-0.201,0.121-0.314,0.121c-0.109,0-0.199-0.032-0.264-0.096l-4.131-3.629v-2.666
				l-2.09-2.498C3.789,15.046,3.758,14.948,3.758,14.821z"/>
		</g>
	</g>
</g>
</svg>
