<?xml version="1.0" encoding="utf-8"?>
<!-- Generator: Adobe Illustrator 16.0.0, SVG Export Plug-In . SVG Version: 6.00 Build 0)  -->
<!DOCTYPE svg PUBLIC "-//W3C//DTD SVG 1.1//EN" "http://www.w3.org/Graphics/SVG/1.1/DTD/svg11.dtd">
<svg version="1.1" xmlns="http://www.w3.org/2000/svg" xmlns:xlink="http://www.w3.org/1999/xlink" x="0px" y="0px"
	 width="24.922px" height="24px" viewBox="0 0 24.922 24" enable-background="new 0 0 24.922 24" xml:space="preserve">
<g id="Layout">
</g>
<g id="icons">
	<g>
		<path fill="#666666" d="M6.432,20.952v-2.029L2.064,21.05c-0.4,0.217-0.6,0.545-0.6,0.983c0,0.293,0.107,0.52,0.328,0.683
			c0.219,0.164,0.453,0.246,0.709,0.246c0.218,0,0.362-0.055,0.439-0.164l3.763-1.846H6.432z"/>
		<g>
			<polygon fill="#666666" points="15.35,18.71 10.432,18.203 10.432,20.209 15.35,20.752 			"/>
			<path fill="#666666" d="M22.455,16.02c-0.217,0-0.343,0.018-0.38,0.054l-3.112,1.879h0.387v1.962l3.435-2.036
				c0.399-0.109,0.603-0.401,0.603-0.874C23.387,16.348,23.077,16.02,22.455,16.02z"/>
		</g>
		<rect x="15.881" y="9.51" fill="#4FB81C" width="3.076" height="3.076"/>
		<path fill="#4FB81C" d="M6.501,13.048V11.46L1.97,15.309c-0.256,0.218-0.381,0.492-0.381,0.82c0,0.293,0.109,0.519,0.326,0.684
			c0.219,0.163,0.439,0.245,0.656,0.245c0.291,0,0.512-0.072,0.656-0.219l4.532-3.791H6.501z"/>
		<rect x="6.963" y="9.51" fill="#4FB81C" width="3.076" height="3.076"/>
		<g>
			<rect x="10.501" y="10.061" fill="#4FB81C" width="4.918" height="2.021"/>
			<path fill="#4FB81C" d="M23.181,1.367c-0.183-0.219-0.419-0.328-0.709-0.328c-0.256,0-0.492,0.109-0.709,0.328l-4.16,7.681h1.816
				V9.51l3.819-6.83c0.145-0.145,0.218-0.348,0.218-0.602C23.456,1.823,23.364,1.587,23.181,1.367z"/>
		</g>
		<g>
			<polygon fill="none" points="6.89,20.016 7.359,20.466 8.092,20.466 6.89,19.313 			"/>
			<polygon fill="none" points="6.89,17.381 6.89,18.193 9.259,20.466 9.975,20.466 9.975,20.449 6.911,17.513 8.076,17.513 
				9.975,19.332 9.975,18.629 8.81,17.513 9.966,17.513 9.966,17.503 9.975,17.512 9.975,17.381 			"/>
			<polygon fill="#666666" points="6.89,19.313 8.092,20.466 9.259,20.466 6.89,18.193 			"/>
			<polygon fill="#666666" points="6.89,20.466 7.359,20.466 6.89,20.016 			"/>
			<polygon fill="#666666" points="6.911,17.513 9.975,20.449 9.975,19.332 8.076,17.513 			"/>
			<polygon fill="#666666" points="9.966,17.513 8.81,17.513 9.975,18.629 9.975,17.512 9.966,17.503 			"/>
		</g>
		<g>
			<polygon fill="none" points="15.876,20.981 16.346,21.432 17.078,21.432 15.876,20.278 			"/>
			<polygon fill="none" points="15.876,18.347 15.876,19.159 18.245,21.432 18.961,21.432 18.961,21.415 15.897,18.479 
				17.063,18.479 18.961,20.298 18.961,19.595 17.796,18.479 18.952,18.479 18.952,18.469 18.961,18.478 18.961,18.347 			"/>
			<polygon fill="#666666" points="15.876,20.278 17.078,21.432 18.245,21.432 15.876,19.159 			"/>
			<polygon fill="#666666" points="15.876,21.432 16.346,21.432 15.876,20.981 			"/>
			<polygon fill="#666666" points="15.897,18.479 18.961,21.415 18.961,20.298 17.063,18.479 			"/>
			<polygon fill="#666666" points="18.952,18.479 17.796,18.479 18.961,19.595 18.961,18.478 18.952,18.469 			"/>
		</g>
	</g>
</g>
</svg>
