<?xml version="1.0" encoding="utf-8"?>
<!-- Generator: Adobe Illustrator 16.0.0, SVG Export Plug-In . SVG Version: 6.00 Build 0)  -->
<!DOCTYPE svg PUBLIC "-//W3C//DTD SVG 1.1//EN" "http://www.w3.org/Graphics/SVG/1.1/DTD/svg11.dtd">
<svg version="1.1" xmlns="http://www.w3.org/2000/svg" xmlns:xlink="http://www.w3.org/1999/xlink" x="0px" y="0px"
	 width="24.922px" height="24px" viewBox="0 0 24.922 24" enable-background="new 0 0 24.922 24" xml:space="preserve">
<g id="Layout">
</g>
<g id="icons">
	<g>
		<rect x="1.443" y="14.215" fill="#666666" width="5.527" height="4.146"/>
		<rect x="9.777" y="10.071" fill="#666666" width="5.482" height="8.289"/>
		<rect x="1.443" y="10.071" fill="#4FB81C" width="5.527" height="2.764"/>
		<rect x="9.734" y="1.781" fill="#4FB81C" width="5.525" height="6.907"/>
		<g>
			<polygon fill="#666666" points="21.639,18.399 18.336,15.231 18.336,13.224 23.734,18.399 			"/>
			<polygon fill="#666666" points="18.336,18.399 18.336,16.493 20.324,18.399 			"/>
			<polygon fill="#666666" points="20.469,11.999 23.877,15.268 23.877,17.275 18.375,11.999 			"/>
			<polygon fill="#666666" points="23.861,11.999 23.861,11.981 23.877,11.996 23.877,14.005 21.785,11.999 			"/>
		</g>
		<g>
			<g>
				<polygon fill="#4FB81C" points="20.398,22.219 22.406,22.219 20.688,20.372 18.68,20.372 				"/>
				<path fill="#4FB81C" d="M23.648,22.196c0.455-0.056,0.813-0.429,0.813-0.901c0-0.509-0.412-0.923-0.924-0.923h-1.588
					L23.648,22.196z"/>
				<path fill="#4FB81C" d="M4.445,22.219h1.613l-1.703-1.828c-0.465,0.048-0.832,0.428-0.832,0.904c0,0.248,0.1,0.471,0.258,0.637
					l0.023,0.024C3.973,22.117,4.195,22.219,4.445,22.219z"/>
				<polygon fill="#4FB81C" points="17.129,22.219 19.139,22.219 17.418,20.372 15.41,20.372 				"/>
				<polygon fill="#4FB81C" points="13.859,22.219 15.867,22.219 14.148,20.372 12.141,20.372 				"/>
				<polygon fill="#4FB81C" points="7.32,22.219 9.328,22.219 7.609,20.372 5.6,20.372 				"/>
				<polygon fill="#4FB81C" points="10.59,22.219 12.598,22.219 10.879,20.372 8.871,20.372 				"/>
			</g>
			<path fill="#666666" d="M14.064,20.362H1.385c-0.512,0-0.924,0.413-0.924,0.923s0.412,0.923,0.924,0.923h14.523L14.064,20.362z"
				/>
		</g>
		<g>
			<polygon fill="#4FB81C" points="21.527,11.045 18.223,7.878 18.223,5.869 23.621,11.045 			"/>
			<polygon fill="#4FB81C" points="18.223,11.045 18.223,9.14 20.211,11.045 			"/>
			<polygon fill="#4FB81C" points="20.355,4.645 23.766,7.913 23.766,9.921 18.262,4.645 			"/>
			<polygon fill="#4FB81C" points="23.75,4.645 23.75,4.627 23.766,4.642 23.766,6.651 21.672,4.645 			"/>
		</g>
	</g>
</g>
</svg>
