<?xml version="1.0" encoding="utf-8"?>
<!-- Generator: Adobe Illustrator 16.0.3, SVG Export Plug-In . SVG Version: 6.00 Build 0)  -->
<!DOCTYPE svg PUBLIC "-//W3C//DTD SVG 1.1//EN" "http://www.w3.org/Graphics/SVG/1.1/DTD/svg11.dtd">
<svg version="1.1" id="Layer_1" xmlns="http://www.w3.org/2000/svg" xmlns:xlink="http://www.w3.org/1999/xlink" x="0px" y="0px"
	 width="48px" height="48px" viewBox="0 0 48 48" enable-background="new 0 0 48 48" xml:space="preserve">
<g>
	<path fill="#008FD3" d="M0,43.642c0-1.354,0.437-2.388,1.313-3.104c0.875-0.716,1.87-1.074,2.985-1.074
		c1.114,0,2.129,0.358,3.045,1.074c0.914,0.717,1.374,1.751,1.374,3.104c0,1.194-0.439,2.209-1.314,3.045
		c-0.876,0.836-1.91,1.254-3.104,1.254c-1.194,0-2.209-0.418-3.044-1.254C0.418,45.851,0,44.836,0,43.642z"/>
	<path fill="#666666" d="M13.373,17.731c-1.274,1.273-2.827,1.91-4.656,1.91c-1.833,0-3.385-0.637-4.657-1.91
		c-1.274-1.272-1.91-2.825-1.91-4.657c0-1.83,0.636-3.382,1.91-4.656c1.272-1.272,2.825-1.91,4.657-1.91
		c1.83,0,3.382,0.638,4.656,1.91c1.272,1.274,1.911,2.826,1.911,4.656C15.284,14.906,14.646,16.459,13.373,17.731z"/>
	<path fill="#666666" d="M12.776,37.434c-0.638-0.638-1.116-1.374-1.433-2.21c-0.319-0.835-0.478-1.689-0.478-2.566
		c0-1.831,0.636-3.383,1.911-4.657c1.272-1.272,2.824-1.91,4.656-1.91c1.831,0,3.362,0.638,4.597,1.91
		c1.233,1.274,1.851,2.826,1.851,4.657c0,1.751-0.618,3.304-1.851,4.656c-1.235,1.354-2.767,2.03-4.597,2.03
		C15.522,39.344,13.97,38.707,12.776,37.434z"/>
	<path fill="#4FB81C" d="M40.717,23.104c-0.797,0.399-1.573,0.657-2.328,0.775c-0.758,0.12-1.493,0.18-2.21,0.18
		c-1.671,0-3.244-0.316-4.716-0.955c-1.475-0.637-2.787-1.492-3.94-2.567c-1.155-1.074-2.05-2.328-2.687-3.761
		c-0.639-1.434-0.956-2.985-0.956-4.657c0-1.592,0.317-3.123,0.956-4.597c0.637-1.473,1.512-2.766,2.627-3.881
		c1.113-1.114,2.389-1.988,3.82-2.626c1.434-0.638,2.985-0.956,4.657-0.956c1.591,0,3.104,0.318,4.537,0.956
		s2.706,1.492,3.821,2.566c1.113,1.074,2.01,2.328,2.686,3.762C47.66,8.776,48,10.288,48,11.881c0,2.388-0.677,4.616-2.03,6.687
		C44.615,20.639,42.865,22.149,40.717,23.104z"/>
	<path fill="#008FD3" d="M32.478,41.731c-0.638-0.638-1.116-1.354-1.433-2.149c-0.319-0.795-0.479-1.631-0.479-2.507
		c0-1.832,0.637-3.384,1.911-4.657c1.272-1.272,2.825-1.911,4.657-1.911c1.83,0,3.361,0.639,4.597,1.911
		c1.233,1.273,1.851,2.825,1.851,4.657s-0.617,3.384-1.851,4.656c-1.235,1.274-2.767,1.91-4.597,1.91
		C35.224,43.642,33.672,43.006,32.478,41.731z"/>
</g>
</svg>
