<?xml version="1.0" encoding="utf-8"?>
<!-- Generator: Adobe Illustrator 16.0.0, SVG Export Plug-In . SVG Version: 6.00 Build 0)  -->
<!DOCTYPE svg PUBLIC "-//W3C//DTD SVG 1.1//EN" "http://www.w3.org/Graphics/SVG/1.1/DTD/svg11.dtd">
<svg version="1.1" xmlns="http://www.w3.org/2000/svg" xmlns:xlink="http://www.w3.org/1999/xlink" x="0px" y="0px" width="24px"
	 height="24px" viewBox="0 0 24 24" enable-background="new 0 0 24 24" xml:space="preserve">
<g id="Layout">
</g>
<g id="icons">
	<g>
		<g>
			<polygon fill="#4FB81C" points="4.313,6.013 0.639,7.648 0.639,7.373 4.313,4.127 7.08,4.604 10.652,0 10.652,3.37 7.08,6.944 
							"/>
			<polygon fill="#008FD3" points="4.313,7.875 0.639,8.579 0.639,8.302 4.313,6.693 7.08,7.624 10.652,4.127 10.652,7.196 
				7.08,8.807 			"/>
			<polygon fill="#666666" points="10.652,11.046 0.639,11.046 0.639,9.233 4.313,8.528 7.08,9.46 10.652,7.824 			"/>
		</g>
		<g>
			<polygon fill="#4FB81C" points="17.021,6.89 13.347,7.648 13.347,7.373 17.021,5.003 19.788,1.975 23.36,1.753 23.36,3.37 
				19.788,4.315 			"/>
			<polygon fill="#008FD3" points="17.021,8.752 13.347,8.579 13.347,8.302 17.021,7.569 19.788,4.995 23.36,4.127 23.36,7.196 
				19.788,6.178 			"/>
			<polygon fill="#666666" points="23.36,11.046 13.347,11.046 13.347,9.233 17.021,9.404 19.788,6.832 23.36,7.824 			"/>
		</g>
		<g>
			<polygon fill="#4FB81C" points="4.313,18.967 0.639,18.85 0.639,15.945 4.313,17.958 7.08,16.682 10.652,19.089 10.652,19.83 
				7.08,19.899 			"/>
			<polygon fill="#008FD3" points="4.313,20.83 0.639,21.533 0.639,19.503 4.313,19.647 7.08,20.578 10.652,20.587 10.652,21.903 
				7.08,21.761 			"/>
			<polygon fill="#666666" points="10.652,24 0.639,24 0.639,22.187 4.313,21.482 7.08,22.415 10.652,22.531 			"/>
		</g>
		<g>
			<polygon fill="#4FB81C" points="17.021,18.967 13.347,20.602 13.347,16.821 17.021,15.329 19.788,17.559 23.36,12.954 
				23.36,16.325 19.788,19.899 			"/>
			<polygon fill="#008FD3" points="17.021,20.83 13.347,23.286 13.347,21.256 17.021,19.647 19.788,20.578 23.36,17.081 
				23.36,20.15 19.788,21.761 			"/>
			<polygon fill="#666666" points="23.36,24 13.347,24 13.347,23.94 17.021,21.482 19.788,22.415 23.36,20.778 			"/>
		</g>
	</g>
</g>
</svg>
