<?xml version="1.0" encoding="utf-8"?>
<!-- Generator: Adobe Illustrator 16.0.3, SVG Export Plug-In . SVG Version: 6.00 Build 0)  -->
<!DOCTYPE svg PUBLIC "-//W3C//DTD SVG 1.1//EN" "http://www.w3.org/Graphics/SVG/1.1/DTD/svg11.dtd">
<svg version="1.1" id="Layer_1" xmlns="http://www.w3.org/2000/svg" xmlns:xlink="http://www.w3.org/1999/xlink" x="0px" y="0px"
	 width="48px" height="48px" viewBox="0 0 48 48" enable-background="new 0 0 48 48" xml:space="preserve">
<g>
	<polygon fill="#008FD3" points="4.059,14.164 0,14.164 0,10.229 4.059,10.229 4.059,6.292 7.993,6.292 7.993,10.229 11.928,10.229 
		11.928,14.164 7.993,14.164 7.993,18.099 4.059,18.099 	"/>
	<polygon fill="#666666" points="40.13,14.164 40.13,10.229 36.195,10.229 36.195,6.292 40.13,6.292 40.13,2.357 44.065,2.357 
		44.065,6.292 48,6.292 48,10.229 44.065,10.229 44.065,14.164 	"/>
	<polygon fill="#4FB81C" points="30.229,25.969 30.229,22.034 26.295,22.034 26.295,18.099 30.229,18.099 30.229,14.164 
		34.165,14.164 34.165,18.099 38.1,18.099 38.1,22.034 34.165,22.034 34.165,25.969 	"/>
	<polygon fill="#008FD3" points="38.163,30.296 38.163,34.229 42.098,34.229 42.098,38.166 38.163,38.166 38.163,42.104 
		34.229,42.104 34.229,38.166 30.293,38.166 30.293,34.229 34.229,34.229 34.229,30.296 	"/>
	<polygon fill="#4FB81C" points="15.803,33.838 15.803,37.772 19.737,37.772 19.737,41.708 15.803,41.708 15.803,45.643 
		11.868,45.643 11.868,41.708 7.933,41.708 7.933,37.772 11.868,37.772 11.868,33.838 	"/>
	<polygon fill="#666666" points="19.737,18.958 19.737,22.893 23.672,22.893 23.672,26.827 19.737,26.827 19.737,30.762 
		15.803,30.762 15.803,26.827 11.868,26.827 11.868,22.893 15.803,22.893 15.803,18.958 	"/>
</g>
</svg>
