<?xml version="1.0" encoding="utf-8"?>
<!-- Generator: Adobe Illustrator 16.0.0, SVG Export Plug-In . SVG Version: 6.00 Build 0)  -->
<!DOCTYPE svg PUBLIC "-//W3C//DTD SVG 1.1//EN" "http://www.w3.org/Graphics/SVG/1.1/DTD/svg11.dtd">
<svg version="1.1" xmlns="http://www.w3.org/2000/svg" xmlns:xlink="http://www.w3.org/1999/xlink" x="0px" y="0px"
	 width="24.922px" height="24px" viewBox="0 0 24.922 24" enable-background="new 0 0 24.922 24" xml:space="preserve">
<g id="Layout">
</g>
<g id="icons">
	<g>
		<rect x="0.484" y="9.006" fill="#008FD3" width="5.988" height="4.49"/>
		<rect x="9.467" y="0.023" fill="#008FD3" width="5.988" height="4.49"/>
		<g>
			<polygon fill="#4FB81C" points="24.519,7.465 16.366,14.189 7.288,14.189 0.403,19.953 0.403,23.926 8.449,17.189 17.516,17.189 
				24.519,11.414 			"/>
		</g>
		<polygon fill="#666666" points="18.449,17.068 18.449,23.977 24.484,23.977 24.484,16.492 19.148,16.492 		"/>
		<g>
			<polygon fill="#4FB81C" points="20.965,14.994 24.438,14.994 24.438,12.129 			"/>
			<polygon fill="#4FB81C" points="20.052,10.502 18.449,10.502 18.449,11.824 			"/>
		</g>
		<polygon fill="#008FD3" points="24.438,6.885 24.438,1.52 18.449,1.52 18.449,9.006 21.865,9.006 		"/>
		<rect x="9.467" y="6.012" fill="#4FB81C" width="5.988" height="7.484"/>
		<rect x="9.514" y="17.689" fill="#666666" width="5.941" height="6.287"/>
		<polygon fill="#666666" points="1.122,23.977 6.473,23.977 6.473,19.496 		"/>
		<polygon fill="#4FB81C" points="5.549,14.994 0.484,14.994 0.484,17.988 1.973,17.988 		"/>
	</g>
</g>
</svg>
