<?xml version="1.0" encoding="utf-8"?>
<!-- Generator: Adobe Illustrator 16.0.3, SVG Export Plug-In . SVG Version: 6.00 Build 0)  -->
<!DOCTYPE svg PUBLIC "-//W3C//DTD SVG 1.1//EN" "http://www.w3.org/Graphics/SVG/1.1/DTD/svg11.dtd">
<svg version="1.1" id="Layer_1" xmlns="http://www.w3.org/2000/svg" xmlns:xlink="http://www.w3.org/1999/xlink" x="0px" y="0px"
	 width="48px" height="48px" viewBox="0 0 48 48" enable-background="new 0 0 48 48" xml:space="preserve">
<g>
	<polygon fill="#666666" points="24,16 24,8 36,8 36,0 12,0 12,16 	"/>
	<polygon fill="#666666" points="24,24 12,24 12,16 0,16 0,32 24,32 	"/>
	<rect y="40" fill="#666666" width="24" height="8"/>
	<polygon fill="#666666" points="36,16 24,16 24,24 36,24 36,32 24,32 24,40 36,40 36,48 48,48 48,8 36,8 	"/>
	<rect fill="#4FB81C" width="12" height="16"/>
	<rect x="12" y="16" fill="#4FB81C" width="12" height="8"/>
	<rect x="36" fill="#4FB81C" width="12" height="8"/>
	<rect y="32" fill="#4FB81C" width="24" height="8"/>
	<rect x="24" y="8" fill="#4FB81C" width="12" height="8"/>
	<rect x="24" y="40" fill="#4FB81C" width="12" height="8"/>
	<rect x="24" y="24" fill="#4FB81C" width="12" height="8"/>
</g>
</svg>
