<?xml version="1.0" encoding="utf-8"?>
<!-- Generator: Adobe Illustrator 16.0.0, SVG Export Plug-In . SVG Version: 6.00 Build 0)  -->
<!DOCTYPE svg PUBLIC "-//W3C//DTD SVG 1.1//EN" "http://www.w3.org/Graphics/SVG/1.1/DTD/svg11.dtd">
<svg version="1.1" xmlns="http://www.w3.org/2000/svg" xmlns:xlink="http://www.w3.org/1999/xlink" x="0px" y="0px"
	 width="24.922px" height="24px" viewBox="0 0 24.922 24" enable-background="new 0 0 24.922 24" xml:space="preserve">
<g id="Layout">
</g>
<g id="icons">
	<g>
		<path fill="#008FD3" d="M1.068,23.705c-0.135,0-0.271-0.053-0.374-0.156c-0.208-0.207-0.208-0.543,0-0.75l6.358-6.357h7.418
			l9.008-9.008c0.207-0.207,0.543-0.207,0.749,0c0.208,0.207,0.208,0.541,0,0.748L14.91,17.5H7.492l-6.049,6.049
			C1.34,23.652,1.205,23.705,1.068,23.705z"/>
		<polygon fill="#666666" points="20.033,13.791 20.033,23.336 24.294,23.336 24.294,11.26 22.563,11.26 		"/>
		<g>
			<path fill="#666666" d="M22.771,6.727c0.398-0.398,0.997-0.502,1.522-0.352v-6.08h-4.295v9.203L22.771,6.727z"/>
			<line fill="#666666" x1="24.294" y1="9.529" x2="24.06" y2="9.764"/>
		</g>
		<g>
			<polygon fill="#4FB81C" points="15.144,14.354 14.264,14.354 14.264,15.234 			"/>
			<polygon fill="#4FB81C" points="15.324,18.5 14.264,18.5 14.264,23.336 18.523,23.336 18.523,15.301 			"/>
		</g>
		<polygon fill="#4FB81C" points="18.523,10.975 18.523,5.371 14.229,5.371 14.229,12.857 16.64,12.857 		"/>
		<g>
			<polygon fill="#666666" points="6.639,15.441 10.604,15.441 10.604,12.41 6.309,12.41 6.309,15.771 			"/>
			<polygon fill="#666666" points="7.906,18.5 6.309,20.098 6.309,23.336 10.604,23.336 10.604,18.5 			"/>
		</g>
		<rect x="6.309" y="4.904" fill="#666666" width="4.295" height="6.01"/>
		<rect x="0.538" y="8.832" fill="#4FB81C" width="4.296" height="5.777"/>
		<g>
			<polygon fill="#4FB81C" points="4.834,17.246 4.834,16.105 0.538,16.105 0.538,21.541 			"/>
			<polygon fill="#4FB81C" points="3.069,23.336 4.834,23.336 4.834,21.572 			"/>
		</g>
	</g>
</g>
</svg>
