<?xml version="1.0" encoding="utf-8"?>
<!-- Generator: Adobe Illustrator 16.0.0, SVG Export Plug-In . SVG Version: 6.00 Build 0)  -->
<!DOCTYPE svg PUBLIC "-//W3C//DTD SVG 1.1//EN" "http://www.w3.org/Graphics/SVG/1.1/DTD/svg11.dtd">
<svg version="1.1" xmlns="http://www.w3.org/2000/svg" xmlns:xlink="http://www.w3.org/1999/xlink" x="0px" y="0px"
	 width="24.922px" height="24px" viewBox="0 0 24.922 24" enable-background="new 0 0 24.922 24" xml:space="preserve">
<g id="Layout">
</g>
<g id="icons">
	<g>
		<path fill="#4FB81C" d="M1.428,19.877c-0.2,0-0.403-0.066-0.604-0.195c-0.2-0.129-0.301-0.307-0.301-0.541
			c0-0.26,0.115-0.477,0.351-0.648l6.409-4.775h5.433l10.128-9.492c0.199-0.174,0.417-0.26,0.651-0.26
			c0.268,0,0.485,0.086,0.652,0.26C24.315,4.398,24.4,4.584,24.4,4.785c0,0.203-0.068,0.363-0.202,0.477l-10.63,10.055H7.986
			l-5.957,4.389C1.898,19.818,1.694,19.877,1.428,19.877z"/>
		<g>
			<polygon fill="#666666" points="17.167,16.643 17.167,18.818 23.349,13.061 23.349,10.885 			"/>
			<polygon fill="#666666" points="17.167,13.098 17.167,15.275 23.349,9.518 23.349,7.342 			"/>
			<polygon fill="#666666" points="23.349,16.604 23.349,14.428 17.327,20.037 19.663,20.037 			"/>
			<polygon fill="#666666" points="21.131,20.037 23.349,20.037 23.349,17.971 			"/>
		</g>
		<path fill="#4FB81C" d="M0.522,19.045v0.096c0-0.035,0.02-0.063,0.023-0.096H0.522z"/>
		<polygon fill="#666666" points="6.95,12.717 7.121,12.717 7.121,4.305 0.834,4.305 0.834,17.275 		"/>
		<polygon fill="#666666" points="12.319,12.717 15.606,9.637 15.606,7.734 9.371,7.734 9.371,12.717 		"/>
	</g>
</g>
</svg>
