<?xml version="1.0" encoding="utf-8"?>
<!-- Generator: Adobe Illustrator 16.0.0, SVG Export Plug-In . SVG Version: 6.00 Build 0)  -->
<!DOCTYPE svg PUBLIC "-//W3C//DTD SVG 1.1//EN" "http://www.w3.org/Graphics/SVG/1.1/DTD/svg11.dtd">
<svg version="1.1" xmlns="http://www.w3.org/2000/svg" xmlns:xlink="http://www.w3.org/1999/xlink" x="0px" y="0px"
	 width="24.922px" height="24px" viewBox="0 0 24.922 24" enable-background="new 0 0 24.922 24" xml:space="preserve">
<g id="Layout">
</g>
<g id="icons">
	<g>
		<path fill="#666666" d="M3.509,5.971h2.029L3.411,1.604c-0.217-0.4-0.545-0.6-0.983-0.6c-0.293,0-0.52,0.107-0.683,0.328
			C1.581,1.551,1.499,1.785,1.499,2.041c0,0.218,0.055,0.362,0.164,0.439l1.846,3.763V5.971z"/>
		<g>
			<polygon fill="#666666" points="5.751,14.889 6.258,9.971 4.252,9.971 3.709,14.889 			"/>
			<path fill="#666666" d="M8.441,21.994c0-0.217-0.018-0.343-0.054-0.38l-1.879-3.112v0.387H4.547l2.036,3.435
				c0.109,0.399,0.401,0.603,0.874,0.603C8.113,22.926,8.441,22.616,8.441,21.994z"/>
		</g>
		<rect x="11.875" y="15.42" fill="#4FB81C" width="3.076" height="3.076"/>
		<path fill="#4FB81C" d="M11.413,6.04h1.588L9.152,1.509C8.935,1.253,8.66,1.128,8.332,1.128c-0.293,0-0.519,0.109-0.684,0.326
			C7.485,1.673,7.403,1.894,7.403,2.11c0,0.291,0.072,0.512,0.219,0.656l3.791,4.532V6.04z"/>
		<rect x="11.875" y="6.502" fill="#4FB81C" width="3.076" height="3.076"/>
		<g>
			<rect x="12.379" y="10.04" fill="#4FB81C" width="2.021" height="4.918"/>
			<path fill="#4FB81C" d="M23.094,22.72c0.219-0.183,0.328-0.419,0.328-0.709c0-0.256-0.109-0.492-0.328-0.709l-7.681-4.16v1.816
				h-0.462l6.83,3.819c0.145,0.145,0.348,0.218,0.602,0.218C22.638,22.995,22.874,22.903,23.094,22.72z"/>
		</g>
		<g>
			<polygon fill="none" points="4.445,6.429 3.995,6.898 3.995,7.631 5.148,6.429 			"/>
			<polygon fill="none" points="7.08,6.429 6.268,6.429 3.995,8.798 3.995,9.514 4.012,9.514 6.948,6.45 6.948,7.615 5.129,9.514 
				5.832,9.514 6.948,8.349 6.948,9.505 6.958,9.505 6.949,9.514 7.08,9.514 			"/>
			<polygon fill="#666666" points="5.148,6.429 3.995,7.631 3.995,8.798 6.268,6.429 			"/>
			<polygon fill="#666666" points="3.995,6.429 3.995,6.898 4.445,6.429 			"/>
			<polygon fill="#666666" points="6.948,6.45 4.012,9.514 5.129,9.514 6.948,7.615 			"/>
			<polygon fill="#666666" points="6.948,9.505 6.948,8.349 5.832,9.514 6.949,9.514 6.958,9.505 			"/>
		</g>
		<g>
			<polygon fill="none" points="3.479,15.415 3.029,15.885 3.029,16.617 4.183,15.415 			"/>
			<polygon fill="none" points="6.114,15.415 5.302,15.415 3.029,17.784 3.029,18.5 3.046,18.5 5.982,15.437 5.982,16.602 
				4.163,18.5 4.866,18.5 5.982,17.335 5.982,18.491 5.992,18.491 5.983,18.5 6.114,18.5 			"/>
			<polygon fill="#666666" points="4.183,15.415 3.029,16.617 3.029,17.784 5.302,15.415 			"/>
			<polygon fill="#666666" points="3.029,15.415 3.029,15.885 3.479,15.415 			"/>
			<polygon fill="#666666" points="5.982,15.437 3.046,18.5 4.163,18.5 5.982,16.602 			"/>
			<polygon fill="#666666" points="5.982,18.491 5.982,17.335 4.866,18.5 5.983,18.5 5.992,18.491 			"/>
		</g>
	</g>
</g>
</svg>
