<?xml version="1.0" encoding="utf-8"?>
<!-- Generator: Adobe Illustrator 16.0.0, SVG Export Plug-In . SVG Version: 6.00 Build 0)  -->
<!DOCTYPE svg PUBLIC "-//W3C//DTD SVG 1.1//EN" "http://www.w3.org/Graphics/SVG/1.1/DTD/svg11.dtd">
<svg version="1.1" xmlns="http://www.w3.org/2000/svg" xmlns:xlink="http://www.w3.org/1999/xlink" x="0px" y="0px"
	 width="24.922px" height="24px" viewBox="0 0 24.922 24" enable-background="new 0 0 24.922 24" xml:space="preserve">
<g id="Layout">
</g>
<g id="icons">
	<g>
		<rect x="4.959" y="1.188" fill="#666666" width="18.661" height="5.803"/>
		<rect x="4.959" y="9.002" fill="#666666" width="12.658" height="5.752"/>
		<g>
			<polygon fill="#666666" points="7.196,22.453 10.501,19.67 10.501,17.904 5.103,22.453 			"/>
			<polygon fill="#666666" points="10.501,22.453 10.501,20.777 8.514,22.453 			"/>
			<polygon fill="#666666" points="8.368,16.828 4.959,19.699 4.959,21.463 10.462,16.828 			"/>
			<polygon fill="#666666" points="4.975,16.828 4.975,16.814 4.959,16.826 4.959,18.592 7.052,16.828 			"/>
		</g>
		<g>
			<g>
				<polygon fill="#4FB81C" points="1.303,19.939 1.303,21.947 3.148,20.229 3.148,18.219 				"/>
				<path fill="#4FB81C" d="M1.326,23.188C1.382,23.645,1.755,24,2.226,24c0.51,0,0.923-0.412,0.923-0.924V21.49L1.326,23.188z"/>
				<path fill="#4FB81C" d="M1.303,3.984v1.613L3.13,3.895C3.083,3.43,2.703,3.061,2.226,3.061c-0.247,0-0.469,0.102-0.635,0.262
					L1.565,3.346C1.403,3.51,1.303,3.736,1.303,3.984z"/>
				<polygon fill="#4FB81C" points="1.303,16.668 1.303,18.678 3.148,16.957 3.148,14.949 				"/>
				<polygon fill="#4FB81C" points="1.303,13.398 1.303,15.404 3.148,13.688 3.148,11.68 				"/>
				<polygon fill="#4FB81C" points="1.303,6.859 1.303,8.869 3.148,7.146 3.148,5.141 				"/>
				<polygon fill="#4FB81C" points="1.303,10.129 1.303,12.139 3.148,10.418 3.148,8.41 				"/>
			</g>
			<path fill="#666666" d="M3.16,13.604V0.924C3.16,0.414,2.746,0,2.236,0S1.313,0.414,1.313,0.924v14.525L3.16,13.604z"/>
		</g>
	</g>
</g>
</svg>
