<?xml version="1.0" encoding="utf-8"?>
<!-- Generator: Adobe Illustrator 16.0.0, SVG Export Plug-In . SVG Version: 6.00 Build 0)  -->
<!DOCTYPE svg PUBLIC "-//W3C//DTD SVG 1.1//EN" "http://www.w3.org/Graphics/SVG/1.1/DTD/svg11.dtd">
<svg version="1.1" xmlns="http://www.w3.org/2000/svg" xmlns:xlink="http://www.w3.org/1999/xlink" x="0px" y="0px" width="24px"
	 height="24px" viewBox="0 0 24 24" enable-background="new 0 0 24 24" xml:space="preserve">
<g id="Layout">
</g>
<g id="icons">
	<g>
		<polygon fill="#008FD3" points="23.629,6.353 15.767,13.077 7.011,13.077 0.371,18.841 0.371,22.813 8.131,16.077 16.875,16.077 
			23.629,10.302 		"/>
		<g>
			<polygon fill="#666666" points="22.979,5.593 23.629,5.036 23.629,0.001 17.447,0.001 17.447,10.323 			"/>
			<polygon fill="#666666" points="17.524,16.837 17.447,16.903 17.447,24.001 23.629,24.001 23.629,11.616 			"/>
		</g>
		<g>
			<rect x="8.909" y="10.286" fill="#4FB81C" width="6.235" height="1.791"/>
			<rect x="8.909" y="17.077" fill="#4FB81C" width="6.235" height="6.924"/>
		</g>
		<g>
			<polygon fill="#BFBFBF" points="6.355,12.321 6.637,12.077 6.659,12.077 6.659,6.856 0.371,6.856 0.371,17.517 			"/>
			<polygon fill="#BFBFBF" points="1.027,23.569 0.529,24.001 6.659,24.001 6.659,18.679 			"/>
		</g>
	</g>
</g>
</svg>
