<?xml version="1.0" encoding="utf-8"?>
<!-- Generator: Adobe Illustrator 16.0.0, SVG Export Plug-In . SVG Version: 6.00 Build 0)  -->
<!DOCTYPE svg PUBLIC "-//W3C//DTD SVG 1.1//EN" "http://www.w3.org/Graphics/SVG/1.1/DTD/svg11.dtd">
<svg version="1.1" xmlns="http://www.w3.org/2000/svg" xmlns:xlink="http://www.w3.org/1999/xlink" x="0px" y="0px"
	 width="24.922px" height="24px" viewBox="0 0 24.922 24" enable-background="new 0 0 24.922 24" xml:space="preserve">
<g id="Layout">
</g>
<g id="icons">
	<g>
		<path fill="#008FD3" d="M0.756,0.607c0-0.135,0.053-0.27,0.156-0.373c0.207-0.209,0.543-0.209,0.75,0L8.02,6.592v7.418
			l9.008,9.008c0.207,0.207,0.207,0.543,0,0.75s-0.541,0.207-0.748,0l-9.318-9.318V7.031L0.912,0.982
			C0.809,0.879,0.756,0.744,0.756,0.607z"/>
		<polygon fill="#666666" points="10.67,19.572 1.124,19.572 1.124,23.834 13.201,23.834 13.201,22.104 		"/>
		<g>
			<path fill="#666666" d="M17.734,22.311c0.398,0.398,0.502,0.998,0.351,1.523h6.081v-4.295h-9.204L17.734,22.311z"/>
			<polygon fill="#666666" points="14.697,23.6 14.697,23.834 14.932,23.834 			"/>
		</g>
		<g>
			<polygon fill="#4FB81C" points="10.106,14.684 10.106,13.803 9.227,13.803 			"/>
			<polygon fill="#4FB81C" points="5.961,14.863 5.961,13.803 1.124,13.803 1.124,18.063 9.16,18.063 			"/>
		</g>
		<polygon fill="#4FB81C" points="13.486,18.063 19.089,18.063 19.089,13.77 11.603,13.77 11.603,16.18 		"/>
		<g>
			<polygon fill="#666666" points="9.02,6.178 9.02,10.143 12.051,10.143 12.051,5.848 8.689,5.848 			"/>
			<polygon fill="#666666" points="5.961,7.445 4.363,5.848 1.124,5.848 1.124,10.143 5.961,10.143 			"/>
		</g>
		<rect x="13.547" y="5.848" fill="#666666" width="6.009" height="4.295"/>
		<rect x="9.851" y="0.078" fill="#4FB81C" width="5.777" height="4.295"/>
		<g>
			<polygon fill="#4FB81C" points="7.215,4.373 8.354,4.373 8.354,0.078 2.92,0.078 			"/>
			<polygon fill="#4FB81C" points="1.124,2.609 1.124,4.373 2.889,4.373 			"/>
		</g>
	</g>
</g>
</svg>
