<?xml version="1.0" encoding="utf-8"?>
<!-- Generator: Adobe Illustrator 16.0.0, SVG Export Plug-In . SVG Version: 6.00 Build 0)  -->
<!DOCTYPE svg PUBLIC "-//W3C//DTD SVG 1.1//EN" "http://www.w3.org/Graphics/SVG/1.1/DTD/svg11.dtd">
<svg version="1.1" xmlns="http://www.w3.org/2000/svg" xmlns:xlink="http://www.w3.org/1999/xlink" x="0px" y="0px" width="24px"
	 height="24px" viewBox="0 0 24 24" enable-background="new 0 0 24 24" xml:space="preserve">
<g id="Layout">
</g>
<g id="icons">
	<g>
		<polygon fill="#008FD3" points="17.649,23.629 10.925,15.767 10.925,7.011 5.161,0.371 1.188,0.371 7.925,8.131 7.925,16.875 
			13.7,23.629 		"/>
		<g>
			<polygon fill="#666666" points="18.409,22.979 18.966,23.629 24.001,23.629 24.001,17.447 13.679,17.447 			"/>
			<polygon fill="#666666" points="7.165,17.524 7.099,17.447 0.001,17.447 0.001,23.629 12.386,23.629 			"/>
		</g>
		<g>
			<rect x="11.925" y="8.909" fill="#4FB81C" width="1.791" height="6.235"/>
			<rect x="0.001" y="8.909" fill="#4FB81C" width="6.924" height="6.235"/>
		</g>
		<g>
			<polygon fill="#BFBFBF" points="11.681,6.355 11.925,6.637 11.925,6.659 17.146,6.659 17.146,0.371 6.485,0.371 			"/>
			<polygon fill="#BFBFBF" points="0.433,1.027 0.001,0.529 0.001,6.659 5.323,6.659 			"/>
		</g>
	</g>
</g>
</svg>
