<?xml version="1.0" encoding="utf-8"?>
<!-- Generator: Adobe Illustrator 16.0.0, SVG Export Plug-In . SVG Version: 6.00 Build 0)  -->
<!DOCTYPE svg PUBLIC "-//W3C//DTD SVG 1.1//EN" "http://www.w3.org/Graphics/SVG/1.1/DTD/svg11.dtd">
<svg version="1.1" xmlns="http://www.w3.org/2000/svg" xmlns:xlink="http://www.w3.org/1999/xlink" x="0px" y="0px"
	 width="24.959px" height="24px" viewBox="0 0 24.959 24" enable-background="new 0 0 24.959 24" xml:space="preserve">
<g id="Layout">
</g>
<g id="icons">
	<g>
		<path fill="#008FD3" d="M1.408,15.597c-0.194,0-0.391-0.075-0.587-0.222c-0.194-0.146-0.293-0.347-0.293-0.61
			c0-0.295,0.112-0.539,0.342-0.733L6.4,9.335h5.283l6.898-7.78c0.194-0.196,0.406-0.294,0.636-0.294
			c0.259,0,0.471,0.098,0.634,0.294c0.165,0.198,0.247,0.408,0.247,0.634c0,0.229-0.066,0.41-0.196,0.54l-7.389,8.415H7.085
			L1.994,15.4C1.867,15.532,1.669,15.597,1.408,15.597z"/>
		<g>
			<polygon fill="#666666" points="19.291,14.177 19.291,15.819 22.176,15.819 22.176,16.687 18.472,16.687 18.472,14.177 			"/>
		</g>
		<path fill="#666666" d="M18.941,21.718c-3.054,0-5.537-2.482-5.537-5.536c0-3.058,2.483-5.541,5.537-5.541
			s5.538,2.483,5.538,5.541C24.479,19.235,21.995,21.718,18.941,21.718z M18.941,11.655c-2.492,0-4.521,2.029-4.521,4.526
			c0,2.491,2.029,4.521,4.521,4.521c2.494,0,4.523-2.029,4.523-4.521C23.465,13.685,21.436,11.655,18.941,11.655z"/>
		<g>
			<path fill="#666666" d="M12.969,18.77l-0.945,0.35l-5.382-0.832l-5.624,2.74c-0.361,0.193-0.538,0.486-0.538,0.88
				c0,0.263,0.098,0.463,0.294,0.611c0.196,0.147,0.406,0.22,0.635,0.22c0.195,0,0.323-0.048,0.393-0.148l5.088-2.494l5.283,0.881
				l1.72-0.651C13.515,19.855,13.195,19.34,12.969,18.77z"/>
		</g>
		<g>
			<path fill="#4FB81C" d="M12.896,14.056l-0.972,0.607l-5.332-0.926l-5.672,3.816c-0.294,0.195-0.441,0.44-0.441,0.733
				c0,0.26,0.106,0.474,0.318,0.635c0.21,0.165,0.416,0.244,0.61,0.244c0.164,0,0.323-0.047,0.49-0.147l5.04-3.374l5.332,0.881
				l0.102-0.062C12.381,15.605,12.568,14.793,12.896,14.056z"/>
		</g>
	</g>
</g>
</svg>
