<?xml version="1.0" encoding="utf-8"?>
<!-- Generator: Adobe Illustrator 16.0.3, SVG Export Plug-In . SVG Version: 6.00 Build 0)  -->
<!DOCTYPE svg PUBLIC "-//W3C//DTD SVG 1.1//EN" "http://www.w3.org/Graphics/SVG/1.1/DTD/svg11.dtd">
<svg version="1.1" id="Layer_1" xmlns="http://www.w3.org/2000/svg" xmlns:xlink="http://www.w3.org/1999/xlink" x="0px" y="0px"
	 width="48px" height="48px" viewBox="0 0 48 48" enable-background="new 0 0 48 48" xml:space="preserve">
<g>
	<path fill="#666666" d="M24.996,29.48l12.951,12.951c-3.804,3.199-8.122,5.01-12.951,5.434c-0.725,0.059-1.39,0.09-1.993,0.09
		c-0.604,0-1.238-0.031-1.902-0.09c-3.865-0.303-7.412-1.525-10.642-3.668c-3.23-2.143-5.782-4.906-7.652-8.287
		c-0.604-1.088-1.118-2.234-1.54-3.441C0.422,30.055,0,27.549,0,24.951c0-5.675,1.811-10.687,5.434-15.034
		c0.905-0.965,1.811-1.841,2.717-2.626c3.743-3.138,8.06-4.95,12.951-5.434v23.819L24.996,29.48z"/>
	<path fill="#008FD3" d="M43.2,13.812l-18.204,8.061V0.045c4.286,0.303,8.196,1.616,11.729,3.939
		c3.532,2.325,6.294,5.33,8.286,9.011L43.2,13.812z"/>
	<path fill="#4FB81C" d="M46.642,16.528C47.547,19.246,48,22.052,48,24.951c0,6.1-1.993,11.473-5.978,16.121l-1.449-1.268
		L26.354,25.494L46.642,16.528z"/>
</g>
</svg>
