<?xml version="1.0" encoding="utf-8"?>
<!-- Generator: Adobe Illustrator 16.0.0, SVG Export Plug-In . SVG Version: 6.00 Build 0)  -->
<!DOCTYPE svg PUBLIC "-//W3C//DTD SVG 1.1//EN" "http://www.w3.org/Graphics/SVG/1.1/DTD/svg11.dtd">
<svg version="1.1" id="Layer_1" xmlns="http://www.w3.org/2000/svg" xmlns:xlink="http://www.w3.org/1999/xlink" x="0px" y="0px"
	 width="24px" height="24px" viewBox="0 0 24 24" enable-background="new 0 0 24 24" xml:space="preserve">
<g>
	<g>
		<rect x="13.845" y="9.754" fill="#008FD3" width="2.746" height="7.486"/>
		<rect x="17.573" y="11.251" fill="#4FB81C" width="2.723" height="5.989"/>
		<rect x="21.302" y="6.76" fill="#666666" width="2.698" height="10.48"/>
	</g>
	<g>
		<path fill-rule="evenodd" clip-rule="evenodd" fill="#666666" d="M10.661,6.82H3.733c-0.254,0-0.478,0.207-0.478,0.462v1.526
			c0.372,0,0.622,0,0.871,0V8.32c0-0.254,0.027-0.382,0.283-0.382h5.576c0.255,0,0.229,0.128,0.229,0.382v0.462
			c0,0.255,0.025,0.523-0.229,0.523H6.38c0,0.124,0,0.124,0,0.497h3.606c0.255,0,0.229,0.102,0.229,0.357v0.586
			c0,0.254,0.025,0.548-0.229,0.548H5.608c-0.163,0.124-0.514,0.498-0.514,0.498h4.892c0.255,0,0.229,0.201,0.229,0.456v0.461
			c0,0.255,0.025,0.45-0.229,0.45H4.41c-0.229,0-0.168-0.16-0.206-0.376c-0.15,0.17-0.274,0.314-0.356,0.409
			c-0.045,0.054-0.072,0.11-0.071,0.187c0.002,0.783-0.005,1.26-0.001,2.044c0,0.075-0.021,0.092-0.092,0.091
			c-0.14-0.001-0.304,0-0.428,0v1.16c0,0.255,0.224,0.462,0.478,0.462h6.928c0.256,0,0.423-0.207,0.423-0.462v-9.39
			C11.084,7.026,10.917,6.82,10.661,6.82z"/>
		<path fill-rule="evenodd" clip-rule="evenodd" fill="#FFFFFF" d="M4.195,15.749c0,0.255,0.208,0.461,0.463,0.461h5.08
			c0.255,0,0.463-0.207,0.463-0.461v-0.462c0-0.255-0.208-0.462-0.463-0.462h-5.08c-0.255,0-0.463,0.207-0.463,0.462V15.749z"/>
		<g>
			<path fill-rule="evenodd" clip-rule="evenodd" fill="#008FD3" d="M2.961,9.169c-0.962,0-1.922,0-2.883-0.001
				C0.019,9.167,0,9.182,0,9.244c0.004,0.242,0.003,0.485,0.001,0.727c0,0.032,0.008,0.058,0.03,0.084
				c0.174,0.203,0.348,0.407,0.521,0.611c0.229,0.267,0.457,0.535,0.686,0.801c0.197,0.23,0.396,0.459,0.593,0.69
				c0.227,0.263,0.451,0.528,0.679,0.791c0.026,0.032,0.031,0.064,0.031,0.103c0,0.654,0.001,1.309-0.002,1.964
				c0,0.069,0.02,0.082,0.086,0.081c0.229-0.003,0.458-0.003,0.688,0c0.059,0,0.076-0.013,0.076-0.076c-0.002-0.65,0-1.3-0.003-1.95
				c0-0.063,0.021-0.109,0.06-0.154c0.357-0.416,0.716-0.832,1.074-1.249c0.382-0.446,0.763-0.893,1.144-1.338
				c0.071-0.084,0.145-0.166,0.218-0.248c0.03-0.034,0.047-0.07,0.047-0.118c-0.003-0.238-0.003-0.477,0-0.714
				c0.001-0.063-0.015-0.082-0.079-0.081C4.887,9.169,3.923,9.169,2.961,9.169z"/>
		</g>
		<path fill-rule="evenodd" clip-rule="evenodd" fill="#4FB81C" d="M4.447,15.671c0,0.169,0.103,0.306,0.229,0.306h5.042
			c0.127,0,0.231-0.137,0.231-0.306v-0.306c0-0.17-0.104-0.307-0.231-0.307H4.677c-0.127,0-0.229,0.137-0.229,0.307V15.671z"/>
	</g>
</g>
</svg>
