<?xml version="1.0" encoding="utf-8"?>
<!-- Generator: Adobe Illustrator 16.0.0, SVG Export Plug-In . SVG Version: 6.00 Build 0)  -->
<!DOCTYPE svg PUBLIC "-//W3C//DTD SVG 1.1//EN" "http://www.w3.org/Graphics/SVG/1.1/DTD/svg11.dtd">
<svg version="1.1" id="Layer_1" xmlns="http://www.w3.org/2000/svg" xmlns:xlink="http://www.w3.org/1999/xlink" x="0px" y="0px"
	 width="24px" height="24px" viewBox="0 0 24 24" enable-background="new 0 0 24 24" xml:space="preserve">
<g>
	<g>
		<path fill-rule="evenodd" clip-rule="evenodd" fill="#666666" d="M10.639,6.865H3.725c-0.254,0-0.477,0.206-0.477,0.461v1.523
			c0.371,0,0.621,0,0.869,0V8.362c0-0.254,0.027-0.382,0.283-0.382h5.564c0.254,0,0.229,0.127,0.229,0.382v0.461
			c0,0.254,0.025,0.521-0.229,0.521h-3.6c0,0.124,0,0.124,0,0.496h3.6c0.254,0,0.229,0.102,0.229,0.356v0.585
			c0,0.254,0.025,0.546-0.229,0.546H5.596c-0.162,0.124-0.512,0.497-0.512,0.497h4.881c0.254,0,0.229,0.201,0.229,0.455v0.46
			c0,0.254,0.025,0.449-0.229,0.449H4.4c-0.229,0-0.168-0.16-0.207-0.376c-0.148,0.169-0.273,0.313-0.354,0.408
			c-0.045,0.053-0.074,0.109-0.072,0.186c0.002,0.782-0.006,1.258-0.002,2.04c0,0.075-0.02,0.092-0.092,0.091
			c-0.139-0.001-0.303,0-0.426,0v1.157c0,0.255,0.223,0.461,0.477,0.461h6.914c0.254,0,0.422-0.207,0.422-0.461V7.326
			C11.061,7.071,10.893,6.865,10.639,6.865z"/>
		<path fill-rule="evenodd" clip-rule="evenodd" fill="#FFFFFF" d="M4.186,15.775c0,0.254,0.207,0.46,0.461,0.46h5.07
			c0.254,0,0.461-0.206,0.461-0.46v-0.461c0-0.254-0.207-0.461-0.461-0.461h-5.07c-0.254,0-0.461,0.207-0.461,0.461V15.775z"/>
		<g>
			<path fill-rule="evenodd" clip-rule="evenodd" fill="#008FD3" d="M2.953,9.209c-0.959,0-1.918,0-2.877-0.001
				C0.018,9.208-0.002,9.222,0,9.283c0.004,0.241,0.002,0.484,0,0.726c0,0.032,0.008,0.058,0.031,0.083
				c0.172,0.202,0.346,0.406,0.52,0.61c0.229,0.267,0.455,0.533,0.684,0.799c0.197,0.23,0.395,0.458,0.592,0.688
				c0.227,0.263,0.449,0.527,0.678,0.789c0.027,0.031,0.031,0.063,0.031,0.102c0,0.653,0,1.306-0.002,1.959
				c0,0.069,0.02,0.083,0.084,0.081c0.23-0.003,0.459-0.003,0.688,0c0.059,0,0.076-0.014,0.076-0.075
				c-0.002-0.649,0-1.297-0.004-1.946c0-0.063,0.021-0.109,0.061-0.154c0.357-0.415,0.713-0.83,1.072-1.246
				c0.381-0.445,0.76-0.891,1.141-1.336c0.07-0.083,0.145-0.165,0.219-0.247c0.029-0.034,0.045-0.07,0.045-0.117
				c-0.002-0.237-0.002-0.476,0-0.713C5.916,9.226,5.9,9.207,5.836,9.208C4.875,9.209,3.914,9.209,2.953,9.209z"/>
		</g>
		<path fill-rule="evenodd" clip-rule="evenodd" fill="#4FB81C" d="M4.438,15.697c0,0.169,0.102,0.306,0.229,0.306h5.031
			c0.127,0,0.23-0.137,0.23-0.306v-0.305c0-0.169-0.104-0.306-0.23-0.306H4.666c-0.127,0-0.229,0.137-0.229,0.306V15.697z"/>
	</g>
	<g>
		<rect x="13.746" y="9.401" fill="#4FB81C" width="0.859" height="1.7"/>
		<rect x="13.746" y="11.96" fill="#4FB81C" width="0.859" height="1.718"/>
		<rect x="13.746" y="14.538" fill="#4FB81C" width="0.859" height="1.7"/>
		<rect x="16.305" y="6.842" fill="#008FD3" width="1.697" height="0.84"/>
		<polygon fill="#008FD3" points="20.582,7.682 18.861,7.682 18.861,6.842 20.582,6.842 		"/>
		<rect x="21.441" y="6.842" fill="#008FD3" width="1.699" height="0.84"/>
		<path fill="#666666" d="M15.443,8.542v8.536H24V8.542H15.443z M18.002,16.238h-1.697v-1.7h1.697V16.238z M18.002,13.678h-1.697
			V11.96h1.697V13.678z M18.002,11.101h-1.697v-1.7h1.697V11.101z M20.582,16.238h-1.721v-1.7h1.721V16.238z M20.582,13.678h-1.721
			V11.96h1.721V13.678z M20.582,11.101h-1.721v-1.7h1.721V11.101z M23.141,16.238h-1.699v-1.7h1.699V16.238z M23.141,13.678h-1.699
			V11.96h1.699V13.678z M23.141,11.101h-1.699v-1.7h1.699V11.101z"/>
	</g>
</g>
</svg>
