<?xml version="1.0" encoding="utf-8"?>
<!-- Generator: Adobe Illustrator 16.0.0, SVG Export Plug-In . SVG Version: 6.00 Build 0)  -->
<!DOCTYPE svg PUBLIC "-//W3C//DTD SVG 1.1//EN" "http://www.w3.org/Graphics/SVG/1.1/DTD/svg11.dtd">
<svg version="1.1" id="Layer_1" xmlns="http://www.w3.org/2000/svg" xmlns:xlink="http://www.w3.org/1999/xlink" x="0px" y="0px"
	 width="24px" height="24px" viewBox="0 0 24 24" enable-background="new 0 0 24 24" xml:space="preserve">
<g>
	<g>
		<rect y="9.591" fill="#4FB81C" width="0.876" height="1.733"/>
		<rect y="12.201" fill="#4FB81C" width="0.876" height="1.752"/>
		<rect y="14.83" fill="#4FB81C" width="0.876" height="1.733"/>
		<rect x="2.61" y="6.981" fill="#008FD3" width="1.731" height="0.856"/>
		<polygon fill="#008FD3" points="6.972,7.838 5.219,7.838 5.219,6.981 6.972,6.981 		"/>
		<rect x="7.849" y="6.981" fill="#008FD3" width="1.732" height="0.856"/>
		<path fill="#666666" d="M1.732,8.715v8.704h8.725V8.715H1.732z M4.342,16.563H2.61V14.83h1.731V16.563z M4.342,13.953H2.61v-1.752
			h1.731V13.953z M4.342,11.324H2.61V9.591h1.731V11.324z M6.972,16.563H5.219V14.83h1.753V16.563z M6.972,13.953H5.219v-1.752
			h1.753V13.953z M6.972,11.324H5.219V9.591h1.753V11.324z M9.581,16.563H7.849V14.83h1.732V16.563z M9.581,13.953H7.849v-1.752
			h1.732V13.953z M9.581,11.324H7.849V9.591h1.732V11.324z"/>
	</g>
	<g>
		<rect x="13.664" y="9.628" fill="#008FD3" width="2.795" height="7.618"/>
		<rect x="17.459" y="11.151" fill="#4FB81C" width="2.771" height="6.095"/>
		<rect x="21.253" y="6.581" fill="#666666" width="2.747" height="10.665"/>
	</g>
</g>
</svg>
