<?xml version="1.0" encoding="utf-8"?>
<!-- Generator: Adobe Illustrator 16.0.0, SVG Export Plug-In . SVG Version: 6.00 Build 0)  -->
<!DOCTYPE svg PUBLIC "-//W3C//DTD SVG 1.1//EN" "http://www.w3.org/Graphics/SVG/1.1/DTD/svg11.dtd">
<svg version="1.1" id="Layer_1" xmlns="http://www.w3.org/2000/svg" xmlns:xlink="http://www.w3.org/1999/xlink" x="0px" y="0px"
	 width="24px" height="24px" viewBox="0 0 24 24" enable-background="new 0 0 24 24" xml:space="preserve">
<g>
	<g>
		<rect x="13.75" y="15.855" fill="#4FB81C" width="0.859" height="1.699"/>
		<rect x="13.75" y="18.413" fill="#4FB81C" width="0.859" height="1.718"/>
		<rect x="13.75" y="20.99" fill="#4FB81C" width="0.859" height="1.699"/>
		<rect x="16.309" y="13.298" fill="#008FD3" width="1.697" height="0.839"/>
		<polygon fill="#008FD3" points="20.584,14.138 18.865,14.138 18.865,13.298 20.584,13.298 		"/>
		<rect x="21.443" y="13.298" fill="#008FD3" width="1.697" height="0.839"/>
		<path fill="#666666" d="M15.447,14.997v8.531H24v-8.531H15.447z M18.006,22.689h-1.697V20.99h1.697V22.689z M18.006,20.131h-1.697
			v-1.718h1.697V20.131z M18.006,17.554h-1.697v-1.698h1.697V17.554z M20.584,22.689h-1.719V20.99h1.719V22.689z M20.584,20.131
			h-1.719v-1.718h1.719V20.131z M20.584,17.554h-1.719v-1.698h1.719V17.554z M23.141,22.689h-1.697V20.99h1.697V22.689z
			 M23.141,20.131h-1.697v-1.718h1.697V20.131z M23.141,17.554h-1.697v-1.698h1.697V17.554z"/>
	</g>
	<g>
		<rect x="13.811" y="3.458" fill="#008FD3" width="2.738" height="7.467"/>
		<rect x="17.529" y="4.952" fill="#4FB81C" width="2.715" height="5.974"/>
		<rect x="21.248" y="0.473" fill="#666666" width="2.691" height="10.453"/>
	</g>
	<g>
		<path fill-rule="evenodd" clip-rule="evenodd" fill="#666666" d="M10.635,0.532h-6.91c-0.254,0-0.477,0.207-0.477,0.461v1.522
			c0.371,0,0.621,0,0.869,0V2.029c0-0.254,0.027-0.382,0.281-0.382h5.563c0.254,0,0.229,0.128,0.229,0.382V2.49
			c0,0.255,0.025,0.521-0.229,0.521H6.363c0,0.125,0,0.125,0,0.497h3.598c0.254,0,0.229,0.102,0.229,0.356v0.584
			c0,0.254,0.025,0.546-0.229,0.546H5.594C5.432,5.118,5.082,5.49,5.082,5.49h4.879c0.254,0,0.229,0.2,0.229,0.455v0.461
			c0,0.254,0.025,0.448-0.229,0.448H4.398c-0.229,0-0.166-0.159-0.205-0.375C4.043,6.647,3.92,6.792,3.838,6.886
			c-0.045,0.054-0.072,0.11-0.072,0.186c0.004,0.782-0.004,1.257,0,2.039c0,0.075-0.021,0.092-0.092,0.091
			c-0.139-0.002-0.303,0-0.426,0v1.157c0,0.254,0.223,0.461,0.477,0.461h6.91c0.254,0,0.422-0.207,0.422-0.461V0.993
			C11.057,0.738,10.889,0.532,10.635,0.532z"/>
		<path fill-rule="evenodd" clip-rule="evenodd" fill="#FFFFFF" d="M4.186,9.438c0,0.255,0.207,0.46,0.461,0.46h5.066
			c0.254,0,0.463-0.206,0.463-0.46v-0.46c0-0.254-0.209-0.461-0.463-0.461H4.646c-0.254,0-0.461,0.207-0.461,0.461V9.438z"/>
		<g>
			<path fill-rule="evenodd" clip-rule="evenodd" fill="#008FD3" d="M2.953,2.875c-0.959,0-1.918,0-2.875-0.001
				C0.018,2.874,0,2.888,0,2.95c0.004,0.241,0.004,0.484,0.002,0.725c0,0.032,0.008,0.058,0.029,0.083
				c0.174,0.202,0.346,0.406,0.52,0.61c0.229,0.266,0.457,0.533,0.684,0.799c0.197,0.23,0.396,0.458,0.592,0.688
				c0.227,0.262,0.449,0.526,0.678,0.789c0.025,0.031,0.031,0.063,0.031,0.102c0,0.653,0,1.306-0.002,1.958
				c0,0.069,0.02,0.083,0.084,0.082c0.23-0.004,0.459-0.004,0.688,0c0.057,0,0.076-0.014,0.076-0.076
				c-0.002-0.648,0-1.296-0.004-1.945c0-0.063,0.021-0.109,0.061-0.153c0.355-0.415,0.713-0.83,1.07-1.246
				C4.889,4.921,5.27,4.475,5.648,4.031c0.072-0.083,0.145-0.165,0.219-0.247c0.029-0.034,0.045-0.07,0.045-0.118
				c-0.002-0.237-0.002-0.475,0-0.712c0.002-0.063-0.014-0.082-0.078-0.081C4.873,2.875,3.912,2.875,2.953,2.875z"/>
		</g>
		<path fill-rule="evenodd" clip-rule="evenodd" fill="#4FB81C" d="M4.436,9.361c0,0.168,0.104,0.306,0.229,0.306h5.029
			c0.127,0,0.23-0.137,0.23-0.306V9.055c0-0.169-0.104-0.306-0.23-0.306H4.664c-0.125,0-0.229,0.137-0.229,0.306V9.361z"/>
	</g>
</g>
</svg>
