<?xml version="1.0" encoding="utf-8"?>
<!-- Generator: Adobe Illustrator 16.0.0, SVG Export Plug-In . SVG Version: 6.00 Build 0)  -->
<!DOCTYPE svg PUBLIC "-//W3C//DTD SVG 1.1//EN" "http://www.w3.org/Graphics/SVG/1.1/DTD/svg11.dtd">
<svg version="1.1" xmlns="http://www.w3.org/2000/svg" xmlns:xlink="http://www.w3.org/1999/xlink" x="0px" y="0px" width="24px"
	 height="24px" viewBox="0 0 24 24" enable-background="new 0 0 24 24" xml:space="preserve">
<g id="Layout">
</g>
<g id="icons">
	<g>
		<rect x="0" y="7.383" fill="#008FD3" width="1.551" height="3.066"/>
		<rect x="0" y="12" fill="#008FD3" width="1.551" height="3.102"/>
		<rect x="0" y="16.652" fill="#008FD3" width="1.551" height="3.065"/>
		<rect x="4.616" y="2.767" fill="#4FB81C" width="3.065" height="1.515"/>
		<polygon fill="#4FB81C" points="12.334,4.281 9.232,4.281 9.232,2.767 12.334,2.767 		"/>
		<rect x="13.885" y="2.767" fill="#4FB81C" width="3.065" height="1.515"/>
		<g>
			<path fill-rule="evenodd" clip-rule="evenodd" fill="#666666" d="M22.336,12.442c-0.033,0.026-0.065,0.047-0.092,0.072
				c-1.293,1.293-2.587,2.587-3.88,3.88c-0.149,0.148-0.299,0.295-0.445,0.447c-0.05,0.052-0.08,0.063-0.137,0.004
				c-0.329-0.335-0.661-0.667-0.996-0.996c-0.057-0.056-0.05-0.085,0.002-0.137c1.452-1.449,2.903-2.9,4.353-4.353
				c0.049-0.05,0.075-0.05,0.123,0c0.333,0.337,0.669,0.672,1.004,1.007C22.288,12.387,22.306,12.407,22.336,12.442z"/>
			<path fill-rule="evenodd" clip-rule="evenodd" fill="#008FD3" d="M24,10.749c-0.021,0.025-0.038,0.048-0.058,0.067
				c-0.331,0.333-0.665,0.664-0.995,0.997c-0.048,0.049-0.074,0.054-0.124,0.003c-0.332-0.338-0.668-0.673-1.004-1.006
				c-0.046-0.046-0.057-0.071-0.004-0.124c0.335-0.329,0.667-0.661,0.996-0.995c0.059-0.061,0.091-0.053,0.146,0.002
				c0.327,0.332,0.657,0.66,0.986,0.988C23.962,10.702,23.979,10.725,24,10.749z"/>
			<path fill-rule="evenodd" clip-rule="evenodd" fill="#666666" d="M15.602,18.028c0.187-0.557,0.364-1.086,0.54-1.615
				c0.017-0.052,0.027-0.077,0.078-0.027c0.353,0.355,0.708,0.709,1.076,1.078C16.728,17.653,16.177,17.837,15.602,18.028z"/>
		</g>
		<path fill="#666666" d="M18.502,18.159l-1.551,0.499v1.06h-3.065v-3.065h1.173l0.421-1.237c0.099-0.096,0.219-0.207,0.331-0.313
			h-1.925V12h3.065v2.037c0.479-0.443,1.001-0.924,1.551-1.433V5.832H3.065v15.4h15.437V18.159L18.502,18.159z M13.885,7.383h3.065
			v3.066h-3.065V7.383z M7.682,19.718H4.616v-3.065h3.065V19.718z M7.682,15.102H4.616V12h3.065V15.102z M7.682,10.449H4.616V7.383
			h3.065V10.449z M12.334,19.718H9.232v-3.065h3.102V19.718z M12.334,15.102H9.232V12h3.102V15.102z M12.334,10.449H9.232V7.383
			h3.102V10.449z"/>
	</g>
</g>
</svg>
