<?xml version="1.0" encoding="utf-8"?>
<!-- Generator: Adobe Illustrator 16.0.3, SVG Export Plug-In . SVG Version: 6.00 Build 0)  -->
<!DOCTYPE svg PUBLIC "-//W3C//DTD SVG 1.1//EN" "http://www.w3.org/Graphics/SVG/1.1/DTD/svg11.dtd">
<svg version="1.1" id="Layer_1" xmlns="http://www.w3.org/2000/svg" xmlns:xlink="http://www.w3.org/1999/xlink" x="0px" y="0px"
	 width="48px" height="48px" viewBox="0 0 48 48" enable-background="new 0 0 48 48" xml:space="preserve">
<g>
	<rect y="12.023" fill="#4FB81C" width="4.023" height="7.953"/>
	<rect y="24" fill="#4FB81C" width="4.023" height="8.047"/>
	<rect y="36.07" fill="#4FB81C" width="4.023" height="7.953"/>
	<rect x="11.977" y="0.047" fill="#008FD3" width="7.953" height="3.93"/>
	<polygon fill="#008FD3" points="32,3.977 23.953,3.977 23.953,0.047 32,0.047 32,3.977 	"/>
	<rect x="36.023" y="0.047" fill="#008FD3" width="7.953" height="3.93"/>
	<path fill="#666666" d="M7.953,8v39.953H48V8H7.953z M19.93,44.023h-7.953V36.07h7.953V44.023z M19.93,32.047h-7.953V24h7.953
		V32.047z M19.93,19.977h-7.953v-7.953h7.953V19.977z M32,44.023h-8.047V36.07H32V44.023z M32,32.047h-8.047V24H32V32.047z
		 M32,19.977h-8.047v-7.953H32V19.977z M43.977,44.023h-7.953V36.07h7.953V44.023z M43.977,32.047h-7.953V24h7.953V32.047z
		 M43.977,19.977h-7.953v-7.953h7.953V19.977z"/>
</g>
</svg>
