<?xml version="1.0" encoding="utf-8"?>
<!-- Generator: Adobe Illustrator 16.0.0, SVG Export Plug-In . SVG Version: 6.00 Build 0)  -->
<!DOCTYPE svg PUBLIC "-//W3C//DTD SVG 1.1//EN" "http://www.w3.org/Graphics/SVG/1.1/DTD/svg11.dtd">
<svg version="1.1" id="Layer_1" xmlns="http://www.w3.org/2000/svg" xmlns:xlink="http://www.w3.org/1999/xlink" x="0px" y="0px"
	 width="24px" height="24px" viewBox="0 0 24 24" enable-background="new 0 0 24 24" xml:space="preserve">
<g>
	<path fill-rule="evenodd" clip-rule="evenodd" fill="#008FD3" d="M15.416,17.99c-4.005,0-7.962,0-11.941,0
		c0.063-0.206,0.201-0.356,0.313-0.516c1.478-2.115,2.96-4.228,4.441-6.341c0.357-0.51,0.718-1.019,1.067-1.534
		c0.104-0.153,0.159-0.163,0.27-0.002c1.036,1.49,2.078,2.977,3.118,4.464c0.856,1.226,1.713,2.45,2.569,3.675
		C15.302,17.807,15.347,17.882,15.416,17.99z"/>
	<path fill-rule="evenodd" clip-rule="evenodd" fill="#008FD3" d="M20.087,16.282c-0.851,0-1.652,0-2.454,0
		c-0.66,0-1.319-0.006-1.979,0.005c-0.169,0.003-0.279-0.046-0.38-0.182c-0.759-1.021-1.522-2.039-2.292-3.053
		c-0.11-0.145-0.111-0.245,0-0.391c0.769-1.013,1.531-2.032,2.292-3.052c0.104-0.139,0.165-0.189,0.29-0.005
		c1.456,2.153,2.92,4.301,4.381,6.451C19.984,16.114,20.019,16.173,20.087,16.282z"/>
	<path fill-rule="evenodd" clip-rule="evenodd" fill="#666666" d="M4.783,21.421c-0.569-0.035-1.267,0.065-1.958-0.051
		C1.216,21.1,0.011,19.673,0.01,18.047c0-0.526,0.004-1.053-0.003-1.579c-0.002-0.151,0.02-0.227,0.2-0.222
		c0.446,0.013,0.892,0.009,1.337,0.002c0.142-0.002,0.184,0.047,0.181,0.185c-0.006,0.464-0.004,0.928-0.002,1.392
		c0.006,1.178,0.707,1.879,1.885,1.883c1.008,0.003,2.016,0.006,3.024-0.004c0.191-0.003,0.24,0.052,0.234,0.237
		c-0.014,0.41-0.015,0.821,0,1.231c0.007,0.194-0.038,0.26-0.246,0.254C6.05,21.411,5.479,21.421,4.783,21.421z"/>
	<path fill-rule="evenodd" clip-rule="evenodd" fill="#666666" d="M19.081,21.421c-0.58,0-1.16-0.007-1.74,0.004
		c-0.169,0.003-0.21-0.049-0.206-0.212c0.011-0.418,0.014-0.838-0.001-1.257c-0.007-0.194,0.039-0.257,0.246-0.254
		c0.989,0.012,1.98,0.006,2.97,0.005c1.229-0.001,1.924-0.693,1.927-1.921c0.001-0.446,0.005-0.892-0.003-1.338
		c-0.003-0.148,0.037-0.204,0.193-0.201c0.446,0.009,0.892,0.004,1.338,0.003c0.106-0.001,0.192,0.001,0.187,0.149
		c-0.029,0.747,0.067,1.5-0.058,2.243c-0.264,1.568-1.708,2.776-3.302,2.778C20.115,21.421,19.598,21.421,19.081,21.421z"/>
	<path fill-rule="evenodd" clip-rule="evenodd" fill="#666666" d="M5.01,4.298c-0.535,0-1.071-0.016-1.605,0.004
		C2.46,4.335,1.767,5.033,1.731,5.977C1.713,6.486,1.717,6.995,1.728,7.502c0.003,0.181-0.055,0.224-0.226,0.219
		C1.065,7.71,0.627,7.718,0.191,7.717c-0.085,0-0.188,0.026-0.181-0.121c0.04-0.826-0.101-1.66,0.108-2.478
		c0.38-1.483,1.747-2.539,3.28-2.539C4.47,2.579,5.54,2.583,6.61,2.576c0.188-0.002,0.267,0.028,0.257,0.242
		C6.848,3.245,6.855,3.674,6.865,4.102C6.868,4.255,6.82,4.297,6.668,4.295C6.116,4.288,5.563,4.292,5.01,4.292
		C5.01,4.294,5.01,4.296,5.01,4.298z"/>
	<path fill-rule="evenodd" clip-rule="evenodd" fill="#666666" d="M18.984,4.292c-0.536,0-1.071-0.007-1.606,0.004
		c-0.175,0.004-0.252-0.027-0.245-0.228c0.017-0.437,0.01-0.874,0.002-1.312c-0.002-0.14,0.04-0.182,0.181-0.181
		c1.168,0.005,2.338-0.021,3.505,0.01c1.66,0.042,3.151,1.589,3.168,3.249c0.006,0.563-0.003,1.124,0.004,1.687
		c0.001,0.145-0.031,0.203-0.189,0.199c-0.446-0.01-0.892-0.01-1.338,0c-0.157,0.004-0.194-0.05-0.192-0.197
		C22.281,7.015,22.286,6.506,22.269,6c-0.033-0.975-0.729-1.669-1.707-1.7c-0.525-0.017-1.053-0.003-1.579-0.003
		C18.984,4.294,18.984,4.294,18.984,4.292z"/>
	<path fill-rule="evenodd" clip-rule="evenodd" fill="#4FB81C" d="M20.571,7.732c-0.002,0.971-0.753,1.706-1.741,1.705
		c-0.966-0.001-1.682-0.756-1.704-1.746c-0.019-0.861,0.788-1.735,1.759-1.699C19.833,6.027,20.571,6.759,20.571,7.732z"/>
</g>
</svg>
