<?xml version="1.0" encoding="utf-8"?>
<!-- Generator: Adobe Illustrator 16.0.0, SVG Export Plug-In . SVG Version: 6.00 Build 0)  -->
<!DOCTYPE svg PUBLIC "-//W3C//DTD SVG 1.1//EN" "http://www.w3.org/Graphics/SVG/1.1/DTD/svg11.dtd">
<svg version="1.1" id="Layer_1" xmlns="http://www.w3.org/2000/svg" xmlns:xlink="http://www.w3.org/1999/xlink" x="0px" y="0px"
	 width="24px" height="24px" viewBox="0 0 24 24" enable-background="new 0 0 24 24" xml:space="preserve">
<g>
	<path fill-rule="evenodd" clip-rule="evenodd" fill="#666666" d="M23.083,0.833h-15c-0.552,0-1.035,0.447-1.035,1v3.305
		c0.807,0,1.345,0,1.883,0V4.083c0-0.552,0.062-0.828,0.614-0.828h12.076c0.552,0,0.495,0.276,0.495,0.828v1
		c0,0.552,0.057,1.131-0.495,1.131h-7.808c0,0.269,0,0.27,0.001,1.077h7.807c0.552,0,0.495,0.221,0.495,0.772v1.27
		c0,0.552,0.057,1.187-0.495,1.187h-9.48c-0.354,0.269-1.112,1.077-1.112,1.077h10.592c0.552,0,0.495,0.435,0.495,0.987v1
		c0,0.552,0.057,0.973-0.495,0.973H9.545c-0.494,0-0.363-0.345-0.445-0.814c-0.325,0.367-0.593,0.68-0.77,0.884
		c-0.1,0.116-0.159,0.238-0.158,0.404c0.008,1.697-0.008,2.729-0.002,4.425c0.001,0.163-0.043,0.201-0.198,0.199
		c-0.302-0.004-0.655,0.001-0.924,0.001v2.511c0,0.553,0.483,1,1.035,1h15c0.552,0,0.916-0.448,0.916-1V1.833
		C24,1.281,23.635,0.833,23.083,0.833z"/>
	<path fill-rule="evenodd" clip-rule="evenodd" fill="#FFFFFF" d="M9.083,20.167c0,0.552,0.448,1,1,1h11c0.552,0,1-0.448,1-1v-1
		c0-0.552-0.448-1-1-1h-11c-0.552,0-1,0.449-1,1V20.167z"/>
	<g>
		<path fill-rule="evenodd" clip-rule="evenodd" fill="#008FD3" d="M6.407,5.92c-2.08,0-4.16,0.001-6.24-0.003
			c-0.129,0-0.17,0.03-0.167,0.164c0.008,0.524,0.004,1.049,0.002,1.574c0,0.07,0.014,0.125,0.063,0.182
			c0.379,0.439,0.754,0.882,1.131,1.323c0.495,0.578,0.988,1.157,1.483,1.734c0.427,0.498,0.857,0.995,1.284,1.494
			c0.489,0.57,0.976,1.144,1.468,1.711c0.059,0.069,0.071,0.138,0.071,0.222c-0.001,1.417,0.002,2.834-0.005,4.251
			c0,0.15,0.044,0.179,0.184,0.177c0.496-0.008,0.993-0.008,1.489,0c0.128,0.001,0.167-0.03,0.167-0.164
			c-0.005-1.407-0.001-2.815-0.007-4.222c0-0.137,0.044-0.236,0.127-0.333c0.776-0.901,1.552-1.802,2.327-2.706
			c0.827-0.964,1.651-1.932,2.477-2.897c0.155-0.181,0.313-0.358,0.472-0.536c0.065-0.074,0.102-0.15,0.101-0.255
			c-0.005-0.515-0.007-1.031,0.001-1.545c0.002-0.136-0.03-0.176-0.171-0.175C10.577,5.921,8.493,5.92,6.407,5.92z"/>
	</g>
	<path fill-rule="evenodd" clip-rule="evenodd" fill="#4FB81C" d="M9.627,19.999c0,0.366,0.223,0.664,0.497,0.664h10.919
		c0.274,0,0.497-0.297,0.497-0.664v-0.663c0-0.367-0.223-0.664-0.497-0.664H10.124c-0.274,0-0.497,0.297-0.497,0.664V19.999z"/>
</g>
</svg>
