<?xml version="1.0" encoding="utf-8"?>
<!-- Generator: Adobe Illustrator 16.0.0, SVG Export Plug-In . SVG Version: 6.00 Build 0)  -->
<!DOCTYPE svg PUBLIC "-//W3C//DTD SVG 1.1//EN" "http://www.w3.org/Graphics/SVG/1.1/DTD/svg11.dtd">
<svg version="1.1" id="Layer_1" xmlns="http://www.w3.org/2000/svg" xmlns:xlink="http://www.w3.org/1999/xlink" x="0px" y="0px"
	 width="24px" height="24px" viewBox="0 0 24 24" enable-background="new 0 0 24 24" xml:space="preserve">
<g>
	<path fill-rule="evenodd" clip-rule="evenodd" fill="#666666" d="M0.006,11.974C0.006,8.091,0.008,4.209,0,0.328
		C0,0.073,0.058,0,0.32,0c7.782,0.007,15.564,0.007,23.347-0.001C23.945-0.001,24,0.077,24,0.341
		c-0.007,7.773-0.007,15.546,0,23.319c0,0.265-0.056,0.342-0.333,0.341c-7.783-0.008-15.564-0.008-23.347,0
		c-0.265,0-0.32-0.075-0.32-0.329C0.008,19.773,0.006,15.874,0.006,11.974z M12.001,22.282c3.328,0,6.657-0.002,9.985,0.005
		c0.23,0,0.301-0.05,0.301-0.293c-0.007-6.657-0.008-13.313,0-19.97c0-0.255-0.079-0.306-0.316-0.306
		c-6.647,0.006-13.295,0.006-19.943,0c-0.24,0-0.314,0.056-0.314,0.308c0.008,6.647,0.008,13.295,0,19.943
		c0,0.267,0.078,0.319,0.329,0.318C5.361,22.278,8.682,22.282,12.001,22.282z"/>
	<path fill-rule="evenodd" clip-rule="evenodd" fill="#FEFEFE" d="M10.27,20.552c0.101-0.045,0.13-0.135,0.179-0.206
		c3.047-4.429,6.093-8.858,9.143-13.286c0.102-0.148,0.108-0.241-0.005-0.39c-0.762-1-1.519-2.005-2.264-3.018
		c-0.147-0.2-0.205-0.21-0.35,0.007c-2.169,3.269-4.35,6.531-6.521,9.799c-0.124,0.186-0.19,0.235-0.393,0.071
		c-1.286-1.047-2.587-2.077-3.881-3.115c-0.111-0.089-0.18-0.149-0.27,0.033c-0.515,1.047-1.038,2.09-1.564,3.132
		c-0.052,0.104-0.039,0.169,0.037,0.256c1.93,2.199,3.855,4.401,5.783,6.602C10.198,20.478,10.234,20.515,10.27,20.552z"/>
	<path fill-rule="evenodd" clip-rule="evenodd" fill="#008FD3" d="M10.27,20.552c-0.035-0.037-0.071-0.074-0.104-0.113
		c-1.928-2.201-3.854-4.403-5.783-6.602c-0.076-0.087-0.089-0.151-0.037-0.256c0.526-1.042,1.05-2.084,1.564-3.132
		c0.09-0.183,0.158-0.122,0.27-0.033c1.294,1.038,2.595,2.067,3.881,3.115c0.202,0.164,0.269,0.115,0.393-0.071
		c2.171-3.268,4.352-6.53,6.521-9.799c0.145-0.218,0.202-0.208,0.35-0.007c0.745,1.013,1.502,2.017,2.264,3.018
		c0.113,0.149,0.106,0.242,0.005,0.39c-3.05,4.427-6.096,8.856-9.143,13.286C10.399,20.417,10.37,20.506,10.27,20.552z"/>
</g>
</svg>
