<?xml version="1.0" encoding="utf-8"?>
<!-- Generator: Adobe Illustrator 16.0.0, SVG Export Plug-In . SVG Version: 6.00 Build 0)  -->
<!DOCTYPE svg PUBLIC "-//W3C//DTD SVG 1.1//EN" "http://www.w3.org/Graphics/SVG/1.1/DTD/svg11.dtd">
<svg version="1.1" id="Layer_1" xmlns="http://www.w3.org/2000/svg" xmlns:xlink="http://www.w3.org/1999/xlink" x="0px" y="0px"
	 width="24px" height="24px" viewBox="0 0 24 24" enable-background="new 0 0 24 24" xml:space="preserve">
<g>
	<path fill-rule="evenodd" clip-rule="evenodd" fill="#008FD3" d="M12.041,0.014c3.07,0,6.139,0.007,9.206-0.01
		c0.403-0.001,0.545,0.091,0.561,0.514c0.055,1.691,0.151,3.381,0.232,5.073c0.008,0.177-0.013,0.335-0.248,0.309
		c-0.183-0.022-0.454,0.12-0.477-0.244c-0.01-0.176-0.057-0.351-0.086-0.527c-0.354-2.135-1.781-3.366-3.946-3.385
		c-0.997-0.008-1.998,0.022-2.997-0.012c-0.438-0.015-0.565,0.102-0.565,0.555c0.018,4.568,0.003,9.133,0.016,13.701
		c0.007,1.766-0.047,3.531,0.071,5.295c0.099,1.45,0.835,1.924,2.174,2.052c0.229,0.022,0.464,0.028,0.695,0.014
		c0.256-0.014,0.39,0.039,0.384,0.343c-0.006,0.29-0.144,0.306-0.368,0.306c-3.191-0.003-6.387-0.003-9.581,0.001
		c-0.242,0-0.349-0.052-0.348-0.322c0.001-0.266,0.096-0.333,0.344-0.329c0.409,0.008,0.817,0.002,1.225-0.079
		c1.08-0.214,1.617-0.773,1.757-1.855c0.082-0.656,0.106-1.315,0.106-1.976c0.001-5.71-0.006-11.42,0.014-17.127
		c0.001-0.492-0.139-0.6-0.598-0.578C8.457,1.792,7.299,1.742,6.138,1.786C4.23,1.856,3.205,3.277,2.854,4.652
		C2.783,4.929,2.717,5.214,2.713,5.497C2.709,5.822,2.595,5.918,2.271,5.913C1.868,5.905,1.967,5.641,1.977,5.434
		c0.071-1.602,0.168-3.203,0.225-4.807C2.219,0.171,2.322-0.004,2.834,0C5.902,0.028,8.972,0.014,12.041,0.014z"/>
</g>
</svg>
