<?xml version="1.0" encoding="utf-8"?>
<!-- Generator: Adobe Illustrator 16.0.0, SVG Export Plug-In . SVG Version: 6.00 Build 0)  -->
<!DOCTYPE svg PUBLIC "-//W3C//DTD SVG 1.1//EN" "http://www.w3.org/Graphics/SVG/1.1/DTD/svg11.dtd">
<svg version="1.1" xmlns="http://www.w3.org/2000/svg" xmlns:xlink="http://www.w3.org/1999/xlink" x="0px" y="0px" width="24px"
	 height="24px" viewBox="0 0 24 24" enable-background="new 0 0 24 24" xml:space="preserve">
<g id="Layout">
</g>
<g id="icons">
	<g>
		<path fill-rule="evenodd" clip-rule="evenodd" fill="#666666" d="M10.238,20.568H4.421c-0.276,0-0.5-0.224-0.5-0.5v-3.583
			c0-0.276,0.224-0.5,0.5-0.5h5.817v-1.542H4.421c-0.276,0-0.5-0.224-0.5-0.5V10.36c0-0.276,0.224-0.5,0.5-0.5h10.5
			c0.276,0,0.5,0.224,0.5,0.5v3.583c0,0.276-0.224,0.5-0.5,0.5h-0.558v0.64h2.224V3.209c0-0.553-0.448-1-1-1H3.754
			c-0.552,0-1,0.447-1,1V20.79c0,0.553,0.448,1,1,1h6.484V20.568z M3.837,4.235c0-0.276,0.224-0.5,0.5-0.5h10.5
			c0.276,0,0.5,0.224,0.5,0.5v3.583c0,0.276-0.224,0.5-0.5,0.5h-10.5c-0.276,0-0.5-0.224-0.5-0.5V4.235z"/>
		<g>
			<rect x="10.911" y="14.173" fill="#008FD3" width="2.795" height="7.617"/>
			<rect x="14.706" y="15.696" fill="#4FB81C" width="2.77" height="6.094"/>
			<rect x="18.499" y="11.126" fill="#666666" width="2.748" height="10.664"/>
		</g>
		<path fill-rule="evenodd" clip-rule="evenodd" fill="#4FB81C" d="M10.911,5.244c0,0.276-0.224,0.5-0.5,0.5H4.995
			c-0.276,0-0.5-0.224-0.5-0.5v-0.25c0-0.276,0.224-0.5,0.5-0.5h5.417c0.276,0,0.5,0.224,0.5,0.5V5.244z"/>
		<path fill-rule="evenodd" clip-rule="evenodd" fill="#4FB81C" d="M10.911,11.338c0,0.276-0.224,0.5-0.5,0.5H4.995
			c-0.276,0-0.5-0.224-0.5-0.5v-0.25c0-0.276,0.224-0.5,0.5-0.5h5.417c0.276,0,0.5,0.224,0.5,0.5V11.338z"/>
	</g>
</g>
</svg>
