<?xml version="1.0" encoding="utf-8"?>
<!-- Generator: Adobe Illustrator 16.0.0, SVG Export Plug-In . SVG Version: 6.00 Build 0)  -->
<!DOCTYPE svg PUBLIC "-//W3C//DTD SVG 1.1//EN" "http://www.w3.org/Graphics/SVG/1.1/DTD/svg11.dtd">
<svg version="1.1" id="Layer_1" xmlns="http://www.w3.org/2000/svg" xmlns:xlink="http://www.w3.org/1999/xlink" x="0px" y="0px"
	 width="24px" height="24px" viewBox="0 0 24 24" enable-background="new 0 0 24 24" xml:space="preserve">
<g>
	<g>
		<path fill-rule="evenodd" clip-rule="evenodd" fill="#008FD3" d="M5.25,9.933c0.89,0,1.779,0.002,2.668-0.002
			c0.117,0,0.158,0.026,0.163,0.149c0.016,0.49,0.044,0.98,0.067,1.471c0.002,0.051-0.004,0.098-0.072,0.089
			c-0.053-0.006-0.132,0.035-0.138-0.07c-0.003-0.051-0.017-0.102-0.025-0.153c-0.103-0.62-0.517-0.977-1.144-0.981
			c-0.289-0.002-0.58,0.006-0.869-0.003c-0.127-0.004-0.164,0.03-0.163,0.161c0.004,1.324,0,2.648,0.004,3.972
			c0.002,0.512-0.014,1.023,0.021,1.535c0.029,0.42,0.242,0.557,0.631,0.595c0.066,0.006,0.135,0.007,0.202,0.004
			c0.074-0.004,0.112,0.011,0.111,0.099c-0.002,0.084-0.042,0.089-0.106,0.089c-0.925-0.001-1.852-0.001-2.777,0
			c-0.07,0-0.102-0.015-0.101-0.093c0-0.076,0.028-0.096,0.1-0.095c0.119,0.002,0.237,0.001,0.355-0.023
			c0.313-0.063,0.469-0.224,0.509-0.538c0.024-0.19,0.031-0.381,0.031-0.573c0-1.655-0.001-3.311,0.004-4.966
			c0-0.142-0.041-0.173-0.173-0.167c-0.335,0.017-0.671,0.002-1.007,0.015c-0.553,0.021-0.851,0.433-0.953,0.832
			c-0.021,0.08-0.04,0.163-0.041,0.244c0,0.095-0.034,0.123-0.127,0.121c-0.117-0.002-0.088-0.079-0.086-0.139
			c0.021-0.465,0.049-0.928,0.065-1.394c0.005-0.132,0.035-0.183,0.183-0.182C3.47,9.938,4.361,9.933,5.25,9.933z"/>
	</g>
	<path fill-rule="evenodd" clip-rule="evenodd" fill="#666666" d="M24,7.283c0-0.127-0.029-0.169-0.164-0.169
		C20.686,7.117,4.523,7.117,0.524,7.115c-0.186,0-0.32-0.001-0.393-0.001c-0.127,0-0.13,0.062-0.129,0.139
		C0.002,7.259,0,7.263,0,7.271c0.004,0.447,0.002,0.894,0.002,1.341c0,2.136,0.001,4.272-0.002,6.409
		c0,0.127,0.029,0.169,0.164,0.169c0.617,0,2.251-0.001,3.678-0.001V14.17l-2.688,0.002c-0.107,0-0.145-0.019-0.145-0.132
		l0.003-5.763C1.01,8.264,1.012,8.255,1.011,8.244c0-0.041,0.03-0.077,0.03-0.077s0.055-0.008,0.109-0.008l21.696-0.027
		c0.107,0,0.145,0.022,0.145,0.136c-0.003,1.81-0.002,3.618,0,5.427c-0.024,0.101-0.027,0.209-0.003,0.333
		c0.003,0.013,0.001,0.021,0.002,0.032c-0.001,0.041-0.008,0.071-0.025,0.09c-0.023,0.02-0.06,0-0.115,0L6.932,14.167v1.021
		c5.995-0.001,13.91,0,16.544,0.001c0.185,0,0.319,0,0.392,0.001c0.127,0.001,0.13-0.062,0.129-0.138
		C23.999,15.045,24,15.04,24,15.032c-0.004-0.447-0.002-0.894-0.002-1.341C23.998,11.555,23.997,9.419,24,7.283z"/>
</g>
</svg>
