<?xml version="1.0" encoding="utf-8"?>
<!-- Generator: Adobe Illustrator 16.0.0, SVG Export Plug-In . SVG Version: 6.00 Build 0)  -->
<!DOCTYPE svg PUBLIC "-//W3C//DTD SVG 1.1//EN" "http://www.w3.org/Graphics/SVG/1.1/DTD/svg11.dtd">
<svg version="1.1" xmlns="http://www.w3.org/2000/svg" xmlns:xlink="http://www.w3.org/1999/xlink" x="0px" y="0px" width="24px"
	 height="24px" viewBox="0 0 24 24" enable-background="new 0 0 24 24" xml:space="preserve">
<g id="Layout">
</g>
<g id="icons">
	<g>
		<path fill-rule="evenodd" clip-rule="evenodd" fill="#5DBE24" d="M15.427,19.946l-8.573,0.006v-0.26l0.001-10.63L6.854,8.815
			h16.905H24v10.876v0.261L15.427,19.946L15.427,19.946L15.427,19.946z M10.317,10.41l-1.54-0.003l-0.184,0.177v2.831l0.184,0.177
			h3.055l0.196-0.189v-2.806l-0.196-0.19L10.317,10.41L10.317,10.41L10.317,10.41z M15.433,10.41l-1.54-0.003l-0.183,0.177v2.831
			l0.183,0.177h3.055l0.197-0.189v-2.806l-0.197-0.19L15.433,10.41L15.433,10.41L15.433,10.41z M20.539,13.589l1.516,0.004
			l0.205-0.206l-0.001-2.781l-0.186-0.2l-3.056,0.001L18.825,10.6l-0.001,2.781l0.226,0.212L20.539,13.589L20.539,13.589
			L20.539,13.589z M10.321,15.179l-1.515-0.004l-0.214,0.198l0.001,2.781l0.204,0.207h3.029l0.2-0.212v-2.78l-0.191-0.194
			L10.321,15.179L10.321,15.179L10.321,15.179z M15.414,18.357l1.515,0.003l0.216-0.196l-0.002-2.806l-0.177-0.184h-3.079
			l-0.177,0.184l-0.001,2.806l0.216,0.195L15.414,18.357L15.414,18.357L15.414,18.357z M20.534,18.357l1.515,0.003l0.212-0.199
			L22.26,15.38l-0.206-0.205l-3.029,0.002l-0.199,0.186v2.806l0.194,0.192L20.534,18.357L20.534,18.357L20.534,18.357z"/>
		<polygon fill-rule="evenodd" clip-rule="evenodd" fill="#666666" points="6.854,7.234 1.737,7.234 1.737,7.234 1.737,21.294 
			2.005,21.54 18.835,21.54 18.835,21.829 18.834,22.871 18.835,23.131 10.732,23.126 9.391,23.126 9.391,23.126 9.391,23.126 
			0,23.131 0,22.846 0.001,6.68 0.027,6.444 2.073,4.512 4.171,2.563 5.993,0.879 6.231,0.874 15.941,0.873 18.835,0.87 
			18.833,1.072 18.832,7.031 18.824,7.243 17.145,7.244 17.137,7.005 17.146,2.734 16.871,2.466 6.854,2.465 6.854,2.749 		"/>
	</g>
</g>
</svg>
