<?xml version="1.0" encoding="utf-8"?>
<!-- Generator: Adobe Illustrator 16.0.0, SVG Export Plug-In . SVG Version: 6.00 Build 0)  -->
<!DOCTYPE svg PUBLIC "-//W3C//DTD SVG 1.1//EN" "http://www.w3.org/Graphics/SVG/1.1/DTD/svg11.dtd">
<svg version="1.1" xmlns="http://www.w3.org/2000/svg" xmlns:xlink="http://www.w3.org/1999/xlink" x="0px" y="0px" width="24px"
	 height="24px" viewBox="0 0 24 24" enable-background="new 0 0 24 24" xml:space="preserve">
<g id="Layout">
</g>
<g id="icons">
	<g>
		<g>
			<path fill="none" d="M11.955,3.881L5.91,2.731c-0.044,0-0.088,0.006-0.131,0C5.626,2.708,5.584,2.768,5.585,2.92
				c0.006,1.258,0,2.516,0.008,3.773c0.001,0.178-0.037,0.231-0.224,0.23c-1.243-0.01-2.486-0.002-3.729-0.01
				c-0.181,0-0.246,0.028-0.245,0.233c0.007,4.034,0.006,8.07,0.001,12.103c-0.001,0.176,0.222,0.23,0.222,0.23"/>
			<path fill="none" d="M22.117,19.384l0.245-0.057c0.176,0,0.229-0.033,0.229-0.223c-0.006-3.348-0.013-12.158-0.008-16.22
				c-0.015-0.102-0.067-0.137-0.215-0.137L11.955,3.881"/>
			<path fill="#666666" d="M4.396,1.315c-0.151,0-0.258,0.053-0.362,0.158C2.745,2.775,1.45,4.075,0.154,5.37
				C0.048,5.475,0.001,5.579,0.001,5.73c0.004,2.479,0.003,4.959,0.003,7.438c0,2.485,0.002,4.973-0.005,7.459
				c0,0.193,0.253,0.25,0.253,0.25l11.716,1.826v-1.396L1.625,19.481c0,0-0.226-0.055-0.225-0.23
				c0.004-4.033,0.004-8.069-0.003-12.103C1.396,6.943,1.46,6.915,1.641,6.915c1.243,0.008,2.486,0,3.729,0.01
				c0.186,0.001,0.224-0.053,0.223-0.23C5.585,5.436,5.591,4.178,5.585,2.92c0-0.152,0.042-0.213,0.194-0.189
				c0.043,0.006,0.095,0,0.138,0l6.052,1.15V2.679"/>
			<path fill="#666666" d="M11.955,2.642v1.239l10.413-1.134c0.148,0,0.2,0.035,0.215,0.137c-0.005,4.063,0.002,12.921,0.008,16.271
				c0,0.186-0.064,0.326-0.24,0.326h-0.234c-1.926,0-10.162,1.826-10.162,1.826v1.396l10.642-1.832l1.221,0.004
				c0,0,0.181-0.014,0.179-0.162l-0.021-0.016c0.008-0.031,0.012-0.072,0.012-0.123L24,1.573c0-0.193-0.048-0.277-0.251-0.277"/>
		</g>
		<g>
			<rect x="11.53" y="5.16" fill="#008FD3" width="0.85" height="0.915"/>
			<path fill="#008FD3" d="M12.379,17.062h-0.85v-1.832h0.85V17.062z M12.379,13.399h-0.85v-1.831h0.85V13.399z M12.379,9.737h-0.85
				v-1.83h0.85V9.737z"/>
			<rect x="11.53" y="18.892" fill="#008FD3" width="0.85" height="0.916"/>
		</g>
	</g>
</g>
</svg>
