<?xml version="1.0" encoding="utf-8"?>
<!-- Generator: Adobe Illustrator 16.0.0, SVG Export Plug-In . SVG Version: 6.00 Build 0)  -->
<!DOCTYPE svg PUBLIC "-//W3C//DTD SVG 1.1//EN" "http://www.w3.org/Graphics/SVG/1.1/DTD/svg11.dtd">
<svg version="1.1" id="Layer_1" xmlns="http://www.w3.org/2000/svg" xmlns:xlink="http://www.w3.org/1999/xlink" x="0px" y="0px"
	 width="24px" height="24px" viewBox="0 0 24 24" enable-background="new 0 0 24 24" xml:space="preserve">
<g>
	<path fill="#666666" d="M10.675,18.187h-2.35L7.54,15.632H3.31l-0.794,2.555H0.209L4.301,5.662h2.367L10.675,18.187z M6.95,13.659
		C6.283,11.522,5.773,9.842,5.42,8.618c-0.325,1.236-0.82,2.917-1.486,5.041H6.95z"/>
	<path fill="#008FD3" d="M13.103,12.462c0.492-0.598,1.159-0.897,2.001-0.897c0.793,0,1.429,0.291,1.907,0.873
		c0.478,0.582,0.717,1.397,0.717,2.447c0,1.074-0.244,1.918-0.732,2.532c-0.488,0.614-1.115,0.921-1.879,0.921
		c-0.883,0-1.574-0.368-2.075-1.104h-0.024v0.952h-1.453V9.24h1.538V12.462z M14.701,17.1c0.46,0,0.815-0.181,1.065-0.543
		c0.25-0.362,0.375-0.893,0.375-1.593c0-1.477-0.5-2.215-1.501-2.215c-0.484,0-0.861,0.179-1.132,0.537s-0.406,0.863-0.406,1.514
		c0,0.496,0.075,0.913,0.226,1.251c0.15,0.337,0.352,0.597,0.604,0.778C14.185,17.01,14.441,17.1,14.701,17.1z"/>
	<path fill="#4FB81C" d="M23.792,16.429c-0.172,0.612-0.474,1.078-0.903,1.398c-0.429,0.321-0.965,0.481-1.606,0.481
		c-0.823,0-1.461-0.261-1.914-0.784c-0.453-0.522-0.679-1.164-0.679-1.926c0-0.778,0.228-1.424,0.684-1.938
		c0.456-0.515,1.102-0.771,1.938-0.771c0.622,0,1.14,0.145,1.555,0.435c0.415,0.29,0.701,0.693,0.857,1.21l-1.284,0.234
		c-0.059-0.27-0.188-0.49-0.386-0.659c-0.199-0.169-0.439-0.254-0.723-0.254c-0.423,0-0.758,0.152-1.003,0.457
		c-0.246,0.305-0.369,0.699-0.369,1.184c0,0.586,0.118,1.031,0.354,1.335c0.236,0.305,0.582,0.457,1.038,0.457
		c0.299,0,0.55-0.098,0.752-0.293c0.202-0.195,0.338-0.458,0.41-0.791L23.792,16.429z"/>
</g>
</svg>
