<?xml version="1.0" encoding="utf-8"?>
<!-- Generator: Adobe Illustrator 16.0.0, SVG Export Plug-In . SVG Version: 6.00 Build 0)  -->
<!DOCTYPE svg PUBLIC "-//W3C//DTD SVG 1.1//EN" "http://www.w3.org/Graphics/SVG/1.1/DTD/svg11.dtd">
<svg version="1.1" id="Layer_1" xmlns="http://www.w3.org/2000/svg" xmlns:xlink="http://www.w3.org/1999/xlink" x="0px" y="0px"
	 width="24px" height="24px" viewBox="0 0 24 24" enable-background="new 0 0 24 24" xml:space="preserve">
<g>
	<path fill-rule="evenodd" clip-rule="evenodd" fill="#666666" d="M23.215,8.861H13.079c-0.753,0.88-1.505,1.763-2.259,2.643
		c-0.753,0.878-1.508,1.755-2.263,2.631c-0.08,0.094-0.124,0.189-0.124,0.323c0.003,0.576,0.003,1.152,0.004,1.729h14.777
		c0.434,0,0.785-0.352,0.785-0.785V9.645C24,9.211,23.648,8.861,23.215,8.861z"/>
	<g>
		<path fill-rule="evenodd" clip-rule="evenodd" fill="#008FD3" d="M6.23,5.764c-2.022,0-4.045,0.001-6.067-0.003
			c-0.125,0-0.165,0.03-0.163,0.16c0.007,0.51,0.003,1.021,0.002,1.531c0,0.068,0.014,0.122,0.061,0.176
			c0.369,0.427,0.733,0.858,1.1,1.287c0.481,0.563,0.961,1.125,1.442,1.687c0.416,0.484,0.833,0.967,1.248,1.452
			c0.476,0.555,0.949,1.112,1.427,1.665c0.058,0.067,0.069,0.134,0.069,0.216c-0.001,1.377,0.001,2.755-0.005,4.133
			c-0.001,0.147,0.043,0.174,0.178,0.173c0.482-0.008,0.965-0.008,1.447,0c0.125,0.002,0.163-0.029,0.163-0.159
			c-0.005-1.369-0.001-2.737-0.007-4.106c-0.001-0.133,0.043-0.229,0.124-0.323c0.754-0.876,1.509-1.752,2.262-2.631
			c0.804-0.938,1.605-1.878,2.408-2.817c0.15-0.176,0.304-0.349,0.459-0.521c0.063-0.071,0.099-0.146,0.098-0.248
			c-0.005-0.5-0.006-1.002,0.001-1.502c0.002-0.132-0.029-0.17-0.166-0.17C10.284,5.766,8.257,5.764,6.23,5.764z"/>
	</g>
</g>
</svg>
