<?xml version="1.0" encoding="utf-8"?>
<!-- Generator: Adobe Illustrator 16.0.0, SVG Export Plug-In . SVG Version: 6.00 Build 0)  -->
<!DOCTYPE svg PUBLIC "-//W3C//DTD SVG 1.1//EN" "http://www.w3.org/Graphics/SVG/1.1/DTD/svg11.dtd">
<svg version="1.1" xmlns="http://www.w3.org/2000/svg" xmlns:xlink="http://www.w3.org/1999/xlink" x="0px" y="0px" width="24px"
	 height="24px" viewBox="0 0 24 24" enable-background="new 0 0 24 24" xml:space="preserve">
<g id="Layout">
</g>
<g id="icons">
	<g>
		<g>
			<path fill-rule="evenodd" clip-rule="evenodd" fill="#666666" d="M11.477,10.847c-3.002,0-3.672-0.002-6.672,0.003
				c-0.266,0.002-0.316-0.038-0.313-0.174c0.014-0.575,0.011-1.148,0.002-1.725C4.492,8.851,4.538,8.818,4.733,8.819
				c6.062,0.003,8.233,0.003,14.294-0.001c0.198,0,0.24,0.035,0.237,0.134c-0.008,0.581-0.011,1.161,0.002,1.74
				c0.001,0.12-0.051,0.157-0.285,0.156C15.962,10.845,14.496,10.847,11.477,10.847z"/>
			<path fill-rule="evenodd" clip-rule="evenodd" fill="#666666" d="M11.504,12.872c3.001,0,4.447,0.002,7.449-0.004
				c0.261-0.001,0.319,0.037,0.314,0.174c-0.014,0.573-0.01,1.149-0.002,1.724c0.002,0.1-0.04,0.133-0.237,0.133
				c-6.061-0.003-8.233-0.003-14.294,0c-0.195,0-0.241-0.031-0.239-0.133c0.009-0.579,0.014-1.16-0.003-1.739
				c-0.004-0.142,0.089-0.158,0.313-0.157C7.815,12.873,8.494,12.872,11.504,12.872z"/>
			<path fill-rule="evenodd" clip-rule="evenodd" fill="#008FD3" d="M14.409,22.992l6.384-6.036
				c0.044,0.023,0.014,0.069,0.014,0.106c0.001,1.929,0.001,3.857,0.003,5.789c0,0.095-0.003,0.148-0.169,0.148
				C18.068,22.995,16.981,22.992,14.409,22.992C14.388,22.992,14.438,22.994,14.409,22.992z"/>
			<path fill-rule="evenodd" clip-rule="evenodd" fill="#666666" d="M15.518,18.949l2.669-2.029c-4.226,0.002-7.673,0.003-13.455,0
				c-0.196,0-0.241,0.031-0.239,0.132c0.009,0.575,0.012,1.15-0.002,1.725c-0.003,0.136,0.048,0.175,0.313,0.173
				c3.001-0.005,3.669-0.003,6.671-0.003C13.342,18.946,15.208,18.947,15.518,18.949z"/>
		</g>
		<g>
			<g>
				<path fill-rule="evenodd" clip-rule="evenodd" fill="#5DBE24" d="M6.858,2.974c0.623,0,1.245,0.002,1.868-0.002
					c0.082,0,0.11,0.02,0.113,0.105C8.851,3.42,8.871,3.763,8.887,4.106c0.001,0.035-0.003,0.067-0.051,0.063
					C8.799,4.164,8.744,4.193,8.741,4.12C8.738,4.083,8.728,4.048,8.723,4.013C8.651,3.578,8.361,3.328,7.921,3.326
					C7.719,3.324,7.516,3.329,7.314,3.322C7.225,3.32,7.199,3.344,7.199,3.436c0.003,0.926,0,1.853,0.002,2.779
					c0.002,0.358-0.009,0.717,0.015,1.074c0.02,0.295,0.17,0.391,0.441,0.418C7.705,7.71,7.752,7.712,7.799,7.709
					c0.052-0.002,0.079,0.008,0.078,0.07C7.875,7.838,7.848,7.84,7.802,7.84c-0.648-0.001-1.296-0.001-1.944,0
					c-0.049,0-0.071-0.01-0.071-0.064c0-0.054,0.019-0.067,0.07-0.066c0.083,0.001,0.166,0,0.249-0.016
					c0.219-0.044,0.328-0.157,0.356-0.377C6.479,7.183,6.484,7.05,6.484,6.915c0-1.158-0.001-2.316,0.003-3.475
					c0-0.1-0.028-0.122-0.121-0.117c-0.234,0.012-0.47,0.003-0.705,0.011C5.273,3.348,5.065,3.637,4.994,3.916
					C4.979,3.971,4.967,4.029,4.965,4.087c0,0.065-0.024,0.085-0.089,0.084c-0.082,0-0.062-0.055-0.06-0.097
					C4.83,3.748,4.851,3.423,4.862,3.099C4.865,3.006,4.886,2.971,4.99,2.971C5.612,2.977,6.235,2.974,6.858,2.974z"/>
			</g>
			<path fill-rule="evenodd" clip-rule="evenodd" fill="#666666" d="M19.981,1.119C19.981,1.03,19.96,1,19.866,1
				C17.661,1.003,6.349,1.003,3.55,1.002C3.42,1.002,3.326,1,3.275,1c-0.089,0-0.091,0.044-0.09,0.098
				c0,0.005-0.001,0.008-0.001,0.014c0.003,0.313,0.001,0.625,0.001,0.938c0,1.495,0,2.991-0.001,4.486
				c0,0.089,0.021,0.117,0.114,0.117c0.433,0,1.576,0,2.575-0.001V5.939L3.991,5.94c-0.075,0-0.101-0.014-0.101-0.092l0.002-4.034
				C3.891,1.807,3.892,1.8,3.891,1.792c0-0.029,0.021-0.055,0.021-0.055s0.039-0.005,0.077-0.005l15.184-0.019
				c0.075,0,0.102,0.015,0.102,0.094c-0.003,1.268-0.002,2.533,0,3.799c-0.017,0.071-0.02,0.147-0.003,0.233
				c0.002,0.01,0.001,0.015,0.001,0.021c-0.001,0.029-0.005,0.051-0.018,0.064c-0.016,0.014-0.042,0-0.08,0L8.035,5.937v0.715
				c4.196-0.002,9.736,0,11.579,0.001c0.129,0,0.224,0,0.274,0c0.089,0.002,0.091-0.042,0.091-0.096
				c0-0.006,0.001-0.008,0.001-0.014c-0.003-0.313-0.002-0.626-0.001-0.939C19.979,4.109,19.979,2.615,19.981,1.119z"/>
		</g>
	</g>
</g>
</svg>
