<?xml version="1.0" encoding="utf-8"?>
<!-- Generator: Adobe Illustrator 16.0.0, SVG Export Plug-In . SVG Version: 6.00 Build 0)  -->
<!DOCTYPE svg PUBLIC "-//W3C//DTD SVG 1.1//EN" "http://www.w3.org/Graphics/SVG/1.1/DTD/svg11.dtd">
<svg version="1.1" id="Layer_1" xmlns="http://www.w3.org/2000/svg" xmlns:xlink="http://www.w3.org/1999/xlink" x="0px" y="0px"
	 width="24px" height="24px" viewBox="0 0 24 24" enable-background="new 0 0 24 24" xml:space="preserve">
<g>
	<path fill-rule="evenodd" clip-rule="evenodd" fill="#666666" d="M8.559,3.435c-2.757,0-5.515-0.004-8.271,0.006
		c-0.244,0.002-0.29-0.066-0.287-0.295c0.013-0.972,0.01-1.943,0.001-2.917c-0.001-0.171,0.041-0.225,0.22-0.224
		c5.567,0.004,11.133,0.004,16.7-0.001c0.182,0,0.22,0.058,0.218,0.226c-0.007,0.982-0.01,1.964,0.002,2.944
		c0.001,0.205-0.047,0.267-0.262,0.266C14.107,3.432,11.333,3.435,8.559,3.435z"/>
	<path fill-rule="evenodd" clip-rule="evenodd" fill="#666666" d="M8.584,6.86c2.757,0,5.513,0.004,8.271-0.006
		c0.24-0.001,0.292,0.063,0.288,0.293c-0.013,0.972-0.009,1.945-0.002,2.917c0.002,0.17-0.037,0.227-0.218,0.227
		c-5.567-0.006-11.133-0.005-16.7,0c-0.179,0-0.221-0.053-0.22-0.225C0.011,9.085,0.016,8.103,0,7.122
		c-0.004-0.24,0.081-0.267,0.288-0.266C3.053,6.862,5.819,6.86,8.584,6.86z"/>
	<path fill-rule="evenodd" clip-rule="evenodd" fill="#666666" d="M8.559,17.139c-2.757,0-5.513-0.004-8.27,0.006
		c-0.243,0.002-0.291-0.064-0.288-0.294c0.013-0.973,0.01-1.944,0.001-2.917c-0.001-0.171,0.04-0.226,0.22-0.226
		c5.567,0.006,11.133,0.006,16.699,0c0.18,0,0.221,0.057,0.219,0.226c-0.007,0.982-0.012,1.963,0.003,2.944
		c0.004,0.242-0.084,0.266-0.29,0.266C14.09,17.137,11.324,17.139,8.559,17.139z"/>
	<path fill-rule="evenodd" clip-rule="evenodd" fill="#008FD3" d="M13.758,23.981c3.412-3.411,6.809-6.808,10.212-10.21
		c0.056,0.038,0.018,0.116,0.018,0.18c0.002,3.263,0.001,6.527,0.004,9.792c0,0.161-0.004,0.253-0.217,0.253
		c-3.309-0.008-6.618-0.005-9.926-0.005C13.821,23.991,13.796,23.985,13.758,23.981z"/>
</g>
</svg>
