<?xml version="1.0" encoding="utf-8"?>
<!-- Generator: Adobe Illustrator 16.0.0, SVG Export Plug-In . SVG Version: 6.00 Build 0)  -->
<!DOCTYPE svg PUBLIC "-//W3C//DTD SVG 1.1//EN" "http://www.w3.org/Graphics/SVG/1.1/DTD/svg11.dtd">
<svg version="1.1" id="Layer_1" xmlns="http://www.w3.org/2000/svg" xmlns:xlink="http://www.w3.org/1999/xlink" x="0px" y="0px"
	 width="24px" height="24px" viewBox="0 0 24 24" enable-background="new 0 0 24 24" xml:space="preserve">
<g>
	<g>
		<path fill="#666666" d="M22.287,6.011c-0.003,5.258-0.006,10.539,0,15.771c0,0.242-0.07,0.331-0.3,0.331
			c-3.329-0.008-6.658,0.013-9.986,0.013c-3.319,0-6.639,0.008-9.958,0.017c-0.251,0-0.33-0.124-0.33-0.39
			c0.007-5.224,0.004-10.483,0.001-15.741h-1.71c0,2.165,0.002,3.858,0.002,5.75c0,3.9,0.002,7.838-0.006,11.738
			c0,0.254,0.056,0.347,0.32,0.347c7.782-0.008,15.564,0.002,23.346,0.01C23.943,23.856,24,23.708,24,23.443
			c-0.005-5.787-0.003-11.556-0.001-17.433H22.287z"/>
	</g>
	<path fill-rule="evenodd" clip-rule="evenodd" fill="#008FD3" d="M0.01,4.828C0.007,3.318,0.006,1.808,0,0.298
		c0-0.118,0.035-0.165,0.151-0.15c0.04,0.005,0.081,0.001,0.122,0.001c4.5,0,1.968,0.051,6.467,0.044
		c0.22-0.001,0.278,0.054,0.276,0.275c-0.013,1.47-0.011,2.891-0.014,4.36C6.485,4.831,5.968,4.834,5.451,4.837
		C5.354,4.834,5.256,4.829,5.159,4.829c-3.445-0.001,0.14-0.001-3.305,0c-0.098,0-0.194,0.005-0.292,0.008
		C1.044,4.834,0.527,4.831,0.01,4.828z"/>
	<path fill-rule="evenodd" clip-rule="evenodd" fill="#008FD3" d="M8.537,4.828c-0.003-1.51-0.005-3.021-0.011-4.53
		c0-0.118,0.035-0.165,0.151-0.15c0.041,0.005,0.082,0.001,0.122,0.001c4.5,0,1.968,0.051,6.467,0.044
		c0.222-0.001,0.279,0.054,0.276,0.275c-0.013,1.47-0.011,2.891-0.014,4.36c-0.517,0.003-1.034,0.006-1.551,0.009
		c-0.098-0.003-0.195-0.008-0.292-0.008c-3.445-0.001,0.14-0.001-3.305,0c-0.098,0-0.194,0.005-0.292,0.008
		C9.572,4.834,9.054,4.831,8.537,4.828z"/>
	<path fill-rule="evenodd" clip-rule="evenodd" fill="#008FD3" d="M16.995,4.828c-0.002-1.51-0.004-3.021-0.011-4.53
		c0-0.118,0.035-0.165,0.15-0.15c0.042,0.005,0.082,0.001,0.122,0.001c4.5,0,1.968,0.051,6.468,0.044
		c0.22-0.001,0.277,0.054,0.275,0.275c-0.013,1.47-0.011,2.891-0.014,4.36c-0.518,0.003-1.034,0.006-1.552,0.009
		c-0.097-0.003-0.194-0.008-0.292-0.008c-3.445-0.001,0.14-0.001-3.305,0c-0.098,0-0.194,0.005-0.292,0.008
		C18.029,4.834,17.512,4.831,16.995,4.828z"/>
</g>
</svg>
