<?xml version="1.0" encoding="utf-8"?>
<!-- Generator: Adobe Illustrator 16.0.0, SVG Export Plug-In . SVG Version: 6.00 Build 0)  -->
<!DOCTYPE svg PUBLIC "-//W3C//DTD SVG 1.1//EN" "http://www.w3.org/Graphics/SVG/1.1/DTD/svg11.dtd">
<svg version="1.1" xmlns="http://www.w3.org/2000/svg" xmlns:xlink="http://www.w3.org/1999/xlink" x="0px" y="0px" width="24px"
	 height="24px" viewBox="0 0 24 24" enable-background="new 0 0 24 24" xml:space="preserve">
<g id="Layout">
</g>
<g id="icons">
	<g>
		<path fill-rule="evenodd" clip-rule="evenodd" fill="#008FD3" d="M11.912,4.506c2.004,0,4.008,0.005,6.011-0.006
			c0.263-0.001,0.355,0.059,0.366,0.335c0.036,1.104,0.099,2.208,0.151,3.313c0.005,0.114-0.008,0.217-0.162,0.201
			c-0.119-0.015-0.296,0.077-0.311-0.16c-0.007-0.114-0.038-0.229-0.057-0.344c-0.23-1.394-1.163-2.197-2.576-2.21
			c-0.651-0.005-1.305,0.014-1.957-0.008c-0.286-0.011-0.369,0.066-0.369,0.362c0.012,2.982,0.002,5.963,0.01,8.945
			c0.005,1.152-0.031,2.306,0.046,3.457c0.064,0.945,0.545,1.256,1.419,1.34c0.15,0.015,0.304,0.018,0.454,0.01
			c0.167-0.01,0.254,0.024,0.25,0.224c-0.003,0.188-0.094,0.198-0.24,0.198c-2.083-0.001-4.169-0.001-6.255,0.002
			c-0.158,0-0.228-0.035-0.227-0.21c0-0.174,0.062-0.218,0.225-0.214c0.267,0.005,0.534,0,0.8-0.054
			c0.705-0.139,1.056-0.503,1.147-1.21c0.053-0.428,0.069-0.858,0.069-1.29c0-3.729-0.003-7.456,0.009-11.182
			c0.001-0.321-0.091-0.393-0.39-0.378C9.573,5.666,8.817,5.634,8.059,5.662C6.813,5.709,6.144,6.637,5.915,7.534
			c-0.047,0.18-0.09,0.367-0.092,0.551C5.82,8.298,5.746,8.36,5.535,8.356C5.271,8.352,5.336,8.18,5.342,8.045
			c0.046-1.046,0.11-2.092,0.147-3.139C5.5,4.607,5.567,4.494,5.902,4.497C7.905,4.516,9.909,4.506,11.912,4.506z"/>
	</g>
</g>
</svg>
