<?xml version="1.0" encoding="utf-8"?>
<!-- Generator: Adobe Illustrator 16.0.0, SVG Export Plug-In . SVG Version: 6.00 Build 0)  -->
<!DOCTYPE svg PUBLIC "-//W3C//DTD SVG 1.1//EN" "http://www.w3.org/Graphics/SVG/1.1/DTD/svg11.dtd">
<svg version="1.1" id="Layer_1" xmlns="http://www.w3.org/2000/svg" xmlns:xlink="http://www.w3.org/1999/xlink" x="0px" y="0px"
	 width="24px" height="24px" viewBox="0 0 24 24" enable-background="new 0 0 24 24" xml:space="preserve">
<g>
	<path fill-rule="evenodd" clip-rule="evenodd" fill="#666666" d="M2.757,5.542c-0.835,0-1.67-0.004-2.505,0.003
		C0.07,5.546,0.001,5.501,0.001,5.306c0.007-1.689,0.006-3.379,0.001-5.069c0-0.168,0.041-0.235,0.224-0.235
		c1.699,0.006,3.398,0.007,5.097,0c0.187-0.001,0.221,0.075,0.22,0.239C5.539,1.931,5.538,3.62,5.545,5.31
		c0.001,0.2-0.078,0.237-0.253,0.235C4.447,5.538,3.602,5.542,2.757,5.542z"/>
	<path fill-rule="evenodd" clip-rule="evenodd" fill="#666666" d="M14.709,2.788c0,0.826-0.006,1.651,0.004,2.477
		c0.002,0.205-0.041,0.283-0.267,0.282c-1.67-0.009-3.34-0.009-5.011,0C9.21,5.548,9.169,5.47,9.169,5.265
		c0.007-1.661,0.009-3.322-0.001-4.982c-0.001-0.24,0.083-0.281,0.297-0.281c1.65,0.008,3.302,0.01,4.953-0.001
		c0.25-0.001,0.3,0.082,0.296,0.312C14.701,1.137,14.709,1.963,14.709,2.788z"/>
	<path fill-rule="evenodd" clip-rule="evenodd" fill="#666666" d="M21.21,5.542c-0.826,0-1.651-0.007-2.478,0.004
		c-0.205,0.003-0.282-0.042-0.28-0.267c0.008-1.671,0.008-3.341-0.001-5.011c-0.001-0.227,0.079-0.267,0.282-0.266
		C20.396,0.009,22.056,0.011,23.716,0c0.241-0.001,0.281,0.084,0.28,0.298c-0.007,1.651-0.009,3.301,0.002,4.953
		C24,5.502,23.915,5.55,23.686,5.546C22.861,5.533,22.036,5.542,21.21,5.542z"/>
	<path fill-rule="evenodd" clip-rule="evenodd" fill="#666666" d="M0.006,11.977c0-0.826,0.007-1.652-0.005-2.477
		c-0.003-0.217,0.063-0.273,0.276-0.273c1.671,0.008,3.341,0.008,5.011,0c0.204-0.001,0.259,0.062,0.258,0.261
		c-0.007,1.67-0.008,3.341,0.001,5.011c0,0.218-0.063,0.274-0.276,0.273c-1.67-0.008-3.341-0.008-5.011,0
		c-0.204,0-0.261-0.061-0.259-0.261C0.011,13.667,0.006,12.822,0.006,11.977z"/>
	<path fill-rule="evenodd" clip-rule="evenodd" fill="#666666" d="M14.709,12.016c0,0.836-0.005,1.671,0.003,2.506
		c0.002,0.181-0.043,0.25-0.239,0.25c-1.69-0.007-3.379-0.006-5.069-0.001c-0.168,0-0.235-0.042-0.234-0.224
		c0.006-1.699,0.006-3.398,0-5.098c-0.001-0.187,0.075-0.22,0.238-0.219c1.689,0.004,3.379,0.005,5.068-0.002
		c0.2-0.001,0.237,0.078,0.235,0.254C14.706,10.327,14.709,11.171,14.709,12.016z"/>
	<path fill-rule="evenodd" clip-rule="evenodd" fill="#666666" d="M18.457,11.971c0-0.816,0.006-1.631-0.004-2.448
		c-0.003-0.214,0.042-0.298,0.281-0.296c1.661,0.01,3.321,0.01,4.982,0c0.24-0.002,0.282,0.083,0.281,0.297
		c-0.007,1.651-0.009,3.302,0.002,4.953c0.001,0.25-0.083,0.297-0.311,0.296c-1.641-0.009-3.283-0.011-4.925,0.002
		c-0.268,0.002-0.314-0.086-0.311-0.327C18.466,13.622,18.457,12.796,18.457,11.971z"/>
	<path fill-rule="evenodd" clip-rule="evenodd" fill="#666666" d="M0.006,21.226c0-0.826,0.006-1.652-0.005-2.477
		c-0.002-0.214,0.042-0.299,0.281-0.297c1.661,0.011,3.321,0.011,4.982,0c0.24-0.001,0.282,0.083,0.281,0.297
		c-0.007,1.651-0.01,3.302,0.001,4.953c0.001,0.25-0.082,0.297-0.312,0.296C3.594,23.989,1.953,23.986,0.311,24
		C0.044,24.002-0.004,23.914,0,23.673C0.014,22.857,0.006,22.041,0.006,21.226z"/>
	<path fill-rule="evenodd" clip-rule="evenodd" fill="#666666" d="M9.173,21.196c0-0.816,0.006-1.632-0.004-2.448
		c-0.002-0.215,0.043-0.298,0.281-0.297c1.662,0.011,3.322,0.011,4.983,0c0.239-0.001,0.281,0.084,0.28,0.297
		c-0.007,1.651-0.009,3.302,0.002,4.953c0.001,0.251-0.083,0.297-0.312,0.296c-1.641-0.009-3.283-0.012-4.924,0.002
		c-0.268,0.002-0.314-0.087-0.311-0.328C9.182,22.848,9.173,22.022,9.173,21.196z"/>
	<path fill-rule="evenodd" clip-rule="evenodd" fill="#008FD3" d="M21.204,23.993c-0.806,0-1.613-0.009-2.42,0.005
		c-0.246,0.004-0.337-0.039-0.334-0.318c0.016-1.642,0.015-3.283,0-4.924c-0.003-0.269,0.083-0.306,0.32-0.304
		c1.641,0.01,3.283,0.014,4.924-0.002c0.27-0.002,0.307,0.083,0.305,0.32c-0.01,1.642-0.014,3.283,0.001,4.925
		c0.002,0.269-0.082,0.308-0.32,0.304C22.855,23.984,22.029,23.993,21.204,23.993z"/>
</g>
</svg>
