<?xml version="1.0" encoding="utf-8"?>
<!-- Generator: Adobe Illustrator 16.0.0, SVG Export Plug-In . SVG Version: 6.00 Build 0)  -->
<!DOCTYPE svg PUBLIC "-//W3C//DTD SVG 1.1//EN" "http://www.w3.org/Graphics/SVG/1.1/DTD/svg11.dtd">
<svg version="1.1" xmlns="http://www.w3.org/2000/svg" xmlns:xlink="http://www.w3.org/1999/xlink" x="0px" y="0px" width="24px"
	 height="24px" viewBox="0 0 24 24" enable-background="new 0 0 24 24" xml:space="preserve">
<g id="Layer_3">
	<rect x="-1852.54" y="-473.739" fill="#FFFFFF" width="2054" height="749"/>
	<g id="_x3C_Group_x3E__clored_48">
		<polygon fill="#BFBFBF" points="5.128,6.833 6.833,8.546 6.833,6.836 10.249,2.59 10.249,0 0,0 0,10.255 1.554,11.031 
			3.419,15.382 4.273,23.073 6.122,23.928 9.68,15.382 9.68,12.846 1.708,9.744 1.708,6.833 		"/>
		<polygon fill="#666666" points="17.092,2.847 18.791,2.847 18.791,0 		"/>
		<path fill="#666666" d="M22.22,5.127"/>
		<g>
			<polygon fill="#707070" points="22.245,0 18.827,3.416 17.118,3.416 15.374,5.127 15.374,7.972 17.118,7.972 18.827,5.125 
				20.536,5.125 21.391,6.833 22.207,6.833 22.207,5.127 23.915,6.836 23.915,0 			"/>
			<polygon fill="#FABB2A" points="13.669,11.962 17.083,15.382 17.083,23.928 19.651,23.073 22.211,15.382 23.915,11.964 
				23.915,8.541 15.383,8.541 			"/>
		</g>
	</g>
</g>
<g id="Layout">
</g>
<g id="icons">
</g>
</svg>
