<?xml version="1.0" encoding="utf-8"?>
<!-- Generator: Adobe Illustrator 16.0.0, SVG Export Plug-In . SVG Version: 6.00 Build 0)  -->
<!DOCTYPE svg PUBLIC "-//W3C//DTD SVG 1.1//EN" "http://www.w3.org/Graphics/SVG/1.1/DTD/svg11.dtd">
<svg version="1.1" id="Layer_1" xmlns="http://www.w3.org/2000/svg" xmlns:xlink="http://www.w3.org/1999/xlink" x="0px" y="0px"
	 width="24px" height="24px" viewBox="0 0 24 24" enable-background="new 0 0 24 24" xml:space="preserve">
<g>
	<path fill-rule="evenodd" clip-rule="evenodd" fill="#666666" d="M14.393,3.61c3.058,0,6.115,0.005,9.172-0.008
		c0.347-0.002,0.448,0.096,0.43,0.436c-0.028,0.51-0.034,1.025,0.001,1.534c0.026,0.379-0.115,0.445-0.462,0.443
		c-3.345-0.013-6.688-0.007-10.033-0.007c-2.758,0-5.516-0.006-8.273,0.008C4.88,6.017,4.779,5.918,4.797,5.579
		c0.028-0.51,0.034-1.025-0.001-1.534C4.77,3.665,4.911,3.6,5.258,3.602C8.302,3.615,11.347,3.61,14.393,3.61z"/>
	<path fill-rule="evenodd" clip-rule="evenodd" fill="#666666" d="M14.4,10.803c-3.058,0-6.115-0.006-9.172,0.008
		c-0.347,0.001-0.449-0.096-0.431-0.436c0.028-0.522,0.031-1.049-0.001-1.571C4.775,8.456,4.906,8.398,5.22,8.398
		c3.294,0.011,6.589,0.007,9.884,0.007c2.82,0,5.641,0.006,8.461-0.008c0.347-0.002,0.448,0.096,0.43,0.436
		c-0.027,0.522-0.031,1.049,0.001,1.572c0.021,0.348-0.11,0.406-0.424,0.405C20.515,10.798,17.458,10.803,14.4,10.803z"/>
	<path fill-rule="evenodd" clip-rule="evenodd" fill="#666666" d="M14.385,15.599c-3.057,0-6.114-0.006-9.172,0.007
		c-0.328,0.001-0.433-0.079-0.416-0.414c0.029-0.56,0.02-1.123,0.003-1.684c-0.008-0.252,0.085-0.318,0.323-0.313
		c0.61,0.014,1.222,0.004,1.833,0.004c5.529,0,11.057,0.003,16.585-0.008c0.36,0,0.477,0.085,0.454,0.452
		c-0.033,0.521-0.027,1.049-0.001,1.572c0.016,0.321-0.096,0.391-0.4,0.389C20.525,15.594,17.455,15.599,14.385,15.599z"/>
	<path fill-rule="evenodd" clip-rule="evenodd" fill="#666666" d="M14.403,17.997c3.057,0,6.114,0.004,9.172-0.007
		c0.318,0,0.44,0.063,0.421,0.408c-0.03,0.573-0.016,1.148-0.005,1.722c0.004,0.211-0.068,0.298-0.279,0.277
		c-0.099-0.01-0.2-0.001-0.299-0.001c-6.04,0-12.08,0-18.12,0c-0.488,0-0.488,0-0.488-0.475c0-0.512,0.019-1.024-0.007-1.535
		c-0.016-0.313,0.084-0.396,0.395-0.395C8.263,18.001,11.333,17.997,14.403,17.997z"/>
	<path fill-rule="evenodd" clip-rule="evenodd" fill="#008FD3" d="M1.227,3.61c0.211,0,0.422-0.003,0.634,0
		C2.488,3.619,2.4,3.527,2.406,4.173C2.411,4.684,2.398,5.194,2.41,5.704c0.005,0.215-0.047,0.313-0.288,0.308
		C1.513,5.998,0.903,6.001,0.293,6.01c-0.2,0.003-0.292-0.046-0.288-0.269c0.012-0.622,0.012-1.245,0-1.866
		C0.001,3.653,0.094,3.599,0.294,3.606C0.604,3.618,0.916,3.61,1.227,3.61z"/>
	<path fill-rule="evenodd" clip-rule="evenodd" fill="#008FD3" d="M0.009,9.586c0-0.261,0.019-0.524-0.005-0.784
		c-0.027-0.299,0.055-0.42,0.382-0.404c0.571,0.027,1.145,0.014,1.717,0.004c0.215-0.004,0.313,0.046,0.308,0.287
		c-0.014,0.609-0.01,1.219-0.001,1.829c0.002,0.199-0.046,0.293-0.268,0.288c-0.623-0.011-1.244-0.011-1.867,0
		c-0.222,0.004-0.277-0.087-0.269-0.288C0.018,10.208,0.01,9.897,0.009,9.586z"/>
	<path fill-rule="evenodd" clip-rule="evenodd" fill="#008FD3" d="M1.194,15.599c-0.299,0-0.598-0.008-0.896,0.002
		c-0.195,0.007-0.296-0.037-0.292-0.264c0.012-0.622,0.008-1.245,0.002-1.866c-0.002-0.178,0.036-0.276,0.245-0.273
		c0.634,0.01,1.27,0.009,1.904,0c0.201-0.003,0.256,0.077,0.254,0.265c-0.008,0.622-0.01,1.244,0.001,1.867
		c0.003,0.217-0.08,0.281-0.284,0.272C1.816,15.589,1.504,15.599,1.194,15.599z"/>
	<path fill-rule="evenodd" clip-rule="evenodd" fill="#008FD3" d="M2.407,19.214c0,0.212,0.003,0.423,0,0.635
		c-0.009,0.627,0.082,0.539-0.564,0.544c-0.51,0.005-1.021-0.006-1.531,0.005c-0.215,0.005-0.313-0.047-0.307-0.288
		c0.014-0.609,0.01-1.22,0.001-1.829c-0.002-0.2,0.047-0.292,0.269-0.288c0.623,0.011,1.245,0.011,1.867,0
		c0.222-0.004,0.276,0.087,0.269,0.288C2.398,18.591,2.407,18.903,2.407,19.214z"/>
</g>
</svg>
