<?xml version="1.0" encoding="utf-8"?>
<!-- Generator: Adobe Illustrator 16.0.0, SVG Export Plug-In . SVG Version: 6.00 Build 0)  -->
<!DOCTYPE svg PUBLIC "-//W3C//DTD SVG 1.1//EN" "http://www.w3.org/Graphics/SVG/1.1/DTD/svg11.dtd">
<svg version="1.1" id="Layer_1" xmlns="http://www.w3.org/2000/svg" xmlns:xlink="http://www.w3.org/1999/xlink" x="0px" y="0px"
	 width="24px" height="24px" viewBox="0 0 24 24" enable-background="new 0 0 24 24" xml:space="preserve">
<g>
	<path fill="#666666" d="M24,23.014C24,23.558,23.559,24,23.014,24H0.986C0.441,24,0,23.558,0,23.014V0.986C0,0.442,0.441,0,0.986,0
		h22.027C23.559,0,24,0.442,24,0.986V23.014z"/>
	<g>
		<path fill-rule="evenodd" clip-rule="evenodd" fill="#FFFFFF" d="M9.699,8.268c-0.968,0-1.926,0-2.941,0
			c0.041-0.349,0.059-0.692,0.129-1.026c0.455-2.152,2.15-3.768,4.322-4.081c2.857-0.412,5.398,1.53,5.86,4.233
			c0.432,2.522-0.958,4.916-3.367,5.783c-0.21,0.076-0.28,0.175-0.272,0.395c0.019,0.455,0.006,0.911,0.006,1.382
			c-0.983,0-1.947,0-2.926,0c0-1.464,0-2.923,0-4.412c0.462,0,0.917,0.022,1.369-0.008c0.327-0.022,0.668-0.065,0.969-0.185
			c1.002-0.399,1.531-1.459,1.313-2.541c-0.207-1.022-1.149-1.761-2.24-1.758c-1.034,0.003-1.952,0.77-2.155,1.801
			C9.739,7.98,9.724,8.11,9.699,8.268z"/>
		<path fill-rule="evenodd" clip-rule="evenodd" fill="#FFFFFF" d="M10.503,20.901c0-0.975,0-1.931,0-2.906c0.973,0,1.935,0,2.915,0
			c0,0.962,0,1.925,0,2.906C12.455,20.901,11.492,20.901,10.503,20.901z"/>
	</g>
</g>
</svg>
