<?xml version="1.0" encoding="utf-8"?>
<!-- Generator: Adobe Illustrator 16.0.0, SVG Export Plug-In . SVG Version: 6.00 Build 0)  -->
<!DOCTYPE svg PUBLIC "-//W3C//DTD SVG 1.1//EN" "http://www.w3.org/Graphics/SVG/1.1/DTD/svg11.dtd">
<svg version="1.1" id="Layer_1" xmlns="http://www.w3.org/2000/svg" xmlns:xlink="http://www.w3.org/1999/xlink" x="0px" y="0px"
	 width="24px" height="24px" viewBox="0 0 24 24" enable-background="new 0 0 24 24" xml:space="preserve">
<path fill-rule="evenodd" clip-rule="evenodd" fill="#666666" d="M0.005,11.974C0.005,8.091,0.008,4.209,0,0.327
	C-0.001,0.073,0.057,0,0.32,0c7.782,0.007,15.564,0.008,23.347,0C23.945-0.001,24,0.076,24,0.34c-0.007,7.773-0.007,15.547,0,23.32
	c0,0.264-0.056,0.342-0.333,0.341c-7.783-0.008-15.565-0.008-23.347,0c-0.264,0-0.321-0.074-0.32-0.328
	C0.008,19.774,0.005,15.874,0.005,11.974z M12,22.281c3.328,0,6.657-0.002,9.985,0.005c0.23,0.001,0.301-0.05,0.301-0.293
	c-0.008-6.657-0.008-13.313,0-19.97c0-0.255-0.079-0.306-0.315-0.306c-6.648,0.006-13.296,0.006-19.944,0
	c-0.241,0-0.314,0.056-0.314,0.307c0.007,6.648,0.007,13.296,0,19.944c-0.001,0.267,0.079,0.319,0.33,0.319
	C5.361,22.279,8.681,22.281,12,22.281z"/>
</svg>
