<?xml version="1.0" encoding="utf-8"?>
<!-- Generator: Adobe Illustrator 16.0.0, SVG Export Plug-In . SVG Version: 6.00 Build 0)  -->
<!DOCTYPE svg PUBLIC "-//W3C//DTD SVG 1.1//EN" "http://www.w3.org/Graphics/SVG/1.1/DTD/svg11.dtd">
<svg version="1.1" xmlns="http://www.w3.org/2000/svg" xmlns:xlink="http://www.w3.org/1999/xlink" x="0px" y="0px" width="24px"
	 height="24px" viewBox="0 0 24 24" enable-background="new 0 0 24 24" xml:space="preserve">
<g id="Layout">
</g>
<g id="icons">
	<g>
		<path fill-rule="evenodd" clip-rule="evenodd" fill="#008FD3" d="M19.069,14.783c0.522,0.454,1.022,0.892,1.522,1.329
			c0.482,0.422,0.965,0.846,1.448,1.266c0.051,0.046,0.092,0.074,0.015,0.14c-0.979,0.854-1.956,1.71-2.933,2.563
			c-0.011,0.012-0.024,0.017-0.053,0.038c0-0.082,0-0.151,0-0.22c0-0.402,0-0.806,0-1.21c0.001-0.059,0.002-0.101-0.082-0.101
			c-0.913,0.001-1.8,0.126-2.624,0.555c-0.449,0.233-0.836,0.546-1.166,0.932c-0.055,0.066-0.106,0.17-0.215,0.111
			c-0.099-0.053-0.045-0.151-0.028-0.232c0.142-0.659,0.331-1.302,0.658-1.896c0.515-0.941,1.32-1.468,2.365-1.649
			c0.316-0.054,0.635-0.082,0.956-0.082c0.101,0,0.141-0.021,0.138-0.134C19.065,15.73,19.069,15.27,19.069,14.783z"/>
		<path fill-rule="evenodd" clip-rule="evenodd" fill="#666666" d="M3.902,14.643v4.283H14.07c0.152-0.63,0.335-1.137,0.586-1.594
			c0.549-1.002,1.422-1.613,2.594-1.816c0.082-0.015,0.163-0.023,0.244-0.034v-0.839H3.902z"/>
		<rect x="3.902" y="3.797" fill-rule="evenodd" clip-rule="evenodd" fill="#666666" width="13.593" height="4.273"/>
		<rect x="3.902" y="9.4" fill-rule="evenodd" clip-rule="evenodd" fill="#666666" width="13.593" height="3.917"/>
	</g>
</g>
</svg>
