<?xml version="1.0" encoding="utf-8"?>
<!-- Generator: Adobe Illustrator 16.0.0, SVG Export Plug-In . SVG Version: 6.00 Build 0)  -->
<!DOCTYPE svg PUBLIC "-//W3C//DTD SVG 1.1//EN" "http://www.w3.org/Graphics/SVG/1.1/DTD/svg11.dtd">
<svg version="1.1" id="Layer_1" xmlns="http://www.w3.org/2000/svg" xmlns:xlink="http://www.w3.org/1999/xlink" x="0px" y="0px"
	 width="24px" height="24px" viewBox="0 0 24 24" enable-background="new 0 0 24 24" xml:space="preserve">
<g>
	<path fill-rule="evenodd" clip-rule="evenodd" fill="#008FD3" d="M20.255,7.333c0.645,0.563,1.264,1.104,1.882,1.645
		c0.597,0.522,1.193,1.044,1.792,1.565c0.063,0.055,0.113,0.091,0.018,0.173c-1.211,1.054-2.419,2.112-3.627,3.168
		c-0.014,0.012-0.029,0.021-0.064,0.046c0-0.102,0-0.187,0-0.271c0-0.499,0-0.997,0-1.496c0-0.074,0.002-0.125-0.102-0.125
		c-1.13,0.002-2.227,0.155-3.245,0.685c-0.556,0.289-1.035,0.676-1.441,1.152c-0.069,0.081-0.132,0.211-0.266,0.139
		c-0.123-0.066-0.056-0.188-0.035-0.287c0.175-0.816,0.409-1.61,0.813-2.347c0.638-1.164,1.632-1.813,2.925-2.038
		c0.391-0.068,0.786-0.103,1.183-0.102c0.124,0,0.174-0.026,0.171-0.167C20.25,8.505,20.255,7.935,20.255,7.333z"/>
	<path fill-rule="evenodd" clip-rule="evenodd" fill="#666666" d="M22.115,14.369c0,0.053,0,0.109,0,0.166
		c0,0.663-0.003,1.326,0.003,1.989c0,0.118-0.036,0.145-0.148,0.144c-3.001-0.002-18.818-0.003-21.819,0
		C0.026,16.667,0,16.629,0,16.511c0.004-2.376,0.003-4.752,0.002-7.129c0-0.083-0.015-0.157,0.119-0.157
		C1.146,9.23,14.989,9.229,16.015,9.229c0.009,0,0.018,0.004,0.029,0.007c0.004,0.053-0.042,0.071-0.07,0.1
		c-0.239,0.241-0.481,0.477-0.716,0.721c-0.074,0.077-0.15,0.105-0.255,0.103c-0.377-0.005-13.571,0-13.949-0.004
		c-0.095-0.001-0.124,0.028-0.124,0.123c0.002,1.777,0.003,3.553,0,5.329c0,0.104,0.034,0.129,0.133,0.129
		c2.391-0.002,17.598-0.003,19.989,0c0.113,0,0.152-0.039,0.132-0.142c-0.064-0.333,0.068-0.563,0.342-0.75
		c0.201-0.138,0.374-0.319,0.56-0.48C22.089,14.363,22.096,14.366,22.115,14.369z"/>
</g>
</svg>
