<?xml version="1.0" encoding="utf-8"?>
<!-- Generator: Adobe Illustrator 16.0.0, SVG Export Plug-In . SVG Version: 6.00 Build 0)  -->
<!DOCTYPE svg PUBLIC "-//W3C//DTD SVG 1.1//EN" "http://www.w3.org/Graphics/SVG/1.1/DTD/svg11.dtd">
<svg version="1.1" xmlns="http://www.w3.org/2000/svg" xmlns:xlink="http://www.w3.org/1999/xlink" x="0px" y="0px" width="24px"
	 height="24px" viewBox="0 0 24 24" enable-background="new 0 0 24 24" xml:space="preserve">
<g id="Layout">
</g>
<g id="icons">
	<g>
		<path fill-rule="evenodd" clip-rule="evenodd" fill="#008FD3" d="M19.77,16.147c0.52,0.453,1.019,0.89,1.518,1.326
			c0.481,0.42,0.962,0.842,1.444,1.261c0.051,0.046,0.091,0.074,0.015,0.141c-0.977,0.851-1.951,1.704-2.925,2.555
			c-0.011,0.011-0.023,0.018-0.052,0.038c0-0.082,0-0.151,0-0.22c0-0.401,0-0.803,0-1.206c0-0.059,0.002-0.101-0.082-0.101
			c-0.911,0.001-1.795,0.126-2.616,0.553c-0.448,0.233-0.834,0.545-1.163,0.929c-0.056,0.066-0.106,0.171-0.214,0.112
			c-0.099-0.054-0.045-0.151-0.028-0.231c0.141-0.658,0.33-1.298,0.656-1.892c0.514-0.938,1.316-1.463,2.358-1.645
			c0.315-0.054,0.634-0.082,0.954-0.082c0.1,0,0.14-0.021,0.138-0.134C19.765,17.092,19.77,16.632,19.77,16.147z"/>
		<path fill-rule="evenodd" clip-rule="evenodd" fill="#666666" d="M12.873,4.865L10.88,2.446L8.717,4.865H3.211v15.688h11.474
			c0.125-0.52,0.271-0.963,0.45-1.366H4.328v-3.552h13.104v1.304c0.265-0.099,0.542-0.182,0.842-0.233
			c0.092-0.017,0.184-0.026,0.276-0.038V4.865H12.873z M4.322,9.636V6.083h13.104v3.553H4.322z M17.432,14.371H4.328v-3.552h13.104
			V14.371z"/>
	</g>
</g>
</svg>
