<?xml version="1.0" encoding="utf-8"?>
<!-- Generator: Adobe Illustrator 16.0.0, SVG Export Plug-In . SVG Version: 6.00 Build 0)  -->
<!DOCTYPE svg PUBLIC "-//W3C//DTD SVG 1.1//EN" "http://www.w3.org/Graphics/SVG/1.1/DTD/svg11.dtd">
<svg version="1.1" xmlns="http://www.w3.org/2000/svg" xmlns:xlink="http://www.w3.org/1999/xlink" x="0px" y="0px" width="24px"
	 height="24px" viewBox="0 0 24 24" enable-background="new 0 0 24 24" xml:space="preserve">
<g id="Layout">
</g>
<g id="icons">
	<g>
		<path fill-rule="evenodd" clip-rule="evenodd" fill="#666666" d="M15.999,13.775c0.613-0.266,1.164-0.516,1.729-0.742
			c0.215-0.086,0.275-0.195,0.275-0.393c-0.01-1.545-0.01-3.09,0-4.635c0-0.195-0.061-0.303-0.273-0.395
			c-3.836-1.648-7.67-3.303-11.502-4.963C6.06,2.576,5.935,2.582,5.769,2.654C3.956,3.441,2.144,4.227,0.323,5
			C0.085,5.102,0.001,5.217,0.001,5.449c0.008,4.395,0.008,8.787-0.002,13.182c0,0.242,0.086,0.361,0.336,0.471
			c3.643,1.561,7.289,3.119,10.908,4.719c0.57,0.252,0.975,0.232,1.527-0.01c3.633-1.598,7.287-3.16,10.936-4.732
			c0.162-0.07,0.295-0.127,0.293-0.328c-0.006-4.465-0.006-8.932,0-13.396c0-0.158-0.066-0.24-0.227-0.311
			c-3.863-1.662-7.725-3.33-11.584-4.998c-0.137-0.059-0.242-0.059-0.377,0c-1.096,0.479-2.195,0.951-3.291,1.426
			C8.45,1.502,8.337,1.51,8.337,1.596c0,0.084,0.109,0.098,0.18,0.129c0.584,0.254,1.174,0.504,1.756,0.762
			c0.146,0.066,0.264,0.064,0.406-0.002c0.359-0.164,0.73-0.309,1.086-0.475c0.162-0.076,0.291-0.08,0.461-0.006
			c3.17,1.375,6.344,2.744,9.52,4.107c0.182,0.08,0.256,0.168,0.256,0.35c-0.008,3.729-0.006,7.457-0.002,11.186
			c0.002,0.17-0.068,0.256-0.238,0.33c-3.186,1.369-6.369,2.742-9.549,4.119c-0.158,0.07-0.277,0.063-0.432-0.004
			c-3.172-1.373-6.344-2.742-9.52-4.107c-0.182-0.078-0.26-0.164-0.26-0.346c0.006-3.73,0.006-7.459,0-11.188
			c0-0.168,0.063-0.258,0.236-0.332c1.195-0.508,2.387-1.021,3.574-1.541c0.135-0.057,0.24-0.063,0.377-0.004
			c3.199,1.385,6.4,2.768,9.604,4.145c0.168,0.072,0.213,0.166,0.209,0.318c-0.008,0.512-0.002,1.023-0.002,1.537
			C15.999,11.623,15.999,12.674,15.999,13.775z"/>
		<path fill-rule="evenodd" clip-rule="evenodd" fill="#666666" d="M15.999,13.775c0-1.102,0-2.152,0-3.201
			c0-0.514-0.006-1.025,0.002-1.537c0.004-0.152-0.041-0.246-0.209-0.318c-3.203-1.377-6.404-2.76-9.604-4.145
			C6.052,4.516,5.946,4.521,5.812,4.578c-1.188,0.52-2.379,1.033-3.574,1.541C2.063,6.193,2.001,6.283,2.001,6.451
			c0.006,3.729,0.006,7.457,0,11.188c0,0.182,0.078,0.268,0.26,0.346c3.176,1.365,6.348,2.734,9.52,4.107
			c0.154,0.066,0.273,0.074,0.432,0.004c3.18-1.377,6.363-2.75,9.549-4.119c0.17-0.074,0.24-0.16,0.238-0.33
			c-0.004-3.729-0.006-7.457,0.002-11.186c0-0.182-0.074-0.27-0.256-0.35c-3.176-1.363-6.35-2.732-9.52-4.107
			c-0.17-0.074-0.299-0.07-0.461,0.006c-0.355,0.166-0.727,0.311-1.086,0.475c-0.143,0.066-0.26,0.068-0.406,0.002
			C9.69,2.229,9.101,1.979,8.517,1.725c-0.07-0.031-0.18-0.045-0.18-0.129c0-0.086,0.113-0.094,0.184-0.125
			c1.096-0.475,2.195-0.947,3.291-1.426c0.135-0.059,0.24-0.059,0.377,0c3.859,1.668,7.721,3.336,11.584,4.998
			c0.16,0.07,0.227,0.152,0.227,0.311c-0.006,4.465-0.006,8.932,0,13.396c0.002,0.201-0.131,0.258-0.293,0.328
			c-3.648,1.572-7.303,3.135-10.936,4.732c-0.553,0.242-0.957,0.262-1.527,0.01c-3.619-1.6-7.266-3.158-10.908-4.719
			c-0.25-0.109-0.336-0.229-0.336-0.471c0.01-4.395,0.01-8.787,0.002-13.182c0-0.232,0.084-0.348,0.322-0.449
			c1.82-0.773,3.633-1.559,5.445-2.346C5.935,2.582,6.06,2.576,6.228,2.648c3.832,1.66,7.666,3.314,11.502,4.963
			c0.213,0.092,0.273,0.199,0.273,0.395c-0.01,1.545-0.01,3.09,0,4.635c0,0.197-0.061,0.307-0.275,0.393
			C17.163,13.26,16.612,13.51,15.999,13.775z"/>
	</g>
	<g>
		<path fill="#008FD3" d="M4.768,12.644c-0.02-0.221-0.178-0.393-0.475-0.51c-0.305-0.121-0.457-0.08-0.459,0.127
			c0,0.109,0.049,0.209,0.145,0.301c0.098,0.092,0.26,0.205,0.48,0.34c0.381,0.23,0.637,0.443,0.77,0.641
			c0.133,0.195,0.197,0.404,0.195,0.631c-0.002,0.273-0.115,0.438-0.34,0.496c-0.227,0.057-0.479,0.029-0.764-0.084
			c-0.691-0.277-1.084-0.725-1.18-1.342l0.576,0.178c0.045,0.35,0.25,0.596,0.611,0.74c0.16,0.063,0.287,0.076,0.379,0.035
			s0.141-0.125,0.141-0.254c0.002-0.117-0.041-0.221-0.127-0.314c-0.088-0.092-0.275-0.229-0.568-0.408
			c-0.33-0.201-0.561-0.395-0.691-0.58c-0.129-0.184-0.193-0.373-0.191-0.564c0-0.141,0.041-0.254,0.121-0.344
			c0.08-0.088,0.195-0.137,0.352-0.143c0.154-0.006,0.342,0.037,0.561,0.125c0.668,0.266,1.018,0.645,1.045,1.139L4.768,12.644z"/>
		<path fill="#008FD3" d="M5.965,12.423l0.742,0.295c0.168,0.066,0.314,0.133,0.441,0.197c0.127,0.066,0.258,0.158,0.395,0.277
			c0.137,0.117,0.25,0.256,0.342,0.41c0.092,0.158,0.164,0.32,0.221,0.492c0.053,0.172,0.08,0.379,0.078,0.623
			c-0.002,0.125-0.014,0.25-0.039,0.377s-0.09,0.25-0.189,0.369c-0.102,0.119-0.227,0.188-0.375,0.203
			c-0.148,0.018-0.293,0.008-0.436-0.031s-0.283-0.086-0.426-0.143l-0.773-0.309L5.965,12.423z M6.521,14.989l0.115,0.047
			c0.232,0.092,0.412,0.143,0.543,0.154c0.127,0.01,0.229-0.039,0.301-0.146s0.107-0.303,0.109-0.584
			c0.002-0.279-0.041-0.506-0.129-0.682s-0.197-0.311-0.326-0.402c-0.131-0.094-0.289-0.178-0.471-0.25l-0.129-0.051L6.521,14.989z"
			/>
		<path fill="#008FD3" d="M10.916,17.167l-0.674-0.268l-0.785-1.613c0-0.004-0.035,0.018-0.105,0.063l-0.17,0.107l-0.008,1.016
			L8.6,16.243l0.02-2.764l0.574,0.23l-0.008,1.109l1.029-0.703l0.654,0.262l-1.059,0.676L10.916,17.167z"/>
	</g>
</g>
</svg>
