<?xml version="1.0" encoding="utf-8"?>
<!-- Generator: Adobe Illustrator 16.0.0, SVG Export Plug-In . SVG Version: 6.00 Build 0)  -->
<!DOCTYPE svg PUBLIC "-//W3C//DTD SVG 1.1//EN" "http://www.w3.org/Graphics/SVG/1.1/DTD/svg11.dtd">
<svg version="1.1" xmlns="http://www.w3.org/2000/svg" xmlns:xlink="http://www.w3.org/1999/xlink" x="0px" y="0px" width="24px"
	 height="24px" viewBox="0 0 24 24" enable-background="new 0 0 24 24" xml:space="preserve">
<g id="Layout">
</g>
<g id="icons">
	<g>
		<rect x="9.264" y="6.283" fill="#666666" width="1.685" height="14.768"/>
		<rect x="9.279" y="19.433" fill="#666666" width="7.792" height="1.685"/>
		<rect x="9.279" y="6.226" fill="#666666" width="7.792" height="1.684"/>
		<rect x="6.998" y="12.745" fill="#666666" width="10.073" height="1.685"/>
		<polygon fill-rule="evenodd" clip-rule="evenodd" fill="#008FD3" points="6.998,12.772 6.998,14.403 6.994,15.7 6.805,15.909 
			0.257,15.909 0.07,15.698 0.07,11.476 0.257,11.267 6.805,11.267 6.994,11.476 6.998,12.772 		"/>
		<polygon fill-rule="evenodd" clip-rule="evenodd" fill="#4FB81C" points="24,6.252 24,7.882 23.997,9.18 23.807,9.39 17.258,9.39 
			17.071,9.179 17.071,4.955 17.259,4.746 23.807,4.746 23.997,4.954 24,6.252 		"/>
		<polygon fill-rule="evenodd" clip-rule="evenodd" fill="#4FB81C" points="24,12.852 24,14.481 23.997,15.779 23.807,15.989 
			17.258,15.989 17.071,15.778 17.071,11.555 17.259,11.346 23.807,11.346 23.997,11.555 24,12.852 		"/>
		<polygon fill-rule="evenodd" clip-rule="evenodd" fill="#4FB81C" points="24,19.46 24,21.089 23.997,22.388 23.807,22.597 
			17.258,22.597 17.071,22.386 17.071,18.163 17.259,17.953 23.807,17.953 23.997,18.161 24,19.46 		"/>
	</g>
</g>
</svg>
