<?xml version="1.0" encoding="utf-8"?>
<!-- Generator: Adobe Illustrator 16.0.0, SVG Export Plug-In . SVG Version: 6.00 Build 0)  -->
<!DOCTYPE svg PUBLIC "-//W3C//DTD SVG 1.1//EN" "http://www.w3.org/Graphics/SVG/1.1/DTD/svg11.dtd">
<svg version="1.1" xmlns="http://www.w3.org/2000/svg" xmlns:xlink="http://www.w3.org/1999/xlink" x="0px" y="0px" width="24px"
	 height="24px" viewBox="0 0 24 24" enable-background="new 0 0 24 24" xml:space="preserve">
<g id="Layout">
</g>
<g id="icons">
	<g>
		<g>
			<path fill-rule="evenodd" clip-rule="evenodd" fill="#666666" d="M8.952,3.042c0-0.986,0.001-1.973-0.001-2.959
				C8.951,0.018,8.965,0,9.032,0c1.978,0.002,3.956,0.002,5.932,0c0.072,0,0.085,0.02,0.085,0.086c-0.001,1.976-0.001,3.951,0,5.926
				c0,0.067-0.013,0.086-0.085,0.086c-1.978-0.002-3.954-0.002-5.932,0c-0.067,0-0.082-0.019-0.082-0.083
				C8.953,5.025,8.952,4.034,8.952,3.042z M12,5.663c0.846,0,1.691-0.001,2.538,0c0.058,0,0.075-0.012,0.075-0.074
				c-0.001-1.691-0.001-3.383,0-5.075c0-0.065-0.02-0.077-0.08-0.077c-1.689,0.001-3.378,0.001-5.067,0
				c-0.061,0-0.08,0.014-0.08,0.078c0.002,1.689,0.002,3.378,0,5.067c0,0.068,0.02,0.082,0.083,0.081
				C10.313,5.661,11.157,5.663,12,5.663z"/>
			<path fill-rule="evenodd" clip-rule="evenodd" fill="#FEFEFE" d="M11.561,5.222c0.025-0.011,0.032-0.034,0.045-0.051
				c0.774-1.126,1.548-2.252,2.323-3.377c0.025-0.038,0.028-0.061-0.002-0.099c-0.192-0.254-0.386-0.51-0.575-0.767
				c-0.038-0.051-0.052-0.053-0.089,0.002c-0.551,0.831-1.105,1.659-1.657,2.489c-0.031,0.048-0.048,0.06-0.099,0.019
				c-0.327-0.266-0.657-0.527-0.986-0.791c-0.029-0.023-0.045-0.039-0.068,0.008c-0.131,0.266-0.264,0.531-0.397,0.796
				c-0.013,0.026-0.01,0.042,0.009,0.065c0.491,0.558,0.98,1.118,1.47,1.677C11.542,5.204,11.552,5.213,11.561,5.222z"/>
			<path fill-rule="evenodd" clip-rule="evenodd" fill="#008FD3" d="M11.561,5.222c-0.009-0.009-0.019-0.019-0.027-0.028
				c-0.49-0.56-0.979-1.119-1.47-1.677c-0.019-0.023-0.022-0.039-0.009-0.065c0.134-0.265,0.267-0.53,0.397-0.796
				c0.023-0.047,0.04-0.031,0.068-0.008c0.329,0.263,0.66,0.524,0.986,0.791c0.051,0.042,0.068,0.029,0.099-0.019
				c0.552-0.83,1.106-1.659,1.657-2.489c0.037-0.056,0.051-0.054,0.089-0.002c0.189,0.257,0.382,0.513,0.575,0.767
				c0.03,0.039,0.027,0.062,0.002,0.099c-0.775,1.125-1.549,2.25-2.323,3.377C11.593,5.188,11.586,5.211,11.561,5.222z"/>
		</g>
		<g>
			<path fill-rule="evenodd" clip-rule="evenodd" fill="#666666" d="M8.952,11.998c0-0.987,0.001-1.973-0.001-2.96
				c0-0.064,0.015-0.083,0.082-0.083c1.978,0.001,3.956,0.001,5.932,0c0.072,0,0.085,0.019,0.085,0.086
				c-0.001,1.976-0.001,3.951,0,5.926c0,0.068-0.013,0.087-0.085,0.087c-1.978-0.001-3.954-0.001-5.932,0
				c-0.067,0-0.082-0.019-0.082-0.083C8.953,13.98,8.952,12.989,8.952,11.998z M12,14.617c0.846,0,1.691,0,2.538,0.001
				c0.058,0,0.075-0.013,0.075-0.074c-0.001-1.691-0.001-3.384,0-5.075c0-0.065-0.02-0.078-0.08-0.078
				c-1.689,0.002-3.378,0.002-5.067,0c-0.061,0-0.08,0.014-0.08,0.079c0.002,1.689,0.002,3.378,0,5.067
				c0,0.067,0.02,0.081,0.083,0.081C10.313,14.616,11.157,14.617,12,14.617z"/>
			<path fill-rule="evenodd" clip-rule="evenodd" fill="#FEFEFE" d="M11.561,14.178c0.025-0.011,0.032-0.035,0.045-0.052
				c0.774-1.125,1.548-2.251,2.323-3.376c0.025-0.037,0.028-0.061-0.002-0.099c-0.192-0.253-0.386-0.509-0.575-0.766
				C13.314,9.833,13.3,9.83,13.264,9.886c-0.551,0.83-1.105,1.66-1.657,2.49c-0.031,0.047-0.048,0.06-0.099,0.019
				c-0.327-0.267-0.657-0.528-0.986-0.792c-0.029-0.022-0.045-0.038-0.068,0.008c-0.131,0.266-0.264,0.531-0.397,0.796
				c-0.013,0.026-0.01,0.042,0.009,0.064c0.491,0.56,0.98,1.119,1.47,1.678C11.542,14.159,11.552,14.168,11.561,14.178z"/>
			<path fill-rule="evenodd" clip-rule="evenodd" fill="#008FD3" d="M11.561,14.178c-0.009-0.01-0.019-0.019-0.027-0.028
				c-0.49-0.56-0.979-1.119-1.47-1.678c-0.019-0.022-0.022-0.039-0.009-0.064c0.134-0.265,0.267-0.53,0.397-0.796
				c0.023-0.046,0.04-0.03,0.068-0.008c0.329,0.264,0.66,0.525,0.986,0.792c0.051,0.041,0.068,0.028,0.099-0.019
				c0.552-0.83,1.106-1.66,1.657-2.49c0.037-0.056,0.051-0.053,0.089-0.002c0.189,0.257,0.382,0.513,0.575,0.766
				c0.03,0.038,0.027,0.062,0.002,0.099c-0.775,1.125-1.549,2.251-2.323,3.376C11.593,14.143,11.586,14.167,11.561,14.178z"/>
		</g>
		<g>
			<path fill-rule="evenodd" clip-rule="evenodd" fill="#666666" d="M8.952,20.944c0-0.987,0.001-1.974-0.001-2.96
				c0-0.064,0.015-0.083,0.082-0.083c1.978,0.002,3.956,0.002,5.932,0c0.072,0,0.085,0.02,0.085,0.086
				c-0.001,1.976-0.001,3.952,0,5.926c0,0.068-0.013,0.087-0.085,0.087c-1.978-0.003-3.954-0.003-5.932,0
				c-0.067,0-0.082-0.019-0.082-0.083C8.953,22.925,8.952,21.935,8.952,20.944z M12,23.563c0.846,0,1.691,0,2.538,0.001
				c0.058,0,0.075-0.013,0.075-0.074c-0.001-1.691-0.001-3.383,0-5.075c0-0.065-0.02-0.078-0.08-0.078
				c-1.689,0.001-3.378,0.001-5.067,0c-0.061,0-0.08,0.015-0.08,0.079c0.002,1.69,0.002,3.378,0,5.068
				c0,0.067,0.02,0.081,0.083,0.081C10.313,23.562,11.157,23.563,12,23.563z"/>
			<path fill-rule="evenodd" clip-rule="evenodd" fill="#FEFEFE" d="M11.561,23.124c0.025-0.011,0.032-0.035,0.045-0.052
				c0.774-1.125,1.548-2.251,2.323-3.377c0.025-0.037,0.028-0.061-0.002-0.099c-0.192-0.254-0.386-0.509-0.575-0.767
				c-0.038-0.05-0.052-0.053-0.089,0.002c-0.551,0.83-1.105,1.66-1.657,2.489c-0.031,0.048-0.048,0.061-0.099,0.019
				c-0.327-0.266-0.657-0.528-0.986-0.792c-0.029-0.023-0.045-0.039-0.068,0.008c-0.131,0.266-0.264,0.531-0.397,0.795
				c-0.013,0.027-0.01,0.043,0.009,0.065c0.491,0.559,0.98,1.118,1.47,1.678C11.542,23.104,11.552,23.114,11.561,23.124z"/>
			<path fill-rule="evenodd" clip-rule="evenodd" fill="#008FD3" d="M11.561,23.124c-0.009-0.01-0.019-0.02-0.027-0.028
				c-0.49-0.56-0.979-1.119-1.47-1.678c-0.019-0.022-0.022-0.039-0.009-0.065c0.134-0.264,0.267-0.53,0.397-0.795
				c0.023-0.047,0.04-0.031,0.068-0.008c0.329,0.263,0.66,0.525,0.986,0.792c0.051,0.042,0.068,0.029,0.099-0.019
				c0.552-0.83,1.106-1.659,1.657-2.489c0.037-0.056,0.051-0.053,0.089-0.002c0.189,0.258,0.382,0.513,0.575,0.767
				c0.03,0.038,0.027,0.062,0.002,0.099c-0.775,1.125-1.549,2.251-2.323,3.377C11.593,23.089,11.586,23.112,11.561,23.124z"/>
		</g>
	</g>
</g>
</svg>
