<?xml version="1.0" encoding="utf-8"?>
<!-- Generator: Adobe Illustrator 16.0.0, SVG Export Plug-In . SVG Version: 6.00 Build 0)  -->
<!DOCTYPE svg PUBLIC "-//W3C//DTD SVG 1.1//EN" "http://www.w3.org/Graphics/SVG/1.1/DTD/svg11.dtd">
<svg version="1.1" xmlns="http://www.w3.org/2000/svg" xmlns:xlink="http://www.w3.org/1999/xlink" x="0px" y="0px" width="24px"
	 height="24px" viewBox="0 0 24 24" enable-background="new 0 0 24 24" xml:space="preserve">
<g id="Layout">
</g>
<g id="icons">
	<g>
		<path fill-rule="evenodd" clip-rule="evenodd" fill="#FEFEFE" d="M4.883,1.779c-1.109,0-2.217,0.004-3.325-0.002
			c-0.159,0-0.225,0.027-0.224,0.209c0.009,2.299,0.009,4.6,0.011,6.898C1.343,8.979,1.338,9.07,1.338,9.162
			c0,4.832,0.003,9.662-0.007,14.494C1.33,23.947,1.415,24,1.686,24c6.876-0.008,13.752-0.008,20.628,0
			c0.271,0,0.356-0.053,0.355-0.344c-0.01-4.184-0.007-8.367-0.007-12.549c0-0.74-0.004-1.482-0.006-2.223
			c0.002-2.299,0.002-4.6,0.011-6.898c0.001-0.182-0.065-0.209-0.224-0.209c-1.108,0.006-2.216,0.002-3.325,0.002
			c-0.003-0.525-0.011-1.051-0.005-1.576c0.002-0.156-0.041-0.207-0.2-0.203c-0.461,0.01-0.923,0.01-1.384,0
			c-0.16-0.004-0.202,0.047-0.2,0.203c0.006,0.525-0.003,1.051-0.005,1.576c-0.587,0-1.173,0-1.759,0
			c-0.003-0.525-0.011-1.051-0.005-1.576c0.002-0.156-0.041-0.207-0.2-0.203c-0.461,0.01-0.923,0.01-1.384,0
			c-0.16-0.004-0.202,0.047-0.201,0.203c0.006,0.525-0.002,1.051-0.005,1.576c-1.179,0-2.357,0-3.536,0
			c-0.003-0.525-0.012-1.051-0.005-1.576C10.229,0.047,10.187-0.004,10.026,0C9.565,0.01,9.104,0.01,8.643,0
			c-0.16-0.004-0.202,0.047-0.2,0.203C8.449,0.729,8.44,1.254,8.437,1.779c-0.586,0-1.172,0-1.759,0
			C6.675,1.254,6.667,0.729,6.672,0.203C6.674,0.047,6.632-0.004,6.473,0C6.011,0.01,5.55,0.01,5.088,0
			c-0.159-0.004-0.202,0.047-0.2,0.203C4.894,0.729,4.886,1.254,4.883,1.779z"/>
		<path fill-rule="evenodd" clip-rule="evenodd" fill="#008FD3" d="M1.345,8.885c-0.002-2.299-0.002-4.6-0.011-6.898
			c0-0.182,0.065-0.209,0.224-0.209c1.108,0.006,2.216,0.002,3.325,0.002C4.888,2.383,4.894,2.986,4.9,3.59
			C4.897,4.113,4.898,4.639,4.89,5.164C4.888,5.295,4.929,5.34,5.062,5.338c0.479-0.006,0.958-0.006,1.437,0
			C6.631,5.34,6.673,5.295,6.671,5.164C6.663,4.639,6.664,4.113,6.661,3.59c0.005-0.604,0.011-1.207,0.017-1.811
			c0.586,0,1.172,0,1.759,0C8.442,2.383,8.448,2.986,8.454,3.59c-0.002,0.523-0.002,1.049-0.01,1.574
			C8.442,5.295,8.483,5.34,8.616,5.338c0.479-0.006,0.958-0.006,1.437,0c0.132,0.002,0.174-0.043,0.172-0.174
			c-0.008-0.525-0.008-1.051-0.01-1.574c0.006-0.604,0.011-1.207,0.017-1.811c1.179,0,2.357,0,3.536,0
			c0.006,0.604,0.011,1.207,0.017,1.811c-0.002,0.523-0.002,1.049-0.01,1.574c-0.002,0.131,0.04,0.176,0.172,0.174
			c0.479-0.006,0.958-0.006,1.437,0c0.133,0.002,0.174-0.043,0.172-0.174c-0.008-0.525-0.008-1.051-0.01-1.574
			c0.005-0.604,0.011-1.207,0.017-1.811c0.586,0,1.172,0,1.759,0c0.005,0.604,0.011,1.207,0.017,1.811
			c-0.003,0.523-0.001,1.049-0.01,1.574c-0.002,0.131,0.04,0.176,0.173,0.174c0.479-0.006,0.958-0.006,1.437,0
			c0.133,0.002,0.174-0.043,0.172-0.174c-0.008-0.525-0.007-1.051-0.01-1.574c0.006-0.604,0.012-1.207,0.017-1.811
			c1.109,0,2.217,0.004,3.325-0.002c0.159,0,0.225,0.027,0.224,0.209c-0.009,2.299-0.009,4.6-0.011,6.898
			c-0.591,0.004-1.182,0.01-1.772,0.014c-0.074-0.004-0.148-0.01-0.222-0.01c-5.775,0-11.549,0-17.324,0
			c-0.074,0-0.148,0.006-0.222,0.01C2.526,8.895,1.936,8.891,1.345,8.885z"/>
		<path fill-rule="evenodd" clip-rule="evenodd" fill="#676767" d="M1.345,8.885c0.591,0.006,1.181,0.01,1.772,0.014
			c0,4.35,0,8.699-0.007,13.049c0,0.227,0.072,0.273,0.284,0.273c5.738-0.006,11.476-0.006,17.214,0
			c0.211,0,0.284-0.047,0.283-0.273c-0.007-4.35-0.006-8.699-0.006-13.049c0.59-0.004,1.181-0.01,1.772-0.014
			c0.002,0.74,0.006,1.482,0.006,2.223c0,4.182-0.003,8.365,0.007,12.549C22.671,23.947,22.586,24,22.314,24
			c-6.876-0.008-13.752-0.008-20.628,0c-0.271,0-0.356-0.053-0.355-0.344c0.01-4.832,0.007-9.662,0.007-14.494
			C1.338,9.07,1.343,8.979,1.345,8.885z"/>
		<path fill-rule="evenodd" clip-rule="evenodd" fill="#676767" d="M6.678,1.779C6.672,2.383,6.667,2.986,6.661,3.59
			c-0.587,0-1.174,0-1.761,0C4.894,2.986,4.888,2.383,4.883,1.779c0.003-0.525,0.011-1.051,0.005-1.576
			C4.886,0.047,4.929-0.004,5.088,0C5.55,0.01,6.011,0.01,6.473,0c0.16-0.004,0.202,0.047,0.2,0.203
			C6.667,0.729,6.675,1.254,6.678,1.779z"/>
		<path fill-rule="evenodd" clip-rule="evenodd" fill="#676767" d="M10.232,1.779c-0.006,0.604-0.011,1.207-0.017,1.811
			c-0.588,0-1.175,0-1.762,0C8.448,2.986,8.442,2.383,8.437,1.779C8.44,1.254,8.449,0.729,8.442,0.203
			C8.44,0.047,8.483-0.004,8.643,0c0.461,0.01,0.923,0.01,1.384,0c0.16-0.004,0.202,0.047,0.201,0.203
			C10.221,0.729,10.229,1.254,10.232,1.779z"/>
		<path fill-rule="evenodd" clip-rule="evenodd" fill="#676767" d="M15.563,1.779c-0.005,0.604-0.011,1.207-0.017,1.811
			c-0.587,0-1.175,0-1.762,0c-0.006-0.604-0.011-1.207-0.017-1.811c0.003-0.525,0.012-1.051,0.005-1.576
			C13.772,0.047,13.814-0.004,13.974,0c0.461,0.01,0.923,0.01,1.384,0c0.16-0.004,0.202,0.047,0.2,0.203
			C15.552,0.729,15.561,1.254,15.563,1.779z"/>
		<path fill-rule="evenodd" clip-rule="evenodd" fill="#676767" d="M19.118,1.779c-0.005,0.604-0.011,1.207-0.017,1.811
			c-0.587,0-1.174,0-1.761,0c-0.005-0.604-0.011-1.207-0.017-1.811c0.002-0.525,0.011-1.051,0.005-1.576
			c-0.002-0.156,0.04-0.207,0.2-0.203c0.461,0.01,0.923,0.01,1.384,0c0.16-0.004,0.202,0.047,0.2,0.203
			C19.106,0.729,19.115,1.254,19.118,1.779z"/>
		<path fill-rule="evenodd" clip-rule="evenodd" fill="#4FB81C" d="M17.332,13.775c0,0.953,0.007,1.906-0.005,2.859
			c-0.003,0.213,0.058,0.264,0.262,0.256c0.443-0.016,0.888,0,1.332-0.008c0.141-0.002,0.194,0.033,0.192,0.184
			c-0.01,0.473-0.01,0.943,0,1.416c0.002,0.15-0.052,0.186-0.192,0.184c-0.462-0.008-0.925,0.002-1.387-0.006
			c-0.155-0.004-0.208,0.037-0.205,0.199c0.01,0.453-0.002,0.906,0.006,1.359c0.003,0.158-0.021,0.232-0.207,0.227
			c-0.462-0.016-0.925-0.01-1.388-0.002c-0.145,0.002-0.192-0.039-0.189-0.188c0.009-0.434-0.016-0.869,0.01-1.303
			c0.016-0.262-0.079-0.297-0.309-0.295c-1.295,0.01-2.591,0-3.886,0.01c-0.207,0.002-0.268-0.047-0.26-0.258
			c0.019-0.508-0.103-1.053,0.044-1.516c0.146-0.463,0.549-0.844,0.844-1.258c1.132-1.588,2.269-3.174,3.397-4.766
			c0.107-0.15,0.218-0.217,0.407-0.209c0.425,0.014,0.852,0.016,1.276,0c0.204-0.008,0.266,0.041,0.263,0.254
			C17.324,11.869,17.332,12.822,17.332,13.775z M12.901,16.885c0.834,0,1.608-0.006,2.381,0.006
			c0.208,0.002,0.282-0.041,0.279-0.268c-0.014-0.99-0.005-1.98-0.008-2.971c0-0.076,0.035-0.162-0.044-0.246
			C14.647,14.555,13.792,15.697,12.901,16.885z"/>
		<path fill-rule="evenodd" clip-rule="evenodd" fill="#4FB81C" d="M7.558,13.773c-0.422,0.197-0.821,0.361-1.255,0.418
			c-0.091,0.012-0.184,0.016-0.275,0.029c-0.184,0.027-0.26-0.027-0.252-0.232c0.017-0.453,0.009-0.906,0.003-1.359
			c-0.002-0.133,0.025-0.18,0.174-0.203c0.92-0.148,1.438-0.666,1.587-1.596c0.025-0.16,0.09-0.166,0.21-0.166
			c0.462,0.004,0.925,0.008,1.387-0.002c0.16-0.004,0.201,0.047,0.201,0.203c-0.004,3.127-0.004,6.254,0,9.379
			c0,0.16-0.05,0.203-0.204,0.199c-0.425-0.01-0.852-0.018-1.276,0.002c-0.236,0.012-0.309-0.043-0.307-0.297
			c0.013-2.016,0.007-4.033,0.007-6.049C7.558,14.002,7.558,13.902,7.558,13.773z"/>
		<path fill-rule="evenodd" clip-rule="evenodd" fill="#FEFEFE" d="M12.901,16.885c0.891-1.188,1.747-2.33,2.608-3.479
			c0.079,0.084,0.043,0.17,0.044,0.246c0.002,0.99-0.006,1.98,0.008,2.971c0.003,0.227-0.07,0.27-0.279,0.268
			C14.509,16.879,13.735,16.885,12.901,16.885z"/>
	</g>
</g>
</svg>
