<?xml version="1.0" encoding="utf-8"?>
<!-- Generator: Adobe Illustrator 16.0.0, SVG Export Plug-In . SVG Version: 6.00 Build 0)  -->
<!DOCTYPE svg PUBLIC "-//W3C//DTD SVG 1.1//EN" "http://www.w3.org/Graphics/SVG/1.1/DTD/svg11.dtd">
<svg version="1.1" xmlns="http://www.w3.org/2000/svg" xmlns:xlink="http://www.w3.org/1999/xlink" x="0px" y="0px" width="24px"
	 height="24px" viewBox="0 0 24 24" enable-background="new 0 0 24 24" xml:space="preserve">
<g id="Layout">
</g>
<g id="icons">
	<g>
		<path fill-rule="evenodd" clip-rule="evenodd" fill="#008FD3" d="M21.729,8.484c0.391,0.34,0.767,0.668,1.142,0.996
			c0.362,0.318,0.724,0.635,1.086,0.949c0.038,0.035,0.068,0.057,0.011,0.105c-0.735,0.641-1.467,1.283-2.2,1.922
			c-0.009,0.008-0.018,0.014-0.04,0.029c0-0.063,0-0.115,0-0.166c0-0.301,0-0.604,0-0.906c0-0.045,0.001-0.076-0.062-0.076
			c-0.685,0-1.351,0.094-1.968,0.416c-0.337,0.176-0.627,0.41-0.875,0.699c-0.042,0.049-0.08,0.127-0.161,0.084
			c-0.075-0.041-0.034-0.113-0.021-0.176c0.106-0.494,0.248-0.975,0.493-1.422c0.387-0.707,0.99-1.1,1.774-1.236
			c0.237-0.041,0.476-0.063,0.717-0.063c0.075,0,0.105-0.016,0.104-0.1C21.727,9.195,21.729,8.85,21.729,8.484z"/>
		<path fill-rule="evenodd" clip-rule="evenodd" fill="#666666" d="M23.007,12.883c0,0.041,0,0.086,0,0.131
			c0,0.525-0.002,1.842,0.002,2.365c0,0.096-0.029,0.115-0.117,0.115c-2.375-0.002-4.605-0.004-6.981,0
			c-0.098,0-0.119-0.031-0.119-0.123c0.003-1.881,0.002-3.762,0.002-5.643c0-0.066-0.012-0.127,0.094-0.125
			c0.812,0.004,2.27,0.002,3.082,0.002c0.007,0,0.015,0.004,0.023,0.006c0.003,0.043-0.034,0.057-0.056,0.08
			c-0.189,0.191-0.381,0.377-0.567,0.57c-0.059,0.061-0.119,0.082-0.202,0.082c-0.299-0.006-1.244,0-1.542-0.004
			c-0.075,0-0.098,0.023-0.098,0.098c0.001,1.406,0.002,2.813,0,4.219c0,0.082,0.027,0.102,0.105,0.102
			c1.892-0.002,3.64-0.002,5.532,0c0.089,0,0.12-0.031,0.104-0.111c-0.03-1.133,0.054-1.238,0.271-1.387
			c0.159-0.107,0.296-0.252,0.443-0.379C22.986,12.879,22.992,12.881,23.007,12.883z"/>
		<rect x="1.327" y="10.818" fill="#4FB81C" width="4.669" height="3.451"/>
		<path fill="#666666" d="M15.218,15.518H7.896V9.58h7.322V15.518z M8.688,14.727h5.739v-4.354H8.688V14.727z"/>
		<path fill="#666666" d="M7.322,15.518H0V9.58h7.322V15.518z M0.792,14.727h5.739v-4.354H0.792V14.727z"/>
	</g>
</g>
</svg>
