<?xml version="1.0" encoding="utf-8"?>
<!-- Generator: Adobe Illustrator 16.0.0, SVG Export Plug-In . SVG Version: 6.00 Build 0)  -->
<!DOCTYPE svg PUBLIC "-//W3C//DTD SVG 1.1//EN" "http://www.w3.org/Graphics/SVG/1.1/DTD/svg11.dtd">
<svg version="1.1" xmlns="http://www.w3.org/2000/svg" xmlns:xlink="http://www.w3.org/1999/xlink" x="0px" y="0px" width="24px"
	 height="24px" viewBox="0 0 24 24" enable-background="new 0 0 24 24" xml:space="preserve">
<g id="Layout">
</g>
<g id="icons">
	<g>
		<path fill="#666666" d="M23.75,23.75H0.25V0.25h23.5V23.75z M2.309,21.629h19.384V2.371H2.309V21.629z"/>
		<g>
			<polygon fill-rule="evenodd" clip-rule="evenodd" fill="#008FD3" points="14.46,10.311 9.627,19.973 19.292,19.973 			"/>
			<path fill-rule="evenodd" clip-rule="evenodd" fill="#008FD3" d="M11.911,13.494l2.549-5.098l2.549,5.098
				c1.52-0.883,2.547-2.525,2.547-4.406c0-2.809-2.287-5.096-5.097-5.096c-2.81,0-5.096,2.287-5.096,5.096
				C9.364,10.969,10.391,12.611,11.911,13.494z"/>
			<path fill-rule="evenodd" clip-rule="evenodd" fill="#008FD3" d="M11.53,14.256c-1.801-1.021-3.022-2.951-3.022-5.168
				c0-0.598,0.091-1.174,0.256-1.719H3.839v10.193h6.038L11.53,14.256z"/>
		</g>
	</g>
</g>
</svg>
