<?xml version="1.0" encoding="utf-8"?>
<!-- Generator: Adobe Illustrator 16.0.0, SVG Export Plug-In . SVG Version: 6.00 Build 0)  -->
<!DOCTYPE svg PUBLIC "-//W3C//DTD SVG 1.1//EN" "http://www.w3.org/Graphics/SVG/1.1/DTD/svg11.dtd">
<svg version="1.1" xmlns="http://www.w3.org/2000/svg" xmlns:xlink="http://www.w3.org/1999/xlink" x="0px" y="0px" width="24px"
	 height="24px" viewBox="0 0 24 24" enable-background="new 0 0 24 24" xml:space="preserve">
<g id="Layout">
</g>
<g id="icons">
	<g>
		<path fill="#4FB81C" d="M23.055,12.82H0.945C0.423,12.82,0,12.397,0,11.875c0-0.521,0.423-0.945,0.945-0.945h22.11
			c0.522,0,0.945,0.424,0.945,0.945C24,12.397,23.577,12.82,23.055,12.82z"/>
		<path fill="#008FD3" d="M8.921,10.93H0.945C0.423,10.93,0,11.354,0,11.875c0,0.522,0.423,0.945,0.945,0.945h7.976V10.93z"/>
		<path fill="#666666" d="M8.921,17.87c-3.236,0-5.869-2.633-5.869-5.869s2.632-5.87,5.869-5.87c3.237,0,5.87,2.634,5.87,5.87
			S12.158,17.87,8.921,17.87z M8.921,8.02c-2.195,0-3.98,1.787-3.98,3.981s1.785,3.98,3.98,3.98s3.981-1.786,3.981-3.98
			S11.116,8.02,8.921,8.02z"/>
	</g>
</g>
</svg>
