<svg xmlns="http://www.w3.org/2000/svg" height="24" viewBox="0 0 512 512" width="24"  xmlns:xlink="http://www.w3.org/1999/xlink"><rect id="svgEditorBackground" x="0" y="0" width="512" height="512" style="fill:none;stroke:none;"/>
	<path transform="scale(1,-1) translate(0,-512)" d="M240 80c-6 0-10 3-13 6-6 7-3 16 3 23l48 35-48 35c-6 7-9 16-3 23 7 6 16 9 23 3l64-48c3-3 6-7 6-13 0-6-3-10-6-13l-64-48c-4-3-7-3-10-3z m195 109c-3 0-9 0-13 3-6 6-6 16 0 22 16 20 26 39 26 58 0 61-86 112-192 112-6 0-10 0-16 0-10 0-16 6-16 16 0 10 6 16 16 16 3 0 10 0 16 0 125 0 224-64 224-144 0-29-13-54-35-77-3-3-7-6-10-6z m-179-61c-125 0-224 64-224 144 0 35 19 67 54 96 7 6 16 3 23-3 6-7 3-16-3-23-26-22-42-44-42-70 0-61 86-112 192-112 10 0 16 0 26 0 9 0 16-6 16-16 0-10-7-16-16-16-7 0-16 0-26 0z m-112 99c-6 0-13 7-16 13 0 6 0 13 0 16 0 125 58 224 128 224 13 0 26-3 38-10 10-6 13-16 10-22-6-10-16-10-22-6-10 3-16 6-26 6-51 0-96-86-96-192 0-3 0-10 0-13 3-9-6-16-16-16 3 0 0 0 0 0z m112-195c-26 0-54 13-74 42-6 6-3 16 4 22 6 6 16 3 22-3 10-13 29-29 48-29 51 0 96 86 96 192 0 22-3 45-6 64 0 10 3 16 12 19 10 3 16-3 20-13 6-22 6-44 6-70 0-125-54-224-128-224z m-112 176c-6 0-10 3-13 6l-48 64c-6 7-3 16 3 23 7 6 16 3 23-3l35-48 35 48c7 6 16 9 23 3 6-7 9-16 3-23l-48-64c-3-3-7-6-13-6z"/>
</svg>